<?xml version="1.0" standalone="no"?>
<!DOCTYPE svg PUBLIC "-//W3C//DTD SVG 1.1//EN" "http://www.w3.org/Graphics/SVG/1.1/DTD/svg11.dtd" >
<svg xmlns="http://www.w3.org/2000/svg" xmlns:xlink="http://www.w3.org/1999/xlink" version="1.1">
<metadata>
Created by FontForge 20170731 at Mon Oct 23 15:56:08 2017
 By Aleksey,,,
Copyright 2011 The Alegreya Project Authors (https://github.com/huertatipografica/Alegreya)
</metadata>
<defs>
<font id="Alegreya-MediumItalic" horiz-adv-x="0" >
  <font-face 
    font-family="Alegreya Medium"
    font-weight="500"
    font-style="italic"
    font-stretch="normal"
    units-per-em="1000"
    panose-1="0 0 6 0 0 0 0 0 0 0"
    ascent="800"
    descent="-200"
    x-height="460"
    cap-height="647"
    bbox="-407 -303 1291 1028"
    underline-thickness="64"
    underline-position="-273"
    slope="-7"
    unicode-range="U+000D-FB02"
  />
<missing-glyph horiz-adv-x="641" 
d="M336 228l321 -321l-16 -16l-321 321l-321 -321l-16 16l321 321l-321 321l16 16l321 -321l321 321l16 -16z" />
    <glyph glyph-name="Idieresis" unicode="&#xa8;I" horiz-adv-x="349" 
d="M223 257q-21 -136 -21 -164q0 -24 8 -33t27 -9q17 0 30 1t17 2l3 -5l-15 -52q-14 1 -53.5 2t-79.5 1q-32 0 -71 -4.5t-51 -6.5l14 52q45 9 62.5 26.5t21.5 59.5l51 408q2 18 2 22q0 18 -7 25t-24 7q-11 0 -22.5 -1t-15.5 -1q0 1 -1 2.5t-1 2.5l13 49l24 -1q54 -2 98 -2
q27 0 68 3.5t54 5.5l-12 -52q-39 -5 -53.5 -16t-19.5 -40q-25 -146 -46 -282zM123.5 729.5q-10.5 12.5 -10.5 31.5q0 27 18 45.5t45 18.5q20 0 31.5 -12.5t11.5 -31.5q0 -26 -18.5 -45t-45.5 -19q-21 0 -31.5 12.5zM289 729.5q-11 12.5 -11 31.5q0 26 18.5 45t44.5 19
q21 0 32 -12.5t11 -31.5q0 -26 -18.5 -45t-45.5 -19q-20 0 -31 12.5z" />
    <glyph glyph-name="Odieresis" unicode="&#xa8;O" horiz-adv-x="659" 
d="M161.5 21.5q-57.5 33.5 -89.5 94t-32 138.5q0 112 44.5 202.5t123 142t176.5 51.5q75 0 134 -33.5t92 -93.5t33 -138q0 -112 -45.5 -202.5t-125.5 -142.5t-179 -52q-74 0 -131.5 33.5zM423 89q49 38 76.5 107t27.5 159q0 103 -44.5 163.5t-119.5 60.5q-61 0 -109.5 -38.5
t-75.5 -107.5t-27 -158q0 -103 43.5 -163.5t116.5 -60.5q63 0 112 38zM271.5 729.5q-10.5 12.5 -10.5 31.5q0 27 18 45.5t45 18.5q20 0 31.5 -12.5t11.5 -31.5q0 -26 -18.5 -45t-45.5 -19q-21 0 -31.5 12.5zM437 729.5q-11 12.5 -11 31.5q0 26 18.5 45t44.5 19
q21 0 32 -12.5t11 -31.5q0 -26 -18.5 -45t-45.5 -19q-20 0 -31 12.5z" />
    <glyph glyph-name="Yacute" unicode="&#xb4;Y" horiz-adv-x="546" 
d="M248 442q30 -98 39 -121h6l121 197q20 33 20 51q0 12 -11 18t-37 8l-2 4l12 45l26 -2q15 -1 43.5 -2.5t44.5 -1.5q25 0 55 1.5t39 2.5l3 -6l-13 -46q-31 -7 -50.5 -19.5t-35.5 -34t-52 -75.5l-115 -176q-15 -22 -21 -46t-15 -83l-5 -37q-2 -22 -2 -29q0 -22 8.5 -30.5
t28.5 -8.5q16 0 29.5 1t18.5 2l2 -4l-15 -54q-15 1 -55.5 2.5t-80.5 1.5q-32 0 -73.5 -4.5t-54.5 -6.5l13 52q37 7 55 17.5t26 29.5t12 57l4 39q2 22 2 32q0 34 -16 78l-67 186q-16 45 -25.5 64t-26.5 30.5t-50 15.5l-3 5l13 47q12 -1 44.5 -2.5t67.5 -1.5q33 0 81.5 3.5
t63.5 5.5l3 -8l-10 -43q-44 -4 -59.5 -11.5t-15.5 -24.5q0 -20 30 -118zM385 735q-65 -20 -133 -44l-10 7l-9 33q62 31 126 64t83 43l10 -5l20 -60l-4 -12q-18 -6 -83 -26z" />
    <glyph glyph-name="idieresis" unicode="&#xa8;i" horiz-adv-x="272" 
d="M169.5 88.5q12.5 9.5 53.5 45.5l14 -1l15 -29q-58 -60 -95 -88t-59 -28q-19 0 -28 10t-9 31q21 128 35 223t14 110q0 22 -9 31t-31 9h-38l8 47q79 0 174 7l10 -13q-23 -77 -45 -179t-33 -181l4 -4q7 0 19.5 9.5zM59.5 560q-13.5 14 -13.5 35q0 25 16.5 41.5t41.5 16.5
q21 0 33.5 -13.5t12.5 -35.5q0 -25 -16 -41.5t-41 -16.5q-20 0 -33.5 14zM221 560q-13 14 -13 35q0 25 16.5 41.5t41.5 16.5q21 0 33.5 -13.5t12.5 -35.5q0 -25 -16.5 -41.5t-40.5 -16.5q-21 0 -34 14z" />
    <glyph glyph-name="odieresis" unicode="&#xa8;o" horiz-adv-x="422" 
d="M65 34q-34 46 -34 124q0 83 32 154t86 113.5t118 42.5q60 0 93.5 -41t33.5 -116q0 -88 -31.5 -162t-86.5 -117.5t-120 -43.5q-57 0 -91 46zM270 109.5q28 56.5 28 150.5q0 64 -19 100t-54 36q-45 0 -73 -52.5t-28 -138.5q0 -70 19.5 -111t52.5 -41q46 0 74 56.5z
M135.5 560.5q-13.5 13.5 -13.5 35.5q0 25 16.5 41.5t42.5 16.5q21 0 33.5 -13.5t12.5 -35.5q0 -25 -16.5 -41.5t-41.5 -16.5q-20 0 -33.5 13.5zM301 560.5q-13 13.5 -13 35.5q0 26 16 42t42 16q22 0 34 -13t12 -36q0 -25 -16 -41.5t-41 -16.5q-21 0 -34 13.5z" />
    <glyph glyph-name="yacute" unicode="&#xb4;y" horiz-adv-x="448" 
d="M402 468q15 -10 24 -32t9 -48q0 -103 -183 -371q-92 -134 -154.5 -193.5t-112.5 -59.5q-31 0 -54 11.5t-29 29.5q8 49 28 84h14q31 -36 66 -36q58 0 135 101q-19 241 -43 406q-4 22 -12 30t-26 8l-22 -2q-18 -2 -25 -2l3 46l160 22l11 -9q17 -132 17 -348v-40h11
q60 98 92 170.5t32 109.5q0 22 -13 42.5t-36 34.5l6 23zM302.5 607q-53.5 -39 -108.5 -85l-11 3l-25 27q48 49 96 102.5t62 69.5l11 -2l45 -53l-1 -12q-15 -11 -68.5 -50z" />
    <glyph glyph-name="Itilde" unicode="&#x7e;I" horiz-adv-x="349" 
d="M232 257q-21 -136 -21 -164q0 -24 8 -33t27 -9q17 0 30 1t17 2l3 -5l-15 -52q-14 1 -53.5 2t-79.5 1q-32 0 -71 -4.5t-51 -6.5l14 52q45 9 62.5 26.5t21.5 59.5l51 408q2 18 2 22q0 18 -7 25t-24 7q-11 0 -22.5 -1t-15.5 -1q0 1 -1 2.5t-1 2.5l13 49l24 -1q54 -2 98 -2
q27 0 68 3.5t54 5.5l-12 -52q-39 -5 -53.5 -16t-19.5 -40q-25 -146 -46 -282zM110 739l1 8l86 94l16 4q18 0 74 -18q8 -2 31 -8.5t33 -6.5t25 12t27.5 25.5t15.5 17.5h8l27 -27l-1 -8l-86 -94l-16 -4q-19 0 -75 18q-49 15 -63 15q-10 0 -25 -12t-27.5 -25.5t-15.5 -17.5h-9z
" />
    <glyph glyph-name="itilde" unicode="&#x7e;i" horiz-adv-x="272" 
d="M9 573l1 8l86 94l16 4q18 0 74 -18q8 -2 31 -8.5t33 -6.5t25 12t27.5 25.5t15.5 17.5h8l27 -27l-1 -8l-86 -94l-16 -4q-19 0 -75 18q-49 15 -63 15q-10 0 -25 -12t-27.5 -25.5t-15.5 -17.5h-9zM170.5 88.5q12.5 9.5 53.5 45.5l14 -1l15 -29q-58 -60 -95 -88t-59 -28
q-19 0 -28 10t-9 31q21 128 35 223t14 110q0 22 -9 31t-31 9h-38l8 47q79 0 174 7l10 -13q-23 -77 -45 -179t-33 -181l4 -4q7 0 19.5 9.5z" />
    <glyph glyph-name="Utilde" unicode="&#x7e;U" horiz-adv-x="643" 
d="M190 200q0 -70 31.5 -107t92.5 -37q71 0 112.5 39.5t50.5 117.5q6 42 18.5 161.5t16.5 160.5q1 8 1 21q0 20 -6 26.5t-22 6.5q-11 0 -22.5 -1t-15.5 -1l-1 4l13 50q12 0 44.5 -1.5t64.5 -1.5q28 0 61 3.5t43 5.5l-12 -53q-28 -4 -41.5 -9.5t-19 -15t-8.5 -29.5l-40 -328
q-13 -108 -82.5 -166t-184.5 -58q-95 0 -144.5 45.5t-49.5 131.5q0 21 3 43l41 327q2 18 2 24q0 17 -6.5 23.5t-23.5 6.5q-10 0 -19.5 -1t-12.5 -1l-2 4l14 50q12 -1 47 -2t73 -1q25 0 60.5 3.5t46.5 5.5l-11 -53q-34 -4 -47.5 -16t-18.5 -39l-43 -293q-3 -25 -3 -46z
M242 739l1 8l86 94l16 4q18 0 74 -18q8 -2 31 -8.5t33 -6.5t25 12t27.5 25.5t15.5 17.5h8l27 -27l-1 -8l-86 -94l-16 -4q-19 0 -75 18q-49 15 -63 15q-10 0 -25 -12t-27.5 -25.5t-15.5 -17.5h-9z" />
    <glyph glyph-name="utilde" unicode="&#x7e;u" horiz-adv-x="495" 
d="M477 104q-67 -66 -100.5 -91t-54.5 -25q-39 0 -39 32q0 15 40 195l-8 2q-84 -166 -169 -228q-46 0 -72 23.5t-26 64.5q0 33 38 159q12 41 22 79t10 52q0 18 -9.5 26.5t-30.5 8.5h-38l9 47q76 0 174 7l10 -13q-41 -119 -67.5 -210.5t-26.5 -115.5q0 -17 6.5 -24.5
t20.5 -7.5q26 0 75 76t103 201l16 93l11 5l78 -8l8 -10q-23 -78 -46.5 -178.5t-35.5 -176.5l4 -4q7 1 19 9.5t50 41.5l14 -1zM145 557l1 8l86 94l16 4q18 0 74 -18q8 -2 31 -8.5t33 -6.5t25 12t27.5 25.5t15.5 17.5h8l27 -27l-1 -8l-86 -94l-16 -4q-19 0 -75 18
q-49 15 -63 15q-10 0 -25 -12t-27.5 -25.5t-15.5 -17.5h-9z" />
    <glyph glyph-name="uni1EBC" unicode="&#x7e;E" horiz-adv-x="571" 
d="M215 62.5q13 -6.5 52 -6.5q74 0 107 8t49 31.5t30 79.5l59 6l4 -7q-5 -15 -20.5 -66.5t-27.5 -107.5l-8 -7q-31 1 -130 4t-163 3q-49 0 -92.5 -4t-55.5 -6l13 53q43 6 60.5 24t22.5 61l51 407q2 18 2 24q0 17 -6.5 23.5t-23.5 6.5q-9 0 -18.5 -1t-12.5 -1l-3 5l13 49
q15 -1 57.5 -2t93.5 -1q198 0 291 12l4 -7q-2 -6 -8.5 -28.5t-16.5 -62t-18 -80.5l-63 -5q2 6 5.5 26.5t3.5 35.5q0 22 -10.5 32t-36.5 13t-84 3q-31 0 -42.5 -2t-16 -8.5t-7.5 -25.5l-28 -182l95 -1q21 0 61.5 4t53.5 6l5 -6l-22 -68q-13 1 -51 2t-80 1q-34 0 -74 -7
q-7 -55 -15 -100q-12 -75 -12 -96q0 -25 13 -31.5zM191 722l1 7l85 86l15 4q19 0 75 -18q8 -2 31 -8.5t33 -6.5t25 10.5t27 22t15 15.5h8l26 -28l-1 -7l-85 -86l-16 -4q-14 0 -40.5 7.5t-32.5 9.5q-52 16 -65 16q-10 0 -25 -10.5t-27 -22t-15 -15.5h-8z" />
    <glyph glyph-name="uni1EBD" unicode="&#x7e;e" horiz-adv-x="373" 
d="M304 274q-55 -45 -185 -87q-2 -56 16 -89.5t51 -33.5q29 0 57.5 22t48.5 61l15 -2l23 -31q-28 -55 -77 -90.5t-97 -35.5q-58 0 -92 45.5t-34 123.5q0 77 34.5 149t89.5 117t114 45q43 0 67 -22.5t24 -62.5q0 -64 -55 -109zM165 350.5q-33 -46.5 -43 -113.5
q79 25 114.5 53t35.5 66q0 41 -37 41t-70 -46.5zM114 557l1 8l86 94l16 4q18 0 74 -18q8 -2 31 -8.5t33 -6.5t25 12t27.5 25.5t15.5 17.5h8l27 -27l-1 -8l-86 -94l-16 -4q-19 0 -75 18q-49 15 -63 15q-10 0 -25 -12t-27.5 -25.5t-15.5 -17.5h-9z" />
    <glyph glyph-name="uni1EF8" unicode="&#x7e;Y" horiz-adv-x="540" 
d="M248 442q30 -98 39 -121h6l121 197q20 33 20 51q0 12 -11 18t-37 8l-2 4l12 45l26 -2q15 -1 43.5 -2.5t44.5 -1.5q25 0 55 1.5t39 2.5l3 -6l-13 -46q-31 -7 -50.5 -19.5t-35.5 -34t-52 -75.5l-115 -176q-15 -22 -21 -46t-15 -83l-5 -37q-2 -22 -2 -29q0 -22 8.5 -30.5
t28.5 -8.5q16 0 29.5 1t18.5 2l2 -4l-15 -54q-15 1 -55.5 2.5t-80.5 1.5q-32 0 -73.5 -4.5t-54.5 -6.5l13 52q37 7 55 17.5t26 29.5t12 57l4 39q2 22 2 32q0 34 -16 78l-67 186q-16 45 -25.5 64t-26.5 30.5t-50 15.5l-3 5l13 47q12 -1 44.5 -2.5t67.5 -1.5q33 0 81.5 3.5
t63.5 5.5l3 -8l-10 -43q-44 -4 -59.5 -11.5t-15.5 -24.5q0 -20 30 -118zM183 722l1 7l85 86l15 4q19 0 75 -18q8 -2 31 -8.5t33 -6.5t25 10.5t27 22t15 15.5h8l26 -28l-1 -7l-85 -86l-16 -4q-14 0 -40.5 7.5t-32.5 9.5q-52 16 -65 16q-10 0 -25 -10.5t-27 -22t-15 -15.5h-8z
" />
    <glyph glyph-name="uni1EF9" unicode="&#x7e;y" horiz-adv-x="448" 
d="M402 468q15 -10 24 -32t9 -48q0 -103 -183 -371q-92 -134 -154.5 -193.5t-112.5 -59.5q-31 0 -54 11.5t-29 29.5q8 49 28 84h14q31 -36 66 -36q58 0 135 101q-19 241 -43 406q-4 22 -12 30t-26 8l-22 -2q-18 -2 -25 -2l3 46l160 22l11 -9q17 -132 17 -348v-40h11
q60 98 92 170.5t32 109.5q0 22 -13 42.5t-36 34.5l6 23zM120 557l1 8l86 94l16 4q18 0 74 -18q8 -2 31 -8.5t33 -6.5t25 12t27.5 25.5t15.5 17.5h8l27 -27l-1 -8l-86 -94l-16 -4q-19 0 -75 18q-49 15 -63 15q-10 0 -25 -12t-27.5 -25.5t-15.5 -17.5h-9z" />
    <glyph glyph-name="fi" unicode="fi" horiz-adv-x="543" 
d="M439.5 88.5q12.5 9.5 54.5 45.5l14 -1l15 -29q-50 -51 -83.5 -78.5t-57.5 -34.5q-13 -3 -21 -2q-30 3 -30 40q8 47 29 179.5t21 153.5q0 22 -9 31t-31 9h-136l-9 -5l-44 -400q-12 -114 -54.5 -176.5t-123.5 -62.5q-35 0 -63 14t-36 35q5 19 18 48.5t23 45.5h15
q0 -39 19 -60.5t52 -21.5q27 0 46.5 22t23.5 57q3 26 4.5 55.5t2.5 42.5l1 26l29 369l-8 6l-70 3l-3 5l5 36l81 12l6 52q9 78 46.5 131.5t90.5 79.5t108 26q33 0 69 -7t58 -18l4 -11l-36 -77l-19 -3q-67 45 -120 45q-51 0 -75.5 -31.5t-33.5 -100.5l-10 -88h103q51 0 114 2
t66 3l10 -13q-4 -14 -18 -67t-31.5 -133t-28.5 -160l3 -4q7 0 19.5 9.5z" />
    <glyph glyph-name="fl" unicode="fl" horiz-adv-x="529" 
d="M496 133l14 -29q-57 -60 -94 -88t-60 -28q-38 0 -38 37q15 91 54 342t39 275v2q-60 27 -107 27q-38 0 -60 -26.5t-28 -81.5l-14 -112l136 1l4 -4l-8 -47l-129 1l-9 -5l-50 -458q-9 -80 -57.5 -130.5t-114.5 -50.5q-35 0 -63 14t-36 35q5 19 18 48.5t23 45.5h15
q0 -39 19 -60.5t52 -21.5q27 0 46.5 22t23.5 57q5 46 7 93q0 9 1 26.5t2 29.5l27 344l-8 6l-70 3l-3 5l5 36l81 12l8 74q7 59 40 108.5t82.5 78t104.5 28.5q47 0 89 -11l76 4l10 -14q-7 -31 -29.5 -140.5t-49 -251t-40.5 -246.5l3 -4q7 0 20.5 10t53.5 45z" />
    <glyph glyph-name="f_j" unicode="fj" horiz-adv-x="527" 
d="M497 443q-5 -19 -20.5 -86t-34.5 -161t-30 -176q-13 -96 -59 -159.5t-125 -102.5l-20 23l3 10q39 29 63 59t38 74t23 113q8 46 29 174.5t21 149.5q0 22 -10 31.5t-32 9.5h-138l-9 -6l-50 -457q-9 -80 -57.5 -130.5t-114.5 -50.5q-35 0 -63 14t-36 35q5 19 18 48.5
t23 45.5h15q0 -39 19 -60.5t52 -21.5q27 0 46.5 22t23.5 57q5 46 7 93q0 9 1 26.5t2 29.5l27 344l-8 6l-70 3l-3 5l5 36l81 12l8 74q8 59 43 108.5t88 78t112 28.5q31 0 64.5 -6.5t54.5 -16.5l4 -11l-36 -77l-19 -3q-65 43 -113 43q-46 0 -71.5 -26.5t-32.5 -81.5l-14 -112
h190q35 1 60 2.5t33 2.5z" />
    <glyph glyph-name="T_h.liga" unicode="Th" horiz-adv-x="924" 
d="M893 104q-60 -61 -96.5 -88t-57.5 -27q-38 0 -38 35q0 19 9 52.5t26 89.5q18 58 28 96.5t10 59.5q0 17 -8.5 28t-22.5 11q-28 0 -76 -73t-96 -189l-10 -79q-1 -8 -29.5 -18.5t-49.5 -10.5l-10 12l14 92q60 391 71 465q-30 14 -72.5 19.5t-118.5 6.5q-17 -93 -44.5 -277
t-27.5 -210q0 -28 12 -38t40 -10q19 0 44 3l2 -4l-15 -54q-88 4 -148 4q-65 0 -143 -5l14 50q47 5 66.5 13.5t28.5 30t16 74.5l51 423q-72 -3 -99 -10.5t-39.5 -30t-27.5 -86.5l-61 -5q26 117 36 187l11 8l84 -11h353l49 4q8 61 8 74l12 14l83 5l10 -14
q-24 -105 -51.5 -243.5t-45.5 -255.5l6 -2q47 95 95 159t91 89q40 0 66.5 -28.5t26.5 -70.5q0 -25 -11.5 -64t-33.5 -104q-27 -75 -37 -118l3 -4q7 0 19.5 9.5t54.5 46.5l14 -2z" />
    <glyph glyph-name="gamma_gamma" unicode="&#x3b3;&#x3b3;" horiz-adv-x="810" 
d="M562 9q-9 -97 -28 -224l-58 -22l-17 3l-39 36q13 68 28.5 108t60.5 119q9 75 9 123q0 28 -3 58q-5 75 -17 106t-40 31q-12 0 -29 -6q-118 -169 -220 -333q-7 -93 -27 -223l-58 -22l-17 3l-39 36q12 66 28 106.5t61 120.5q9 75 9 123q0 28 -3 58q-5 74 -17 105.5t-40 31.5
q-24 0 -72 -25l-7 9q14 88 70 131q55 0 83 -58t34 -184q1 -22 1 -68h9q47 91 146 266l25 44l29 7q47 0 76 -24t44.5 -78t21.5 -147q2 -44 2 -68h8q38 74 113 207l58 105h16q33 -21 53 -73q-142 -201 -254 -382z" />
    <glyph glyph-name="lambda_lambda" unicode="&#x3bb;&#x3bb;" horiz-adv-x="784" 
d="M778 112q-10 -38 -30.5 -69t-49.5 -50q-28 0 -44 9.5t-25 32t-14 64.5l-27 229h-8q-39 -84 -77.5 -162t-49.5 -100l-33 -66l-62 -10q-35 2 -53.5 11t-27.5 31.5t-14 66.5l-27 229h-8q-57 -124 -134 -277l-29 -58l-11 -3l-70 29l-3 9q162 284 240 423l-11 91
q-5 45 -17.5 65.5t-35.5 20.5q-28 0 -87 -34l-9 11q16 86 82 133q52 0 83.5 -44.5t41.5 -130.5l46 -401q4 -32 13 -47t27 -15q11 0 22 4q140 245 197 349l-11 89q-6 45 -18.5 65.5t-35.5 20.5q-27 0 -87 -34l-8 11q17 87 82 133q52 0 83.5 -44.5t41.5 -130.5l46 -401
q3 -32 12.5 -47t27.5 -15q23 0 65 24z" />
    <glyph glyph-name="Gtilde" unicode="&#x7e;G" horiz-adv-x="636" 
d="M544 312q27 2 35 3l2 -28q-32 -21 -42 -86q-5 -33 -10 -73.5t-5 -53.5l1 -32l-8 -10q0 -1 -31.5 -12.5t-79.5 -21.5t-105 -10q-79 0 -138 32.5t-91 92.5t-32 141q0 115 47.5 205t132 140.5t191.5 50.5q36 0 76.5 -5t69.5 -10.5t37 -7.5l3 -9q-2 -6 -10 -29t-18.5 -61
t-18.5 -81l-65 -5q1 7 5 27.5t4 32.5q0 77 -118 77q-66 0 -116 -36.5t-77.5 -104t-27.5 -159.5q0 -106 44 -166.5t122 -60.5q31 0 57.5 7.5t42 15.5t19.5 11l13 113q1 8 1 20q0 19 -9 25.5t-34 6.5h-60l-2 6l16 56q1 0 39.5 -1.5t86.5 -1.5q26 0 53 2zM234 722l1 7l85 86
l15 4q19 0 75 -18q8 -2 31 -8.5t33 -6.5t25 10.5t27 22t15 15.5h8l26 -28l-1 -7l-85 -86l-16 -4q-14 0 -40.5 7.5t-32.5 9.5q-52 16 -65 16q-10 0 -25 -10.5t-27 -22t-15 -15.5h-8z" />
    <glyph glyph-name="gtilde" unicode="&#x7e;g" horiz-adv-x="455" 
d="M3.5 -222.5q-39.5 18.5 -62 48.5t-20.5 63l3 7q50 38 181 113l1 8q-27 15 -41.5 49.5t-14.5 81.5q0 74 33.5 147.5t86 120.5t105.5 47l96 -17l10 24l8 3l51 -14l10 -13q-63 -119 -72 -199q-3 -22 -5.5 -65.5t-3.5 -62.5q-1 -20 -3.5 -58t-4.5 -54q-6 -56 -50.5 -114
t-106 -96t-116.5 -38q-45 0 -84.5 18.5zM240.5 171q44.5 73 99.5 197q-60 30 -96 30q-25 0 -49 -29t-39 -75.5t-15 -94.5q0 -41 10 -71t24 -30q21 0 65.5 73zM230 -127q42 43 51 118l25 201l-9 2q-49 -88 -78 -126.5t-63 -62.5l-56 -38q-45 -31 -64 -45t-19 -22
q0 -16 16 -32.5t41.5 -27t51.5 -10.5q62 0 104 43zM134 585l1 8l86 94l16 4q18 0 74 -18q8 -2 31 -8.5t33 -6.5t25 12t27.5 25.5t15.5 17.5h8l27 -27l-1 -8l-86 -94l-16 -4q-19 0 -75 18q-49 15 -63 15q-10 0 -25 -12t-27.5 -25.5t-15.5 -17.5h-9z" />
    <glyph glyph-name=".notdef" horiz-adv-x="641" 
d="M336 228l321 -321l-16 -16l-321 321l-321 -321l-16 16l321 321l-321 321l16 16l321 -321l321 321l16 -16z" />
    <glyph glyph-name="uni0000" 
 />
    <glyph glyph-name="uni0000" 
 />
    <glyph glyph-name="nonmarkingreturn" unicode="&#xd;" horiz-adv-x="161" 
 />
    <glyph glyph-name="space" unicode=" " horiz-adv-x="161" 
 />
    <glyph glyph-name="exclam" unicode="!" horiz-adv-x="274" 
d="M148 679l105 20l11 -14l-112 -466l-45 -8l-11 10l40 445zM46 4.5q-14 15.5 -14 40.5q0 33 22 56t56 23q26 0 41 -16t15 -41q0 -33 -22 -55.5t-57 -22.5q-27 0 -41 15.5z" />
    <glyph glyph-name="quotedbl" unicode="&#x22;" horiz-adv-x="305" 
d="M129 428l-37 -16l-12 3q16 111 21 222l83 14l6 -9q-28 -109 -61 -214zM258 428l-37 -16l-12 3q16 111 21 222l83 14l6 -9q-28 -109 -61 -214z" />
    <glyph glyph-name="numbersign" unicode="#" horiz-adv-x="493" 
d="M82 419l100 -1l49 151l55 6l8 -6l-52 -152h48l47 -1l50 153l55 6l8 -6l-52 -152h99l3 -10l-22 -50l-100 1l-11 -35l-23 -69l98 1l4 -10l-22 -50h-98l-49 -152l-53 -9l-8 7l51 155l-61 1l-36 -1l-49 -153l-54 -9l-7 7l50 155l-100 -1l-3 11l21 50l101 -1l18 55l16 48
l-99 -1l-3 11zM188 255h47l50 -1l19 56l15 48l-60 1l-37 -1l-12 -35z" />
    <glyph glyph-name="dollar" unicode="$" horiz-adv-x="441" 
d="M326 253.5q25 -15.5 43.5 -40t18.5 -56.5q0 -69 -54.5 -114.5t-144.5 -50.5l-32 -143l-45 -5l-4 7l31 141q-29 2 -54.5 8t-40.5 11.5t-19 7.5l-4 10q3 11 13 51t16 82l56 5q-4 -38 -4 -48q0 -33 11.5 -48.5t38.5 -20.5l35 163q-56 29 -86.5 58t-30.5 73q0 65 50.5 110.5
t131.5 52.5l32 145l46 6l4 -9l-31 -142q29 -1 54.5 -5.5t41 -8.5t19.5 -5l4 -8q-4 -11 -15 -50t-20 -84l-50 -3l-6 4l4 20t3 26q0 24 -11.5 36t-37.5 15l-33 -151q45 -24 70 -39.5zM179.5 347.5q10.5 -13.5 31.5 -28.5l27 125q-31 -6 -50 -24t-19 -42q0 -17 10.5 -30.5z
M261.5 73.5q22.5 19.5 22.5 49.5q0 19 -13 34.5t-38 30.5l-31 -139q37 5 59.5 24.5z" />
    <glyph glyph-name="percent" unicode="%" horiz-adv-x="666" 
d="M478.5 461.5q-89.5 -136.5 -145.5 -224.5q-71 -113 -130.5 -206.5t-79.5 -124.5l-49 22l-5 13q21 32 90.5 137.5t124.5 192.5l258 407l49 -21l6 -16q-29 -43 -118.5 -179.5zM88.5 356q-33.5 37 -33.5 98q0 57 21.5 102t59.5 70t86 25q56 0 88 -38t32 -94q0 -54 -20 -100
t-57.5 -73t-87.5 -27q-55 0 -88.5 37zM259 418q27 20 27 70q0 36 -22.5 59t-62.5 23q-42 0 -66.5 -25t-24.5 -66t24 -61t59 -20q39 0 66 20zM398 25q-33 37 -33 98q0 57 21 102t59 70t86 25q57 0 88.5 -37.5t31.5 -94.5q0 -54 -20 -100t-57.5 -73t-87.5 -27q-55 0 -88 37z
M567.5 87q26.5 20 26.5 70q0 37 -21.5 59.5t-62.5 22.5q-42 0 -66.5 -25t-24.5 -66t24 -61t60 -20q38 0 64.5 20z" />
    <glyph glyph-name="ampersand" unicode="&#x26;" horiz-adv-x="569" 
d="M217.5 392q33.5 -31 87.5 -31l256 18q57 3 95 38l20 -13l-27 -54q-13 -25 -29.5 -34.5t-46.5 -9.5h-85l-5 -7q10 -14 15.5 -33.5t5.5 -39.5q0 -66 -36 -120.5t-97.5 -86t-135.5 -31.5q-56 0 -100.5 19.5t-69.5 54t-25 78.5q0 60 41.5 107.5t115.5 71.5q-48 20 -74 56.5
t-26 84.5q0 53 30 96.5t82.5 69t116.5 25.5q34 0 75.5 -6.5t79.5 -17.5l4 -7q-13 -33 -24.5 -74t-16.5 -75l-60 -5q1 6 4.5 23t3.5 28q0 32 -21.5 48.5t-62.5 16.5q-58 0 -91 -28.5t-33 -79.5t33.5 -82zM413 280q-17 26 -43 26h-115q-67 -32 -93.5 -62t-26.5 -74
q0 -50 34.5 -81.5t89.5 -31.5q75 0 123 43.5t48 112.5q0 41 -17 67z" />
    <glyph glyph-name="quotesingle" unicode="'" horiz-adv-x="176" 
d="M129 428l-37 -16l-12 3q16 111 21 222l83 14l6 -9q-28 -109 -61 -214z" />
    <glyph glyph-name="parenleft" unicode="(" horiz-adv-x="298" 
d="M148.5 514.5q47.5 69.5 100.5 105t53 29.5h8l17 -36l-2 -5q0 5 -36.5 -24t-69.5 -86.5t-44 -146.5l-21 -173q-4 -31 -4 -64q0 -74 20.5 -123t46 -76t25.5 -22v-6l-34 -33h-6q0 -5 -38.5 24t-69.5 85t-31 143q0 30 4 57l21 173q13 109 60.5 178.5z" />
    <glyph glyph-name="parenright" unicode=")" horiz-adv-x="302" 
d="M155 -11.5q-48 -69.5 -101 -105t-53 -29.5h-6l-17 36l1 5q0 -5 36.5 24t70 86.5t44.5 146.5l21 173q4 29 4 62q0 75 -20.5 124.5t-46.5 76.5t-26 22l1 6l33 33h6q0 5 38.5 -24.5t69.5 -85.5t31 -144q0 -25 -3 -55l-22 -173q-13 -109 -61 -178.5z" />
    <glyph glyph-name="asterisk" unicode="*" horiz-adv-x="418" 
d="M291.5 687.5q-8.5 -34.5 -20.5 -70.5l-37 -5l-6 4q-1 34 -3 67.5t-3 43.5q7 2 29.5 7.5t43.5 5.5l7 -8q-2 -10 -10.5 -44.5zM154 646q31 -18 61 -41l-6 -37l-7 -5q-32 11 -65 19t-42 10q0 7 2 30t8 43l9 4q9 -5 40 -23zM373.5 570q-35.5 -3 -73.5 -2l-16 32l2 9
q32 10 63.5 22.5t40.5 16.5q4 -6 16 -26t18 -39l-5 -9q-10 -1 -45.5 -4zM287 455.5q-14 33.5 -25 69.5l26 25l9 1q20 -28 41.5 -54t27.5 -33q-4 -6 -19 -23t-32 -30l-9 2q-5 9 -19 42.5zM151.5 502q27.5 24 58.5 46l32 -18l3 -7q-20 -27 -38 -56t-23 -37q-7 2 -28 11t-38 21
l-1 9q7 7 34.5 31z" />
    <glyph glyph-name="plus" unicode="+" horiz-adv-x="487" 
d="M304 417q-9 -56 -18 -120q62 1 115.5 3t72.5 3l5 -11l-18 -68l-184 -1l-21 -183l-68 -12l-8 6l24 189l-181 -1l-5 10l20 66l175 -1l24 193l69 9l10 -7q-3 -19 -12 -75z" />
    <glyph glyph-name="comma" unicode="," horiz-adv-x="229" 
d="M96 117q25 0 41 -22t16 -61q0 -52 -42.5 -100.5t-102.5 -83.5l-26 21v13q34 24 55 56t21 62q0 20 -9 39t-22 32l2 14q36 30 67 30z" />
    <glyph glyph-name="hyphen" unicode="-" horiz-adv-x="312" 
d="M272 229l-233 -26l-6 10l15 63l164 19q31 4 47.5 6.5t20.5 3.5l6 -11z" />
    <glyph glyph-name="period" unicode="." horiz-adv-x="289" 
d="M70 4.5q-14 15.5 -14 40.5q0 33 22 56t56 23q27 0 41.5 -15.5t14.5 -41.5q0 -33 -22 -55.5t-57 -22.5q-27 0 -41 15.5z" />
    <glyph glyph-name="slash" unicode="/" horiz-adv-x="317" 
d="M280 484.5q-51 -131.5 -103 -269.5l-121 -325h-63l-7 9q12 30 52.5 131t75.5 196l166 449h61l8 -12q-18 -47 -69 -178.5z" />
    <glyph glyph-name="zero" unicode="0" horiz-adv-x="498" 
d="M77.5 44.5q-47.5 56.5 -47.5 152.5q0 88 35.5 159t96.5 111t135 40q82 0 130 -56.5t48 -150.5q0 -88 -35 -159.5t-96 -112t-136 -40.5q-83 0 -130.5 56.5zM358 134.5q47 47.5 47 124.5q0 65 -38 104.5t-102 39.5q-75 0 -121 -48t-46 -126q0 -64 37.5 -103t100.5 -39
q75 0 122 47.5z" />
    <glyph glyph-name="one" unicode="1" horiz-adv-x="345" 
d="M206 98q0 -25 8.5 -35t30.5 -10q17 0 31 1t18 2l1 -5l-16 -55q-14 1 -52.5 2.5t-79.5 1.5q-34 0 -78.5 -5t-58.5 -7l13 53q36 3 55 12.5t29 31t15 61.5l27 223q2 14 2 20q0 22 -11 29.5t-34 7.5q-12 0 -29 -2.5t-22 -3.5l-3 5l11 48q29 3 112 15q70 11 92 15t24 4l6 -22
q-20 -16 -30 -32.5t-17 -49.5q-44 -251 -44 -305z" />
    <glyph glyph-name="two" unicode="2" horiz-adv-x="461" 
d="M79 99q95 98 138.5 162.5t43.5 106.5q0 26 -15 41t-43 15q-31 0 -64 -22.5t-59 -61.5h-11l-7 57q36 49 88 79.5t100 30.5q58 0 92.5 -30t34.5 -80q0 -34 -18 -69t-66.5 -91t-146.5 -155l4 -8h119q34 0 53.5 7.5t32.5 26.5t26 57l56 6q-5 -16 -21.5 -69t-26.5 -101l-14 -9
q-37 1 -150 4.5t-167 3.5l-58 -11l-5 25z" />
    <glyph glyph-name="three" unicode="3" horiz-adv-x="407" 
d="M74 -19q46 0 85 16.5t62 46t23 64.5q0 41 -36 61.5t-110 20.5l-6 7v46l64 16q41 19 67.5 51t26.5 64q0 25 -17 40.5t-44 15.5q-25 0 -56 -13.5t-57 -36.5h-11l-8 54q3 2 32.5 20.5t72 35.5t73.5 17q55 0 88 -27.5t33 -73.5q0 -44 -34 -85t-90 -68l-1 -6
q58 -15 87.5 -44.5t29.5 -70.5q0 -53 -47 -108t-118.5 -91t-138.5 -36q-31 0 -45 15t-14 50q0 13 1 20l10 10q34 -11 78 -11z" />
    <glyph glyph-name="four" unicode="4" horiz-adv-x="440" 
d="M-10 107q4 19 5 25l307 374l5 1l53 -10l-42 -348h84l6 -9l-17 -67l-82 3q-6 -58 -9 -101.5t-4 -57.5l-7 -8l-91 -12l-5 10q3 16 10.5 64.5t15.5 106.5q-148 4 -233 4zM228 149l26 205h-10l-163 -205h147z" />
    <glyph glyph-name="five" unicode="5" horiz-adv-x="412" 
d="M299.5 25q-49.5 -57 -123 -92.5t-139.5 -35.5q-31 0 -45 14.5t-14 51.5q0 12 1 19l10 10q34 -11 79 -11q49 0 89.5 16t64 45t23.5 66q0 41 -40.5 65t-138.5 40l-7 11q16 77 30.5 154.5t18.5 100.5l9 8l185 8q28 1 41.5 9t23.5 30l43 4l-40 -130l-10 -9q-16 1 -75 4.5
t-126 3.5l-20 -113q102 -20 156 -55.5t54 -95.5q0 -61 -49.5 -118z" />
    <glyph glyph-name="six" unicode="6" horiz-adv-x="442" 
d="M366 526.5q-56 -30.5 -114 -85t-92 -132.5l3 -4q3 2 41 23.5t60 22.5q46 0 79 -20.5t49.5 -54.5t16.5 -73q0 -59 -29 -108t-80.5 -78t-115.5 -29q-73 0 -114.5 50.5t-41.5 130.5q0 144 84 239.5t189 147t105 42.5l7 -5l9 -40q0 4 -56 -26.5zM135 247q-11 -44 -11 -75
q0 -57 22.5 -89.5t63.5 -32.5q47 0 75.5 34.5t28.5 91.5q0 44 -24 74t-63 30q-42 0 -92 -33z" />
    <glyph glyph-name="seven" unicode="7" horiz-adv-x="408" 
d="M57 -81l-7 23l285 470l-149 -7q-33 -2 -49.5 -10t-26.5 -26t-21 -55l-48 -6q4 18 18 76.5t23 109.5l7 5q10 -1 44.5 -2.5t71.5 -1.5h206l25 -36q-122 -207 -238 -424l-22 -41l-39 -97h-11z" />
    <glyph glyph-name="eight" unicode="8" horiz-adv-x="464" 
d="M74.5 218.5q41.5 41.5 94.5 65.5q-39 26 -61.5 57t-22.5 75q0 47 27.5 89t74.5 67.5t102 25.5q60 0 101.5 -32.5t41.5 -89.5q0 -56 -33 -94.5t-77 -60.5q42 -26 66.5 -58.5t24.5 -77.5q0 -53 -30.5 -98t-82.5 -72t-112 -27q-67 0 -111 33.5t-44 91.5q0 64 41.5 105.5z
M202.5 396q24.5 -22 76.5 -52q61 41 61 111q0 40 -20 61.5t-53 21.5q-38 0 -63.5 -25.5t-25.5 -60.5q0 -34 24.5 -56zM289 74q32 30 32 73q0 26 -15 45.5t-35.5 32.5t-61.5 36q-86 -43 -86 -121q0 -40 25.5 -68t66.5 -28q42 0 74 30z" />
    <glyph glyph-name="nine" unicode="9" horiz-adv-x="442" 
d="M81 -31.5q56 30.5 114.5 84.5t91.5 132l-3 5q-2 -1 -39.5 -23t-60.5 -23q-69 0 -107.5 43.5t-38.5 104.5q0 59 29.5 108t81 78t115.5 29q73 0 114.5 -50.5t41.5 -130.5q0 -144 -84 -239.5t-189 -147t-105 -42.5l-7 5l-10 40q0 -4 56 26.5zM313 248q10 41 10 74
q0 57 -22 90t-63 33q-48 0 -76 -34.5t-28 -92.5q0 -44 23.5 -73.5t63.5 -29.5q39 0 92 33z" />
    <glyph glyph-name="colon" unicode=":" horiz-adv-x="229" 
d="M39 4.5q-14 15.5 -14 40.5q0 33 22 56t56 23q27 0 41.5 -15.5t14.5 -41.5q0 -33 -22 -55.5t-57 -22.5q-27 0 -41 15.5zM73 281.5q-14 15.5 -14 40.5q0 33 22 56t56 23q27 0 41.5 -15.5t14.5 -41.5q0 -33 -22 -55.5t-57 -22.5q-27 0 -41 15.5z" />
    <glyph glyph-name="semicolon" unicode=";" horiz-adv-x="229" 
d="M93 117q25 0 41 -22t16 -61q0 -52 -42.5 -100.5t-102.5 -83.5l-26 21v13q34 24 55 56t21 62q0 20 -9 39t-22 32l2 14q36 30 67 30zM101 281.5q-14 15.5 -14 40.5q0 33 22 56t56 23q27 0 41.5 -15.5t14.5 -41.5q0 -33 -22 -55.5t-57 -22.5q-27 0 -41 15.5z" />
    <glyph glyph-name="less" unicode="&#x3c;" horiz-adv-x="470" 
d="M40 308l201 84q67 29 120.5 50.5t70.5 28.5l10 -6l5 -61q-18 -7 -78 -29t-111 -43l-140 -56l-1 -6l138 -66l157 -76l1 -13l-41 -51q-15 8 -59.5 31t-99.5 50l-176 83l-7 12z" />
    <glyph glyph-name="equal" unicode="=" horiz-adv-x="487" 
d="M472 308l-219 -1l-219 -1l-6 10l21 66l227 -1q48 0 117 2.5t91 3.5l5 -11zM451 143l-218 -1l-220 -1l-5 10l20 66l227 -1q48 0 117.5 2.5t91.5 3.5l4 -11z" />
    <glyph glyph-name="greater" unicode="&#x3e;" horiz-adv-x="470" 
d="M440 227l-199 -84q-67 -29 -120.5 -50.5t-71.5 -28.5l-10 7l-6 61q18 6 78.5 28.5t111.5 43.5l140 55l1 7l-139 66l-157 76l-1 13l42 50q15 -8 64 -33.5t95 -47.5q54 -26 105.5 -50t70.5 -33l6 -11z" />
    <glyph glyph-name="question" unicode="?" horiz-adv-x="351" 
d="M95 347l118 70q64 39 64 91q0 49 -45.5 75.5t-127.5 31.5l-3 12l42 66l15 5q60 -2 108.5 -22.5t76 -55.5t27.5 -77q0 -45 -18.5 -77.5t-47 -55t-80.5 -54.5q-26 -16 -39 -25l-3 -9l6 -90l-6 -9l-74 -17l-9 4l-8 123zM72 4.5q-14 15.5 -14 40.5q0 34 21.5 56.5t56.5 22.5
q26 0 40.5 -15.5t14.5 -41.5q0 -33 -21.5 -55.5t-56.5 -22.5q-27 0 -41 15.5z" />
    <glyph glyph-name="at" unicode="@" horiz-adv-x="815" 
d="M446 -3q-10 9 -10 25q0 15 39 190l-7 1q-47 -87 -89.5 -140.5t-86.5 -84.5q-45 0 -69.5 37.5t-24.5 102.5q0 81 35 159t90 126.5t109 48.5l94 -16l8 24l8 3l52 -15l8 -14q-4 -16 -19 -73.5t-33 -141t-29 -160.5l4 -5q99 0 152.5 60.5t53.5 161.5q0 85 -36.5 146.5
t-103.5 94t-157 32.5q-99 0 -175 -48t-118 -129t-42 -177q0 -103 39.5 -183.5t121.5 -129.5t203 -55v-11l-28 -41q-131 4 -224.5 57.5t-141.5 142.5t-48 199q0 114 56 216t156.5 163.5t226.5 61.5q102 0 181 -40.5t122.5 -111.5t43.5 -160t-39 -163t-114 -118t-179 -44
q-19 0 -29 9zM362.5 121.5q30.5 37.5 66 102.5t67.5 143q-16 10 -42.5 20.5t-52.5 10.5q-27 0 -52.5 -31t-42 -81.5t-16.5 -105.5q0 -40 7.5 -68t18.5 -28q16 0 46.5 37.5z" />
    <glyph glyph-name="A" unicode="A" horiz-adv-x="577" 
d="M508 67.5q16 -14.5 54 -19.5l2 -4l-12 -47q-12 0 -44 1.5t-64 1.5q-48 0 -93.5 -3.5t-58.5 -5.5l-3 7l9 46q37 3 55 7.5t25 13.5t7 26q0 9 -1 18t-2 16l-15 98q-19 1 -94 1q-34 0 -101 -7l-42 -96q-12 -25 -12 -42t11 -24.5t36 -7.5h50l1 -4l-11 -49q-12 1 -54.5 3.5
t-81.5 2.5q-37 0 -68.5 -1t-41.5 -2l14 54q26 3 44 18.5t36 54.5l240 509l98 17l10 -2q0 -7 29.5 -203.5t54.5 -325.5q7 -37 23 -51.5zM277 277q28 0 83 5l-37 249h-10l-113 -254h77z" />
    <glyph glyph-name="B" unicode="B" horiz-adv-x="586" 
d="M70.5 -4.5q-39.5 -4.5 -51.5 -6.5l12 52q45 9 62.5 26t22.5 59l50 410q2 18 2 22q0 17 -6.5 24t-22.5 7q-10 0 -19.5 -1t-12.5 -1l-4 5l14 49q13 0 48 -1.5t68 -1.5q22 0 60 2t50 3q89 0 142.5 -35.5t53.5 -98.5q0 -56 -33.5 -100t-95.5 -72q61 -16 94 -52t33 -86
q0 -58 -31.5 -105.5t-87.5 -75.5t-126 -28q-16 0 -62 4q-60 6 -88 6q-32 0 -71.5 -4.5zM286.5 352q35.5 -4 44.5 -4q0 -3 29 12t52 46t23 81q0 51 -34.5 75.5t-106.5 24.5q-10 0 -14 -4t-7 -17q-10 -57 -34 -209q12 -1 47.5 -5zM204 118q-1 -4 -1 -12q0 -29 22.5 -41.5
t73.5 -12.5q59 0 94.5 36t35.5 95q0 44 -26.5 72.5t-77.5 38.5l-95 -2z" />
    <glyph glyph-name="C" unicode="C" horiz-adv-x="598" 
d="M163 20.5q-59 32.5 -91 92.5t-32 141q0 115 47.5 205t132 140.5t191.5 50.5q36 0 76.5 -5t69.5 -10.5t37 -7.5l3 -9l-10 -30t-18.5 -62.5t-18.5 -81.5l-65 -5q1 7 5 28.5t4 33.5q0 78 -118 78q-66 0 -116 -36.5t-77.5 -104t-27.5 -159.5q0 -106 44 -166.5t122 -60.5
q60 0 100.5 36.5t65.5 115.5l65 5q-5 -16 -20 -70t-24 -101l-8 -10q0 -1 -29 -11.5t-73.5 -19.5t-96.5 -9q-79 0 -138 32.5z" />
    <glyph glyph-name="D" unicode="D" horiz-adv-x="672" 
d="M219 -5q-50 5 -82 5q-31 0 -68.5 -4.5t-49.5 -6.5l13 53q44 8 61.5 25.5t22.5 59.5l50 407l2 24q0 17 -6.5 23.5t-21.5 6.5q-10 0 -20 -1t-13 -1l-3 6l13 49q12 -1 44.5 -2t65.5 -1q27 0 75 2t64 3q86 0 151.5 -32.5t101.5 -91.5t36 -138q0 -107 -49.5 -197.5t-134 -143
t-186.5 -52.5q-16 2 -66 7zM282.5 577.5q-6.5 -4.5 -8.5 -18.5l-10 -60q-5 -33 -31.5 -196.5t-26.5 -187.5q0 -38 20.5 -51t76.5 -13q72 0 125.5 39t83 110t29.5 164q0 107 -59.5 162.5t-174.5 55.5q-18 0 -24.5 -4.5z" />
    <glyph glyph-name="E" unicode="E" horiz-adv-x="571" 
d="M215 62.5q13 -6.5 52 -6.5q74 0 107 8t49 31.5t30 79.5l59 6l4 -7q-5 -15 -20.5 -66.5t-27.5 -107.5l-8 -7q-31 1 -130 4t-163 3q-49 0 -92.5 -4t-55.5 -6l13 53q43 6 60.5 24t22.5 61l51 407q2 18 2 24q0 17 -6.5 23.5t-23.5 6.5q-9 0 -18.5 -1t-12.5 -1l-3 5l13 49
q15 -1 57.5 -2t93.5 -1q198 0 291 12l4 -7q-2 -6 -8.5 -28.5t-16.5 -62t-18 -80.5l-63 -5q2 6 5.5 26.5t3.5 35.5q0 22 -10.5 32t-36.5 13t-84 3q-31 0 -42.5 -2t-16 -8.5t-7.5 -25.5l-28 -182l95 -1q21 0 61.5 4t53.5 6l5 -6l-22 -68q-13 1 -51 2t-80 1q-34 0 -74 -7
q-7 -55 -15 -100q-12 -75 -12 -96q0 -25 13 -31.5z" />
    <glyph glyph-name="F" unicode="F" horiz-adv-x="500" 
d="M203 94q0 -20 8.5 -29.5t27.5 -9.5q20 0 39.5 1.5t26.5 2.5l4 -7l-16 -56q-16 1 -58.5 2.5t-86.5 1.5q-36 0 -76.5 -5t-52.5 -7l12 53q44 8 61 26t23 61l51 407q2 18 2 24q0 17 -6.5 23.5t-23.5 6.5q-9 0 -18.5 -1t-12.5 -1l-3 5l13 49q15 -1 57.5 -2t93.5 -1
q183 0 271 12l4 -7q-5 -14 -18.5 -64.5t-24.5 -108.5l-62 -5q2 7 5.5 28t3.5 37q0 21 -9.5 31t-32 13t-70.5 3q-31 0 -42.5 -2t-16 -8.5t-7.5 -25.5l-31 -199l96 -1q18 0 54 4t48 6l3 -6l-20 -69q-12 1 -46.5 2t-71.5 1q-23 0 -74 -6l-22 -152q-2 -10 -2 -27z" />
    <glyph glyph-name="G" unicode="G" horiz-adv-x="636" 
d="M544 312q27 2 35 3l2 -28q-32 -21 -42 -86q-5 -33 -10 -73.5t-5 -53.5l1 -32l-8 -10q0 -1 -31.5 -12.5t-79.5 -21.5t-105 -10q-79 0 -138 32.5t-91 92.5t-32 141q0 115 47.5 205t132 140.5t191.5 50.5q36 0 76.5 -5t69.5 -10.5t37 -7.5l3 -9q-2 -6 -10 -29t-18.5 -61
t-18.5 -81l-65 -5q1 7 5 27.5t4 32.5q0 77 -118 77q-66 0 -116 -36.5t-77.5 -104t-27.5 -159.5q0 -106 44 -166.5t122 -60.5q31 0 57.5 7.5t42 15.5t19.5 11l13 113q1 8 1 20q0 19 -9 25.5t-34 6.5h-60l-2 6l16 56q1 0 39.5 -1.5t86.5 -1.5q26 0 53 2z" />
    <glyph glyph-name="H" unicode="H" horiz-adv-x="722" 
d="M721 647l-10 -52q-36 -5 -50 -16.5t-19 -39.5q-65 -398 -65 -445q0 -24 7.5 -33.5t27.5 -9.5q25 0 41 3l1 -5l-14 -52q-90 3 -119 3h-35l-54 -1q-34 -2 -39 -1l14 52q30 1 46 9t24.5 29.5t14.5 63.5l18 143l-130 1q-26 0 -152 -10l-16 -116q-2 -20 -4 -28q-1 -9 -3 -26
t-2 -27q0 -9 1 -12q1 -15 8.5 -20.5t24.5 -5.5q10 0 40 3q2 -2 2 -5l-15 -52q-15 1 -42 2t-52 1q-40 0 -90 -3.5t-61 -7.5l12 52q34 7 51 17.5t25 31.5t12 63l47 382q2 18 2 23q0 18 -7 24.5t-24 6.5l-31 -2l-3 5l13 49l31 -1l79 -2q28 0 120 9l-10 -52q-28 -5 -41 -12
t-19.5 -22.5t-11.5 -49.5l-25 -155q98 -2 146 -2q40 0 133 8l21 173q2 18 2 23q0 18 -6.5 24.5t-23.5 6.5l-32 -2l-3 5l14 49q2 0 29.5 -1t79.5 -2q41 0 122 9z" />
    <glyph glyph-name="I" unicode="I" horiz-adv-x="349" 
d="M223 257q-21 -136 -21 -164q0 -24 8 -33t27 -9q17 0 30 1t17 2l3 -5l-15 -52q-14 1 -53.5 2t-79.5 1q-32 0 -71 -4.5t-51 -6.5l14 52q45 9 62.5 26.5t21.5 59.5l51 408q2 18 2 22q0 18 -7 25t-24 7q-11 0 -22.5 -1t-15.5 -1q0 1 -1 2.5t-1 2.5l13 49l24 -1q54 -2 98 -2
q27 0 68 3.5t54 5.5l-12 -52q-39 -5 -53.5 -16t-19.5 -40q-25 -146 -46 -282z" />
    <glyph glyph-name="J" unicode="J" horiz-adv-x="316" 
d="M158 558q0 17 -7 23.5t-23 6.5q-13 0 -26.5 -1.5t-18.5 -2.5l-1 5l12 49h110q32 1 72.5 4.5t53.5 4.5l-10 -52q-34 -6 -45 -16t-16 -40q-15 -92 -33.5 -213.5t-31.5 -214.5q-13 -101 -61.5 -162.5t-142.5 -95.5l-17 35l3 9q44 26 68.5 53.5t38 66.5t21.5 101l52 417
q2 18 2 23z" />
    <glyph glyph-name="K" unicode="K" horiz-adv-x="616" 
d="M168 558q0 18 -7 24.5t-24 6.5q-9 0 -18.5 -1t-12.5 -1l-3 5l13 50q13 -1 48.5 -2.5t67.5 -1.5q26 0 64.5 3.5t50.5 5.5l-10 -52q-37 -6 -51.5 -18.5t-19.5 -40.5l-62 -418q-2 -12 -2 -29q0 -21 8 -29.5t27 -8.5q14 0 25.5 1t15.5 2l3 -5l-16 -52q-14 1 -51 2t-75 1
q-40 0 -74 -1t-46 -1l16 52q45 5 60.5 20t19.5 57l51 408q2 18 2 23zM438 508q35 34 35 55q0 24 -52 28l-3 5l13 49q12 -1 50 -4t62 -3q31 0 59.5 1.5t38.5 2.5l3 -7l-12 -47q-28 -8 -52.5 -26.5t-72.5 -66.5l-159 -155l122 -211q27 -46 50.5 -65.5t56.5 -20.5l4 -5l-11 -41
q-12 -2 -47 -6.5t-43 -4.5q-52 0 -97 85l-130 244l4 17z" />
    <glyph glyph-name="L" unicode="L" horiz-adv-x="497" 
d="M80.5 -4q-42.5 -4 -54.5 -6l14 53q38 6 54 24t21 61l50 407q2 18 2 23q0 18 -7 24.5t-23 6.5q-10 0 -19.5 -1t-12.5 -1q0 1 -1 2.5t-1 2.5l13 49l26 -1q52 -2 91 -2q26 0 67 3.5t54 5.5l-11 -53q-32 -5 -45 -11t-20 -21.5t-14 -54.5q-16 -86 -38 -233t-22 -172
q0 -28 13.5 -37t53.5 -9q54 0 81.5 10.5t44 40t33.5 94.5l59 6l3 -6q-5 -17 -21 -76.5t-31 -125.5l-7 -8q-27 2 -113.5 5.5t-148.5 3.5q-48 0 -90.5 -4z" />
    <glyph glyph-name="M" unicode="M" horiz-adv-x="812" 
d="M233 496h-6q-78 -412 -78 -420q0 -26 26 -26l37 2l3 -4l-16 -52q-57 4 -102 4q-30 0 -88 -8l12 52q30 4 45 21t24 55l5 25q83 380 83 405q0 21 -17 32t-56 14l-3 4l12 43l20 -1q94 -4 92 -4q13 0 81 4q19 -116 45 -247.5t48 -220.5h6q73 154 203 467q5 1 38 -1
q32 -2 47 -2l102 6l2 -4l-11 -45q-42 -5 -59.5 -16.5t-19.5 -37.5q-5 -47 -13 -202t-8 -216q0 -43 7.5 -57.5t28.5 -14.5l27 2l2 -4l-15 -52q-72 3 -93 3q-48 0 -117 -8l12 53q29 3 43.5 14.5t17.5 34.5q6 37 22 402h-6q-47 -105 -233 -507l-42 -7z" />
    <glyph glyph-name="N" unicode="N" horiz-adv-x="695" 
d="M564 545q4 43 -27 43l-35 -1l-2 5l14 50q11 -1 41.5 -2.5t62.5 -1.5q27 0 60 3.5t43 4.5l-11 -53q-33 -5 -50.5 -19.5t-21.5 -43.5l-80 -552l-59 -14q-61 127 -119.5 242t-96.5 186t-48 89h-6l-52 -389q-1 -5 -1 -14q0 -15 6.5 -21t21.5 -6l45 1l3 -5l-15 -51
q-11 1 -43 2.5t-67 1.5q-28 0 -60 -3.5t-42 -4.5l13 52q30 4 46 18.5t20 44.5l64 425q1 5 1 14q0 22 -16.5 32t-58.5 15l-3 7l12 43q10 -1 41 -3t53 -2q23 0 45.5 1.5t29.5 2.5q52 -108 105.5 -212t89 -171t45.5 -85h6z" />
    <glyph glyph-name="O" unicode="O" horiz-adv-x="659" 
d="M161.5 21.5q-57.5 33.5 -89.5 94t-32 138.5q0 112 44.5 202.5t123 142t176.5 51.5q75 0 134 -33.5t92 -93.5t33 -138q0 -112 -45.5 -202.5t-125.5 -142.5t-179 -52q-74 0 -131.5 33.5zM423 89q49 38 76.5 107t27.5 159q0 103 -44.5 163.5t-119.5 60.5q-61 0 -109.5 -38.5
t-75.5 -107.5t-27 -158q0 -103 43.5 -163.5t116.5 -60.5q63 0 112 38z" />
    <glyph glyph-name="P" unicode="P" horiz-adv-x="541" 
d="M140 640q50 -2 88 -2q30 0 65 2t49 3q101 0 157 -43t56 -114q0 -63 -34.5 -120.5t-91 -92.5t-118.5 -35h-90l-20 -132q-2 -14 -2 -20q0 -20 9.5 -28t31.5 -8q15 0 29 1.5t19 2.5q2 -2 2 -5l-15 -52q-11 1 -41 2t-60 1q-36 0 -92.5 -3t-58.5 -5l14 53q42 8 58 24t21 58
l50 408q2 18 2 23q0 17 -6.5 24t-22.5 7q-10 0 -20 -1t-13 -1l-3 5l13 49zM418.5 349q32.5 45 32.5 117q0 60 -37 88t-114 28q-17 0 -20 -2t-5 -13q-21 -109 -43 -260l93 -14q61 11 93.5 56z" />
    <glyph glyph-name="Q" unicode="Q" horiz-adv-x="663" 
d="M740 -147q-7 -5 -30 -22.5t-48.5 -33.5t-34.5 -16q-47 0 -86.5 15.5t-96.5 58t-160 133.5q-71 2 -126.5 36t-86.5 94t-31 136q0 112 44.5 202.5t123 142t176.5 51.5q75 0 134 -33.5t92 -93.5t33 -138q0 -93 -32.5 -172.5t-90.5 -134.5t-134 -77v-2q84 -68 146 -97.5
t119 -29.5q28 0 51 4t29 6l5 -3zM193.5 111q43.5 -61 117.5 -61q63 0 112.5 38t77 107t27.5 159q0 103 -45 164t-120 61q-62 0 -110 -38t-75.5 -107t-27.5 -159q0 -103 43.5 -164z" />
    <glyph glyph-name="R" unicode="R" horiz-adv-x="600" 
d="M206 130q-3 -24 -3 -40q0 -26 12.5 -33.5t49.5 -7.5l2 -4l-14 -49l-113 3q-32 1 -70.5 -1t-50.5 -3l15 53q44 5 60.5 20.5t21.5 58.5l50 409q2 18 2 22q0 18 -6.5 24.5t-22.5 6.5q-10 0 -20 -1t-13 -1l-3 5l14 50q12 -1 45 -2.5t66 -1.5q23 0 61.5 2t51.5 3
q91 0 148.5 -38.5t57.5 -104.5q0 -67 -39 -121t-114 -89l77 -164q22 -46 45 -65.5t59 -19.5l4 -6l-11 -40l-95 -11q-28 0 -51.5 24.5t-40.5 69.5l-72 188h-84zM403.5 369.5q38.5 33.5 38.5 110.5q0 107 -149 107q-10 0 -13.5 -4.5t-6.5 -18.5q-22 -109 -37 -231l93 -10
q36 13 74.5 46.5z" />
    <glyph glyph-name="S" unicode="S" horiz-adv-x="513" 
d="M114 -4q-37 8 -58.5 16t-27.5 11l-5 12q2 6 8.5 30t14.5 62.5t13 79.5l58 6q-5 -45 -5 -70q0 -54 22 -73.5t80 -19.5q59 0 96 29.5t37 76.5q0 34 -26.5 59.5t-78.5 54.5q-54 31 -83.5 51t-51.5 51.5t-22 72.5q0 57 32.5 104t89.5 74t127 27q40 0 76 -5.5t57.5 -11.5
t27.5 -8l3 -8q-4 -14 -17.5 -63t-24.5 -107l-52 -5l-7 6q2 7 6 28t4 37q0 38 -22 54t-75 16q-51 0 -86 -27.5t-35 -67.5q0 -28 18.5 -50t53.5 -45l47 -28q48 -26 78 -47.5t50.5 -51t20.5 -67.5q0 -61 -33 -109t-93 -75t-138 -27q-42 0 -79 8z" />
    <glyph glyph-name="T" unicode="T" horiz-adv-x="534" 
d="M162.5 575q-27.5 -8 -39.5 -30t-27 -86l-61 -5q4 17 16 74t20 113l11 8l84 -11h300l89 11l9 -8q-6 -56 -8 -111t-2 -71l-60 -5q-1 67 -7.5 90t-30 31t-90.5 11q-15 -73 -43.5 -265t-28.5 -219t11 -39t35 -12q21 0 35.5 1t18.5 2l2 -4l-15 -54q-17 1 -62.5 2.5t-89.5 1.5
q-31 0 -79.5 -2t-63.5 -3l14 50q47 5 66.5 13.5t28.5 30t16 74.5l51 423q-72 -3 -99.5 -11z" />
    <glyph glyph-name="U" unicode="U" horiz-adv-x="645" 
d="M190 200q0 -70 31.5 -107t92.5 -37q71 0 112.5 39.5t50.5 117.5q6 42 18.5 161.5t16.5 160.5q1 8 1 21q0 20 -6 26.5t-22 6.5q-11 0 -22.5 -1t-15.5 -1l-1 4l13 50q12 0 44.5 -1.5t64.5 -1.5q28 0 61 3.5t43 5.5l-12 -53q-28 -4 -41.5 -9.5t-19 -15t-8.5 -29.5l-40 -328
q-13 -108 -82.5 -166t-184.5 -58q-95 0 -144.5 45.5t-49.5 131.5q0 21 3 43l41 327q2 18 2 24q0 17 -6.5 23.5t-23.5 6.5q-10 0 -19.5 -1t-12.5 -1l-2 4l14 50q12 -1 47 -2t73 -1q25 0 60.5 3.5t46.5 5.5l-11 -53q-34 -4 -47.5 -16t-18.5 -39l-43 -293q-3 -25 -3 -46z" />
    <glyph glyph-name="V" unicode="V" horiz-adv-x="592" 
d="M92 572q-18 14 -52 16l-2 5l13 48q13 0 47 -1.5t67 -1.5q37 0 85.5 4.5t63.5 6.5l3 -8l-10 -46q-38 -3 -56 -7.5t-24 -13t-6 -25.5q0 -33 22.5 -206.5t31.5 -234.5h11l21 45q82 176 130 282t48 123t-13 25t-42 8h-45l-3 5l12 49q14 -1 59 -4t84 -3q30 0 64.5 1.5
t44.5 2.5l-14 -54q-28 -2 -40 -11t-26 -38l-254 -534l-103 -21q-9 52 -38 224.5t-56 320.5q-5 29 -23 43z" />
    <glyph glyph-name="W" unicode="W" horiz-adv-x="909" 
d="M475 378h-8l-169 -373l-101 -21q-7 52 -32.5 224.5t-51.5 320.5q-5 30 -22 43.5t-49 15.5l-3 5l13 48q12 0 45 -1.5t65 -1.5q45 0 90 4.5t58 6.5l3 -8l-9 -46q-37 -3 -55.5 -8t-26 -13.5t-7.5 -24.5q0 -39 22 -210t30 -231h9q61 138 170 376q1 16 -2.5 30t-4.5 21
q-5 28 -20.5 39.5t-50.5 13.5l-2 5l13 48q13 0 48.5 -1.5t68.5 -1.5q40 0 87 4.5t61 6.5l2 -8l-10 -46q-37 -3 -56 -8t-26 -13t-7 -24q0 -35 22.5 -208t30.5 -234h9l26 58q81 180 125 280t44 116t-12.5 22.5t-41.5 6.5h-39l-3 5l13 49q12 -1 54 -4t80 -3q29 0 61.5 1.5
t42.5 2.5l-13 -54q-26 -2 -38 -11.5t-25 -37.5l-254 -534l-99 -21z" />
    <glyph glyph-name="X" unicode="X" horiz-adv-x="640" 
d="M317 0l10 45q37 2 56 10.5t19 25.5q0 14 -13 38l-77 149l-93 -109q-32 -38 -42.5 -55t-10.5 -30q0 -12 10 -18.5t34 -8.5l3 -4l-13 -49q-13 1 -52 3.5t-61 2.5q-31 0 -60.5 -1.5t-40.5 -2.5l-3 8l11 47q38 12 76 44.5t91 92.5l118 134l-95 185q-19 38 -47 57t-71 26l-1 5
l11 47q15 -1 57 -2.5t87 -1.5q44 0 85 3.5t53 5.5l3 -8l-9 -43q-77 -5 -77 -35q0 -14 18.5 -55t58.5 -122l45 55q43 51 68 84.5t25 46.5q0 11 -10 16.5t-35 8.5l-2 4l11 46l26 -2q65 -5 88 -5q26 0 57.5 1.5t41.5 2.5l3 -6l-11 -46q-42 -10 -68.5 -30t-73.5 -74l-131 -152
l106 -199q23 -41 50.5 -60.5t69.5 -23.5l-12 -54q-13 1 -48.5 2t-72.5 1q-32 0 -86.5 -3t-72.5 -4z" />
    <glyph glyph-name="Y" unicode="Y" horiz-adv-x="540" 
d="M248 442q30 -98 39 -121h6l121 197q20 33 20 51q0 12 -11 18t-37 8l-2 4l12 45l26 -2q15 -1 43.5 -2.5t44.5 -1.5q25 0 55 1.5t39 2.5l3 -6l-13 -46q-31 -7 -50.5 -19.5t-35.5 -34t-52 -75.5l-115 -176q-15 -22 -21 -46t-15 -83l-5 -37q-2 -22 -2 -29q0 -22 8.5 -30.5
t28.5 -8.5q16 0 29.5 1t18.5 2l2 -4l-15 -54q-15 1 -55.5 2.5t-80.5 1.5q-32 0 -73.5 -4.5t-54.5 -6.5l13 52q37 7 55 17.5t26 29.5t12 57l4 39q2 22 2 32q0 34 -16 78l-67 186q-16 45 -25.5 64t-26.5 30.5t-50 15.5l-3 5l13 47q12 -1 44.5 -2.5t67.5 -1.5q33 0 81.5 3.5
t63.5 5.5l3 -8l-10 -43q-44 -4 -59.5 -11.5t-15.5 -24.5q0 -20 30 -118z" />
    <glyph glyph-name="Z" unicode="Z" horiz-adv-x="551" 
d="M87 3l-71 -7l-12 37l418 549l-150 -7q-44 -2 -70 -14t-41.5 -39.5t-26.5 -77.5l-61 -5q5 19 19 82t23 120l11 9l168 -11l261 -5l9 -33q-197 -239 -426 -547l175 8q50 2 83 39.5t58 119.5l60 6q-3 -9 -12 -42.5t-20 -80.5t-18 -90l-18 -17z" />
    <glyph glyph-name="bracketleft" unicode="[" horiz-adv-x="301" 
d="M71 55.5q21 134.5 29 196.5q8 63 20 198.5t16 180.5l193 11l4 -7l-12 -41l-107 -23l-78 -635l104 -23l3 -7l-11 -41l-189 11q7 45 28 179.5z" />
    <glyph glyph-name="backslash" unicode="\" horiz-adv-x="317" 
d="M150 675l55 -449q12 -95 27.5 -196t20.5 -131l-8 -9h-65l-41 325q-18 138 -36 269.5t-25 178.5l11 12h61z" />
    <glyph glyph-name="bracketright" unicode="]" horiz-adv-x="301" 
d="M238 452q-21 -134 -29 -197q-7 -63 -19.5 -198.5t-16.5 -180.5l-194 -11l-3 7l11 41l108 23l78 635l-105 23l-3 7l12 41l189 -11q-7 -45 -28 -179z" />
    <glyph glyph-name="asciicircum" unicode="^" horiz-adv-x="479" 
d="M331.5 396q15.5 -57 33.5 -118q19 -62 35 -111.5t21 -66.5l-54 -35l-13 2l-52 174l-43 155h-6l-71 -141q-26 -50 -55 -110.5t-37 -78.5l-60 13l-4 11q9 17 36.5 70.5t62.5 120.5l105 198l69 3l11 -8q6 -21 21.5 -78z" />
    <glyph glyph-name="underscore" unicode="_" horiz-adv-x="438" 
d="M390 -157l-303 -1q-60 -1 -134 -1l-6 11l18 60l231 -1q66 0 129 3q76 2 77 3l4 -12z" />
    <glyph glyph-name="grave" unicode="`" horiz-adv-x="383" 
d="M142 722l11 1q14 -16 62 -69t96 -102l-25 -27l-11 -3q-55 46 -108.5 84.5t-68.5 49.5l-1 13z" />
    <glyph glyph-name="a" unicode="a" horiz-adv-x="474" 
d="M375.5 88.5q12.5 9.5 54.5 45.5l14 -1l15 -29q-70 -69 -102.5 -92.5t-55.5 -23.5q-17 0 -26.5 8.5t-9.5 22.5q0 24 40 193l-7 1q-47 -86 -89 -139.5t-87 -85.5q-44 0 -69.5 37t-25.5 102q0 80 34.5 158t89 127.5t110.5 49.5l95 -16l8 24l8 3l51 -15l8 -14
q-23 -84 -45 -185t-33 -176l3 -4q7 0 19.5 9.5zM194 123.5q30 39.5 66 105t66 138.5q-22 13 -48.5 22t-44.5 9q-29 0 -55 -31t-42 -82t-16 -106q0 -41 8 -68t20 -27q16 0 46 39.5z" />
    <glyph glyph-name="b" unicode="b" horiz-adv-x="467" 
d="M112 445q27 180 27 198q0 20 -9.5 29t-30.5 9h-38l7 47q79 0 174 7l11 -14q-27 -112 -54 -252.5t-43 -246.5l4 -2q47 99 85 155.5t80 90.5q51 0 82.5 -44t31.5 -115q0 -80 -33 -153.5t-87.5 -118t-114.5 -44.5q-36 0 -76.5 8.5t-67.5 22.5l-11 21q36 222 63 402z
M239.5 291.5q-46.5 -80.5 -98.5 -209.5q23 -9 53 -16t48 -7q26 0 50.5 28.5t39.5 75t15 97.5q0 45 -11.5 78.5t-27.5 33.5q-22 0 -68.5 -80.5z" />
    <glyph glyph-name="c" unicode="c" horiz-adv-x="354" 
d="M179.5 367q-26.5 -30 -42.5 -78.5t-16 -100.5q0 -58 17.5 -91.5t47.5 -33.5q28 0 56 23.5t46 61.5l15 -2l23 -31q-28 -55 -76.5 -91t-94.5 -36q-58 0 -91.5 45t-33.5 123t33.5 150.5t88.5 117t115 44.5q26 0 50 -6t40 -16l4 -12l-37 -80l-20 -2q-30 45 -70 45
q-28 0 -54.5 -30z" />
    <glyph glyph-name="d" unicode="d" horiz-adv-x="476" 
d="M373.5 87q10.5 8 56.5 47l14 -1l15 -29q-67 -66 -100.5 -91t-54.5 -25q-39 0 -39 33q0 13 15.5 84.5t24.5 106.5l-8 1q-46 -86 -88.5 -140t-86.5 -85q-45 0 -70 37t-25 103q0 80 34.5 157.5t89 127t110.5 49.5l71 -13l26 188l1 11q0 17 -10 25t-31 8h-38l7 47q42 0 99 3
t75 4l11 -14q-7 -32 -29.5 -145t-49 -254.5t-40.5 -238.5l3 -4q7 0 17.5 8zM223.5 167q52.5 83 100.5 200q-21 13 -47 22t-46 9q-27 0 -53 -31.5t-42 -82t-16 -104.5q0 -40 7.5 -68t18.5 -28q25 0 77.5 83z" />
    <glyph glyph-name="e" unicode="e" horiz-adv-x="373" 
d="M304 274q-55 -45 -185 -87q-2 -56 16 -89.5t51 -33.5q29 0 57.5 22t48.5 61l15 -2l23 -31q-28 -55 -77 -90.5t-97 -35.5q-58 0 -92 45.5t-34 123.5q0 77 34.5 149t89.5 117t114 45q43 0 67 -22.5t24 -62.5q0 -64 -55 -109zM165 350.5q-33 -46.5 -43 -113.5
q79 25 114.5 53t35.5 66q0 41 -37 41t-70 -46.5z" />
    <glyph glyph-name="f" unicode="f" horiz-adv-x="271" 
d="M33 441l81 12l8 74q7 59 40 108.5t82.5 78t104.5 28.5q27 0 55.5 -4t47.5 -11l4 -11l-36 -77l-19 -3q-55 35 -97 35q-38 0 -60 -26.5t-28 -81.5l-14 -112l141 1l4 -4l-8 -47l-134 1l-9 -5l-50 -458q-9 -80 -57.5 -130.5t-114.5 -50.5q-35 0 -63 14t-36 35q5 19 18 48.5
t23 45.5h15q0 -39 19 -60.5t52 -21.5q27 0 46.5 22t23.5 57q5 46 7 93q0 9 1 26.5t2 29.5l27 344l-8 6l-70 3l-3 5z" />
    <glyph glyph-name="g" unicode="g" horiz-adv-x="455" 
d="M3.5 -222.5q-39.5 18.5 -62 48.5t-20.5 63l3 7q50 38 181 113l1 8q-27 15 -41.5 49.5t-14.5 81.5q0 74 33.5 147.5t86 120.5t105.5 47l96 -17l10 24l8 3l51 -14l10 -13q-63 -119 -72 -199q-3 -22 -5.5 -65.5t-3.5 -62.5q-1 -20 -3.5 -58t-4.5 -54q-6 -56 -50.5 -114
t-106 -96t-116.5 -38q-45 0 -84.5 18.5zM240.5 171q44.5 73 99.5 197q-60 30 -96 30q-25 0 -49 -29t-39 -75.5t-15 -94.5q0 -41 10 -71t24 -30q21 0 65.5 73zM230 -127q42 43 51 118l25 201l-9 2q-49 -88 -78 -126.5t-63 -62.5l-56 -38q-45 -31 -64 -45t-19 -22
q0 -16 16 -32.5t41.5 -27t51.5 -10.5q62 0 104 43z" />
    <glyph glyph-name="h" unicode="h" horiz-adv-x="497" 
d="M381 87.5q11 8.5 55 47.5l15 -2l14 -29q-60 -61 -96 -88t-58 -27q-38 0 -38 35q0 19 9 52.5t26 89.5q18 58 28 96.5t10 59.5q0 17 -8.5 28t-22.5 11q-28 0 -75.5 -72.5t-95.5 -189.5l-11 -79q-1 -8 -29.5 -18.5t-49.5 -10.5l-9 12q15 93 54.5 350.5t40.5 287.5
q1 21 -8.5 30.5t-31.5 9.5h-38l7 47q42 0 99 3t75 4l11 -14q-5 -21 -21.5 -96.5t-38 -186.5t-37.5 -216l5 -2q48 96 96 159.5t90 88.5q40 0 66.5 -28.5t26.5 -70.5q0 -25 -11.5 -65.5t-33.5 -103.5q-3 -8 -17 -49t-19 -68l3 -4q7 0 18 8.5z" />
    <glyph glyph-name="i" unicode="i" horiz-adv-x="272" 
d="M169.5 88.5q12.5 9.5 53.5 45.5l14 -1l15 -29q-58 -60 -95 -88t-59 -28q-19 0 -28 10t-9 31q21 128 35 223t14 110q0 22 -9 31t-31 9h-38l8 47q79 0 174 7l10 -13q-23 -77 -45 -179t-33 -181l4 -4q7 0 19.5 9.5zM134 582q-13 15 -13 37q0 32 21.5 54t53.5 22q24 0 37 -15
t13 -37q0 -32 -22 -54t-53 -22q-24 0 -37 15z" />
    <glyph glyph-name="j" unicode="j" horiz-adv-x="256" 
d="M144.5 597q-13.5 14 -13.5 37q0 32 21.5 54t52.5 22q22 0 35.5 -13.5t13.5 -36.5q0 -33 -21.5 -55t-52.5 -22q-22 0 -35.5 14zM82 -139.5q-46 -63.5 -125 -102.5l-20 23l3 10q39 29 63 59t38 74t23 113q8 46 29 174.5t21 149.5q0 22 -10 31.5t-32 9.5h-38l9 47
q41 0 97.5 3t74.5 4l11 -13q-5 -19 -20.5 -86t-34.5 -161t-30 -176q-13 -96 -59 -159.5z" />
    <glyph glyph-name="k" unicode="k" horiz-adv-x="457" 
d="M219 198q60 30 92 61.5t32 67.5q0 15 -8.5 24.5t-21.5 9.5q-28 0 -77 -73.5t-97 -189.5l-10 -78q-2 -8 -30 -18.5t-49 -10.5l-10 12q15 94 55.5 355t40.5 285q0 20 -9.5 29t-30.5 9h-39l7 47q42 0 99.5 3t75.5 4l10 -14q-5 -21 -21.5 -96.5t-38 -186.5t-37.5 -216l5 -2
q48 96 96 159.5t90 88.5q40 0 66.5 -27.5t26.5 -68.5q0 -46 -37.5 -93t-108.5 -91q35 -58 74.5 -113t39.5 -53l1 -14l-81 -30l-13 7l-97 198z" />
    <glyph glyph-name="l" unicode="l" horiz-adv-x="258" 
d="M156.5 88.5q12.5 9.5 54.5 45.5l14 -1l15 -29q-58 -60 -95 -88t-59 -28q-38 0 -38 37q0 6 36 235q10 67 33 217t23 165q0 21 -9 30t-31 9h-38l7 47q42 0 99 3t75 4l11 -14q-7 -31 -29.5 -140.5t-49.5 -251t-41 -246.5l3 -4q7 0 19.5 9.5z" />
    <glyph glyph-name="m" unicode="m" horiz-adv-x="748" 
d="M632 88.5q12 9.5 55 46.5l15 -2l14 -29q-61 -61 -98 -88t-58 -27q-38 0 -38 35q0 18 9 50t29 92q3 10 15 49t18.5 65.5t6.5 41.5q0 17 -8.5 28t-22.5 11q-29 0 -80 -78t-102 -201l-11 -62q-1 -8 -29.5 -18.5t-49.5 -10.5l-10 12q11 45 39 171t28 149q0 17 -8.5 27.5
t-22.5 10.5q-28 0 -74.5 -72.5t-92.5 -188.5l-10 -80q-2 -8 -30 -18.5t-49 -10.5l-10 12q8 51 30.5 193t23.5 166q1 21 -8.5 30.5t-31.5 9.5h-39l8 47q42 0 99 3t75 4l10 -14q-3 -9 -13 -41.5t-22 -81.5t-20 -97l4 -2q47 96 93.5 159.5t89.5 88.5q38 0 64 -27.5t26 -67.5
q0 -21 -14.5 -76.5t-20.5 -74.5l4 -2q46 93 95 157.5t94 90.5q39 0 64 -27t25 -69q0 -26 -12 -66.5t-35 -107.5q-28 -82 -36 -115l3 -4q7 0 19 9.5z" />
    <glyph glyph-name="n" unicode="n" horiz-adv-x="506" 
d="M479 104q-59 -60 -95.5 -87.5t-58.5 -27.5q-38 0 -38 35q0 19 9 52.5t26 89.5q18 58 28 96.5t10 59.5q0 17 -8.5 28t-21.5 11q-28 0 -75.5 -73t-95.5 -191l-10 -77q-2 -8 -30 -18.5t-49 -10.5l-10 12q18 102 35.5 219t19.5 140q1 21 -9 30.5t-32 9.5h-38l8 47q58 0 174 7
l9 -14q-15 -45 -30 -107t-24 -113l5 -2q47 96 94.5 159.5t90.5 88.5q39 0 64.5 -27.5t25.5 -70.5q0 -25 -10 -61t-34 -111q-28 -81 -35 -115l3 -4q7 0 19.5 9.5t53.5 46.5l15 -2z" />
    <glyph glyph-name="o" unicode="o" horiz-adv-x="422" 
d="M65 34q-34 46 -34 124q0 83 32 154t86 113.5t118 42.5q60 0 93.5 -41t33.5 -116q0 -88 -31.5 -162t-86.5 -117.5t-120 -43.5q-57 0 -91 46zM270 109.5q28 56.5 28 150.5q0 64 -19 100t-54 36q-45 0 -73 -52.5t-28 -138.5q0 -70 19.5 -111t52.5 -41q46 0 74 56.5z" />
    <glyph glyph-name="p" unicode="p" horiz-adv-x="487" 
d="M21.5 -174.5q11.5 13.5 20.5 50.5q11 44 43 251.5t32 236.5q0 20 -9.5 29t-31.5 9h-39l8 47q80 0 174 7l11 -13q-38 -109 -57 -216l5 -3q49 99 86.5 155t77.5 89q52 0 83 -43t31 -114q0 -74 -33 -148t-84 -121.5t-103 -47.5l-96 14l-20 -139q-1 -6 -1 -17q0 -18 9.5 -25
t33.5 -7h42l1 -6l-8 -42q-112 0 -219 -7l8 45q24 2 35.5 15.5zM256 293.5q-47 -80.5 -96 -203.5q24 -13 55.5 -21t53.5 -8q23 0 45.5 30t36.5 77.5t14 95.5q0 43 -12 76.5t-28 33.5q-22 0 -69 -80.5z" />
    <glyph glyph-name="q" unicode="q" horiz-adv-x="455" 
d="M303 209l-8 1q-46 -85 -84.5 -137.5t-76.5 -84.5q-47 0 -76 41.5t-29 110.5q0 77 34.5 152t88.5 122.5t109 47.5l93 -16l20 51l9 4l53 -12l7 -14q-13 -23 -42.5 -155t-53.5 -271t-24 -188q0 -23 6.5 -31.5t22.5 -8.5h34l2 -5l-7 -44q-77 0 -151 -5.5t-74 -6.5l8 48
q30 3 44.5 9.5t22.5 20.5t14 44l29 168zM222.5 161q46.5 77 102.5 206q-56 31 -94 31q-27 0 -53 -30.5t-42 -79t-16 -99.5q0 -43 10 -74t24 -31q22 0 68.5 77z" />
    <glyph glyph-name="r" unicode="r" horiz-adv-x="360" 
d="M89 194.5q23 141.5 23 166.5q0 22 -9.5 31.5t-31.5 9.5h-39l8 47q42 0 99 3t75 4l10 -14q-5 -17 -21 -75t-27 -116l4 -1q42 93 92.5 152t90.5 62q9 -5 16 -21t8 -33q-1 -20 -5.5 -39t-9 -31.5t-5.5 -15.5l-22 -2q-6 21 -23 21q-34 0 -78.5 -59t-83.5 -158l-14 -106
q-2 -8 -30 -18.5t-49 -10.5l-10 12q9 50 32 191.5z" />
    <glyph glyph-name="s" unicode="s" horiz-adv-x="352" 
d="M86.5 74q24.5 -26 68.5 -26q26 0 45 16.5t19 40.5q0 21 -16 39.5t-48 42.5q-47 37 -70.5 65t-23.5 67q0 40 23 74.5t62.5 54.5t84.5 20q35 0 65.5 -10.5t46.5 -29.5q-18 -50 -40 -88h-16q-11 31 -32.5 48t-48.5 17q-23 0 -38 -14t-15 -35q0 -26 30 -54q16 -14 37 -31
q43 -33 66 -61.5t23 -66.5q0 -40 -24.5 -76t-66 -57.5t-88.5 -21.5q-49 0 -83 15.5t-43 42.5q6 24 18.5 54.5t22.5 45.5h17q0 -46 24.5 -72z" />
    <glyph glyph-name="t" unicode="t" horiz-adv-x="294" 
d="M280 111q-46 -54 -87.5 -88.5t-64.5 -34.5q-34 0 -54 18t-20 50q0 9 1 13l53 324l-6 4l-66 3l-3 5l5 36l78 13l16 118l106 35l7 -12q-4 -12 -15.5 -54.5t-22.5 -89.5l117 1l4 -4l-9 -47l-113 1l-11 -6l-56 -284l-1 -9q0 -25 23 -25q13 0 34 14.5t57 49.5l15 -1z" />
    <glyph glyph-name="u" unicode="u" horiz-adv-x="497" 
d="M477 104q-67 -66 -100.5 -91t-54.5 -25q-39 0 -39 32q0 15 40 195l-8 2q-84 -166 -169 -228q-46 0 -72 23.5t-26 64.5q0 33 38 159q12 41 22 79t10 52q0 18 -9.5 26.5t-30.5 8.5h-38l9 47q76 0 174 7l10 -13q-41 -119 -67.5 -210.5t-26.5 -115.5q0 -17 6.5 -24.5
t20.5 -7.5q26 0 75 76t103 201l16 93l11 5l78 -8l8 -10q-23 -78 -46.5 -178.5t-35.5 -176.5l4 -4q7 1 19 9.5t50 41.5l14 -1z" />
    <glyph glyph-name="v" unicode="v" horiz-adv-x="433" 
d="M126 2q-3 80 -13.5 182.5t-23.5 175.5q-4 22 -12 30t-26 8q-12 0 -27 -1.5t-21 -2.5l4 46q52 7 98 13.5t62 8.5l11 -9q20 -173 19 -378h11q59 92 90.5 161.5t31.5 108.5q0 31 -18 51t-31 26l5 23l103 23q16 -11 24.5 -32.5t8.5 -48.5q0 -53 -50.5 -153.5t-148.5 -242.5
l-81 -2z" />
    <glyph glyph-name="w" unicode="w" horiz-adv-x="659" 
d="M321 298l-18 138l7 12l76 20q16 -11 24.5 -32.5t8.5 -46.5q0 -30 -17 -73l24 -241h11q57 91 88 161.5t31 109.5q0 23 -13.5 44t-35.5 32l6 23l102 23q16 -12 24.5 -33.5t8.5 -47.5q0 -105 -196 -396l-75 -2l-16 13l-19 186h-8q-34 -67 -113 -197l-79 -2l-16 13
q-3 81 -13.5 183.5t-23.5 174.5q-4 22 -12 30t-26 8l-23 -2q-18 -2 -25 -2l4 46q26 3 53 7t52 7l55 8l11 -9q20 -181 19 -378h11q84 135 113 223z" />
    <glyph glyph-name="x" unicode="x" horiz-adv-x="470" 
d="M487 436q-22 -53 -41 -92h-16q-13 55 -41 55q-24 0 -48 -34t-61 -119q26 -103 39.5 -138.5t26.5 -35.5q8 0 24 10.5t57 43.5h12l16 -31q-61 -61 -93.5 -84t-60.5 -23q-16 0 -29 15.5t-26.5 52.5t-33.5 108q-42 -95 -81 -135.5t-88 -40.5q-24 0 -41.5 10t-22.5 27
q6 21 18 49t23 48h17q-1 -33 8 -51.5t26 -18.5q47 0 117 169q-21 74 -32 107t-18.5 44.5t-16.5 11.5q-8 0 -23 -11t-49 -43h-13l-15 31q52 57 88.5 82t65.5 25q15 0 27 -14t24.5 -48.5t31.5 -101.5q40 86 78 125t84 39q44 0 67 -32z" />
    <glyph glyph-name="y" unicode="y" horiz-adv-x="446" 
d="M402 468q15 -10 24 -32t9 -48q0 -103 -183 -371q-92 -134 -154.5 -193.5t-112.5 -59.5q-31 0 -54 11.5t-29 29.5q8 49 28 84h14q31 -36 66 -36q58 0 135 101q-19 241 -43 406q-4 22 -12 30t-26 8l-22 -2q-18 -2 -25 -2l3 46l160 22l11 -9q17 -132 17 -348v-40h11
q60 98 92 170.5t32 109.5q0 22 -13 42.5t-36 34.5l6 23z" />
    <glyph glyph-name="z" unicode="z" horiz-adv-x="409" 
d="M64.5 365.5q12.5 48.5 19.5 92.5l20 10q26 -4 103 -15t104 -11q13 0 20 3t14 12l18 21l49 -18l5 -19q-178 -200 -292 -346l28 7q15 0 36.5 -4t28.5 -5q46 -10 68 -10q27 0 45.5 18t25.5 51l20 -2q10 -27 10 -51q0 -46 -28.5 -78.5t-68.5 -32.5q-18 0 -35 4.5t-31.5 9.5
t-18.5 7q-29 12 -51 18t-46 6q-46 0 -98 -32l-14 23l280 349l-89 1q-41 0 -61 -14t-32 -52l-46 -5q4 14 16.5 62.5z" />
    <glyph glyph-name="braceleft" unicode="{" horiz-adv-x="303" 
d="M121.5 311q26.5 22 26.5 54q0 19 -10 71q-12 56 -12 84q0 55 40.5 93t107.5 38q18 0 36.5 -3t24.5 -4l3 -7l-14 -41q-4 1 -17.5 3t-24.5 2q-32 0 -48.5 -23t-16.5 -60q0 -17 4 -63q4 -48 4 -68q0 -50 -24 -78.5t-60 -38.5l-1 -6q60 -23 60 -88q0 -20 -6.5 -44t-20.5 -64
q-23 -67 -23 -92t12.5 -40t38.5 -15q11 0 25.5 2t18.5 3l5 -7l-14 -39q0 -1 -21 -6t-45 -5q-51 0 -81 29.5t-30 74.5q0 23 9.5 49.5t27.5 64.5q15 34 21.5 50.5t6.5 30.5q0 56 -79 77l9 32q41 12 67.5 34z" />
    <glyph glyph-name="bar" unicode="|" horiz-adv-x="340" 
d="M253 569q-24 -174 -36 -278l-67 -549l-71 -11l-9 8q7 59 27 218.5t40 318.5l64 520l72 11l12 -8q-8 -56 -32 -230z" />
    <glyph glyph-name="braceright" unicode="}" horiz-adv-x="303" 
d="M191.5 211.5q-26.5 -22.5 -26.5 -54.5q0 -19 10 -71q12 -56 12 -84q0 -36 -18.5 -66.5t-52 -48.5t-77.5 -18q-17 0 -36.5 3t-25.5 4l-3 7l14 41q4 -1 18 -3t23 -2q33 0 49.5 23t16.5 60q0 18 -1 34.5t-2 29.5q-4 48 -4 68q0 50 24 78.5t59 39.5l1 6q-59 23 -59 88
q0 20 6.5 45t19.5 62q11 33 17 54.5t6 36.5q0 25 -12.5 40t-37.5 15q-12 0 -26.5 -2t-18.5 -3l-4 7l13 39q0 1 21 6t45 5q52 0 82 -30t30 -74q0 -23 -9.5 -49t-27.5 -63q-15 -34 -21.5 -50.5t-6.5 -30.5q0 -30 21 -49t56 -28l-7 -32q-41 -11 -67.5 -33.5z" />
    <glyph glyph-name="asciitilde" unicode="~" horiz-adv-x="487" 
d="M34 220v7l92 94l17 4q29 0 117 -22q78 -19 101 -19q11 0 27 12.5t29 26t17 17.5h8l23 -28v-8l-92 -94l-17 -4q-29 0 -117 22q-78 19 -101 19q-11 0 -27 -12t-29 -25.5t-17 -17.5h-8z" />
    <glyph glyph-name="uni00A0" unicode="&#xa0;" horiz-adv-x="161" 
 />
    <glyph glyph-name="exclamdown" unicode="&#xa1;" horiz-adv-x="273" 
d="M229 452.5q14 -15.5 14 -40.5q0 -34 -21.5 -56.5t-56.5 -22.5q-26 0 -41 15.5t-15 40.5q0 34 22 56.5t57 22.5q27 0 41 -15.5zM128 -222l-106 -20l-11 14l113 465l44 9l12 -10l-41 -446z" />
    <glyph glyph-name="cent" unicode="&#xa2;" horiz-adv-x="370" 
d="M299 146l23 -31q-24 -47 -63 -80.5t-80 -43.5l-32 -142l-45 -5l-5 7l31 139q-48 9 -75 53t-27 113q0 71 28.5 138.5t76 113.5t101.5 57l41 187l47 6l4 -9l-41 -182q42 -3 70 -21l4 -12l-37 -80l-20 -2q-13 21 -34 35l-71 -323q25 5 49 28t40 56zM168 358
q-23 -31 -37 -76.5t-14 -93.5q0 -79 31 -110l69 317q-26 -6 -49 -37z" />
    <glyph glyph-name="sterling" unicode="&#xa3;" horiz-adv-x="507" 
d="M447 101q0 -48 -28.5 -80.5t-67.5 -32.5q-22 0 -46.5 6t-60.5 17q-38 12 -64.5 18t-51.5 6t-48 -8t-49 -25l-9 5l-10 45q101 63 113 151l5 46q1 23 -9.5 30.5t-47.5 9.5l-3 6l13 42l59 10l2 19q8 66 41.5 119t84 83t107.5 30q30 0 58.5 -4t42.5 -11l4 -11l-37 -77l-18 -3
q-57 35 -98 35q-37 0 -59.5 -27.5t-31.5 -84.5l-11 -73q55 0 96 1t54 2l3 -4l-18 -60q-12 1 -51 2t-93 1l-11 -70q-6 -37 -24 -69t-45 -54l56 12q21 0 46 -5t31 -6q50 -10 70 -10q62 0 77 75l20 -2q9 -22 9 -54z" />
    <glyph glyph-name="currency" unicode="&#xa4;" horiz-adv-x="466" 
d="M134 437q-22 26 -39 44.5t-22 24.5l4 14l58 37q4 -9 36 -47q4 -5 8.5 -11t10.5 -13q36 22 77 22t71 -22l76 76l14 -3l31 -53l-77 -68q15 -27 15 -66q0 -45 -31 -92l61 -67l-4 -13l-58 -39l-55 67q-38 -24 -80 -24q-44 0 -75 25q-27 -27 -47.5 -45.5t-26.5 -24.5l-13 4
l-28 52q9 7 23.5 19.5t28.5 24.5l21 19q-12 24 -12 61q0 52 33 98zM181 286q22 -24 56 -24q40 0 71 31t31 73q0 35 -22.5 59.5t-56.5 24.5q-40 0 -70.5 -31t-30.5 -73q0 -36 22 -60z" />
    <glyph glyph-name="yen" unicode="&#xa5;" horiz-adv-x="534" 
d="M233 396l2 -10l46 -125l95 147q5 9 9.5 18t4.5 16q0 14 -43 16l-1 8l10 41l27 -1q44 -4 76 -4q27 0 49.5 1t30.5 2l4 -7l-11 -44q-36 -8 -53.5 -22t-44.5 -53l-39 -57l102 2l5 -9l-9 -41h-133l-35 -52q-8 -12 -14 -34l169 4l5 -9l-8 -42h-178q0 -7 -3 -25l-5 -40
q0 -15 7.5 -20.5t26.5 -5.5l39 1l2 -7l-14 -47q-13 0 -49 1.5t-71 1.5q-26 0 -65 -3.5t-51 -5.5l12 50q33 5 48 14t20.5 26.5t11.5 59.5l-169 -1l-5 8l10 40h164q-3 25 -12 46l-17 40l-124 -1l-5 7l11 40h97q-21 54 -32 76t-29 38t-48 19q0 5 2 15q2 13 10 37q10 -1 37.5 -2
t58.5 -1q25 0 75 3.5t54 3.5l3 -10l-9 -41q-34 -4 -45 -9.5t-11 -15.5q0 -11 9 -37z" />
    <glyph glyph-name="brokenbar" unicode="&#xa6;" horiz-adv-x="340" 
d="M148 370q36 284 53 426l72 11l12 -8q-6 -41 -22.5 -162t-35.5 -261l-73 -11zM201 170l-51 -428l-72 -11l-8 8l52 424l74 13z" />
    <glyph glyph-name="section" unicode="&#xa7;" horiz-adv-x="486" 
d="M425 143q-33 -47 -86 -77q0 -12 -1 -19q-4 -34 -31 -69t-70 -58t-90 -23q-48 0 -80 21t-32 53q0 21 10.5 53t21.5 45h17q3 -50 28.5 -80.5t65.5 -30.5q30 0 51 20t21 50q0 31 -22 56.5t-68 61.5q-57 45 -87 82t-30 89q0 45 32 89.5t87 77.5v8q0 41 24 78t64 59t85 22
q40 0 70.5 -14t30.5 -33q0 -16 -13 -49t-22 -42h-16q-8 33 -31 53.5t-50 20.5q-23 0 -39 -17.5t-16 -44.5q0 -31 22.5 -56.5t70.5 -63.5q39 -32 61.5 -53.5t38.5 -50.5t16 -63q0 -48 -33 -95zM374 195q0 32 -24.5 61.5t-72.5 69.5q-42 36 -67 62.5t-38 56.5
q-25 -19 -36.5 -39t-11.5 -45q0 -34 24.5 -63t74.5 -70q42 -35 67.5 -61t38.5 -57q45 37 45 85z" />
    <glyph glyph-name="dieresis" unicode="&#xa8;" horiz-adv-x="383" 
d="M117.5 560.5q-13.5 13.5 -13.5 35.5q0 25 16.5 41.5t42.5 16.5q21 0 33.5 -13.5t12.5 -35.5q0 -25 -16.5 -41.5t-41.5 -16.5q-20 0 -33.5 13.5zM283 560.5q-13 13.5 -13 35.5q0 26 16 42t42 16q22 0 34 -13t12 -36q0 -25 -16 -41.5t-41 -16.5q-21 0 -34 13.5z" />
    <glyph glyph-name="copyright" unicode="&#xa9;" horiz-adv-x="668" 
d="M93.5 428q46.5 78 123.5 124t163 46q73 0 132 -36.5t92.5 -99t33.5 -137.5q0 -89 -46.5 -167t-123.5 -124t-163 -46q-74 0 -132.5 36.5t-92 99t-33.5 137.5q0 89 46.5 167zM120.5 147.5q28.5 -53.5 78 -84.5t111.5 -31q73 0 138.5 39.5t105 106t39.5 143.5
q0 64 -28.5 117.5t-78.5 84.5t-112 31q-73 0 -138 -39.5t-104.5 -106t-39.5 -143.5q0 -64 28.5 -117.5zM224 163q-38 37 -38 101q0 59 25 104.5t70 70.5t103 25q27 0 59 -5t42 -7l2 -5q-3 -7 -11 -34t-14 -59l-43 -3q1 4 3.5 15.5t2.5 17.5q0 38 -60 38q-49 0 -78 -39
t-29 -107q0 -52 21 -81t60 -29q31 0 50 17.5t32 56.5l42 3q-3 -9 -10.5 -37.5t-11.5 -53.5l-5 -6q-4 -2 -18 -6.5t-38.5 -9t-52.5 -4.5q-65 0 -103 37z" />
    <glyph glyph-name="ordfeminine" unicode="&#xaa;" horiz-adv-x="337" 
d="M275 419.5q10 7.5 29 24.5l12 -1l10 -22q-46 -47 -70 -65t-41 -18q-28 0 -28 25q0 8 8 45t14 62l-5 1q-29 -52 -54 -83t-51 -50q-35 0 -54.5 25t-19.5 69q0 50 23 99t59.5 80.5t74.5 31.5l56 -11l5 14l8 5l49 -9l6 -12q-3 -9 -11 -42t-18.5 -81t-17.5 -93l2 -2
q4 0 14 7.5zM163 461q30 49 56 114q-14 9 -29.5 14t-27.5 5q-14 0 -27.5 -18.5t-22 -48t-8.5 -59.5q0 -24 4 -40t10 -16q15 0 45 49z" />
    <glyph glyph-name="guillemotleft" unicode="&#xab;" horiz-adv-x="422" 
d="M398 373l-113 -154q2 -6 42 -78l35 -64l-5 -13l-32 -19q-7 11 -63.5 77.5t-77.5 90.5l2 18q27 25 100.5 94t82.5 79l28 -19zM230 373l-113 -154q2 -6 42 -78l35 -64l-5 -13l-32 -19q-7 11 -63.5 77.5t-77.5 90.5l2 18q27 25 100.5 94t82.5 79l28 -19z" />
    <glyph glyph-name="logicalnot" unicode="&#xac;" horiz-adv-x="487" 
d="M439 248.5q-8 -38.5 -12 -74.5q-6 -51 -10.5 -87.5t-5.5 -47.5l-69 -13l-8 7l25 197l-115 -1l-220 -1l-6 10l21 66l227 -1q46 0 103.5 2.5t75.5 3.5l5 -11q-3 -11 -11 -49.5z" />
    <glyph glyph-name="uni00AD" unicode="&#xad;" horiz-adv-x="312" 
d="M272 229l-233 -26l-6 10l15 63l164 19q31 4 47.5 6.5t20.5 3.5l6 -11z" />
    <glyph glyph-name="registered" unicode="&#xae;" horiz-adv-x="450" 
d="M93 598q31 52 82.5 82.5t109.5 30.5q49 0 88.5 -24.5t62 -66t22.5 -91.5q0 -61 -31 -113t-82.5 -82.5t-109.5 -30.5q-49 0 -88.5 24.5t-62 66t-22.5 91.5q0 61 31 113zM116.5 413.5q18.5 -34.5 50.5 -54.5t72 -20q47 0 89.5 25.5t68 68.5t25.5 92q0 41 -18.5 75.5
t-50.5 54.5t-72 20q-47 0 -89.5 -25.5t-68 -68.5t-25.5 -92q0 -41 18.5 -75.5zM181 442q5 7 8 28l13 109l1 9q0 9 -9 9h-11l-2 3l5 19l42 -1h10l33 2q35 0 54.5 -12.5t19.5 -36.5q0 -25 -14 -41t-38 -27l20 -41q16 -31 33 -31l3 -4q-1 -12 -8 -15t-32 -4q-12 0 -20 7t-14 24
l-19 53h-22q-2 -10 -4 -22t-2 -20q0 -9 4.5 -12t16.5 -3l1 -4l-4 -18l-34 1h-12q-14 0 -26.5 -1t-16.5 -1l4 22q15 1 20 8zM238 521q2 0 26 -3q33 11 33 45q0 30 -42 30q-4 0 -5 -1.5t-2 -6.5z" />
    <glyph glyph-name="macron" unicode="&#xaf;" horiz-adv-x="383" 
d="M373 574l-136 -1l-136 -1l-7 10l19 58l148 -1q30 0 70.5 2.5t53.5 3.5l5 -12z" />
    <glyph glyph-name="degree" unicode="&#xb0;" horiz-adv-x="291" 
d="M77.5 580.5q19.5 32.5 52 51.5t68.5 19q47 0 77.5 -33t30.5 -82q0 -38 -19.5 -70.5t-51.5 -51.5t-68 -19q-47 0 -78 33.5t-31 81.5q0 38 19.5 70.5zM126.5 464.5q20.5 -20.5 49.5 -20.5q34 0 58 26t24 62q0 29 -20.5 49.5t-49.5 20.5q-34 0 -58 -26t-24 -62
q0 -29 20.5 -49.5z" />
    <glyph glyph-name="plusminus" unicode="&#xb1;" horiz-adv-x="487" 
d="M304 421q-10 -60 -16 -109q61 1 115 3t73 3l4 -11l-17 -68l-184 -1q-7 -62 -12.5 -110.5t-7.5 -64.5l-68 -13l-9 7q2 16 9 66.5t15 114.5l-181 -1l-5 10l20 66l175 -1q10 84 16 126l8 58l68 9l10 -6zM419 -83l-298 -1q-59 -1 -132 -1l-5 11l18 60h226q86 0 126 2
q77 2 77 3l5 -12z" />
    <glyph glyph-name="uni00B2" unicode="&#xb2;" horiz-adv-x="328" 
d="M92 455q103 114 103 167q0 35 -40 35q-23 0 -47 -15t-45 -43h-10l-4 50q26 35 63 57t72 22q45 0 73.5 -22t28.5 -58q0 -40 -34.5 -91t-126.5 -146l2 -6h66q29 0 42.5 11.5t24.5 46.5l49 5q-4 -12 -15.5 -50t-17.5 -70l-10 -7q-24 1 -87 3t-120 2l-47 -6l-2 34z" />
    <glyph glyph-name="uni00B3" unicode="&#xb3;" horiz-adv-x="292" 
d="M79 403q39 0 65.5 18.5t26.5 46.5q0 24 -21 35.5t-64 11.5l-6 6v39l43 8q24 12 39 30t15 38q0 14 -9 23t-24 9q-16 0 -35.5 -7.5t-37.5 -20.5h-8l-7 44q23 15 57 29.5t62 14.5q39 0 63 -18.5t24 -49.5q0 -30 -22 -56t-58 -40l-1 -6q76 -23 76 -81q0 -33 -29.5 -65.5
t-75.5 -53t-92 -20.5q-23 0 -33 11t-10 37q0 11 1 17l9 9q24 -9 52 -9z" />
    <glyph glyph-name="acute" unicode="&#xb4;" horiz-adv-x="383" 
d="M292.5 607q-53.5 -39 -108.5 -85l-11 3l-25 27q48 49 96 102.5t62 69.5l11 -2l45 -53l-1 -12q-15 -11 -68.5 -50z" />
    <glyph glyph-name="uni00B5" unicode="&#xb5;" horiz-adv-x="526" 
d="M506 110q-24 -75 -81 -120q-44 0 -64.5 23.5t-20.5 74.5q0 10 2 38l3 33l-8 3q-37 -86 -72 -127t-70 -41q-16 8 -28 24t-23 45l-9 -4q-9 -98 -9 -210l1 -72q-35 -10 -98 -16l-15 11l88 422q-1 129 17 258l22 13h12l72 -27l-73 -276q13 -55 44 -55q32 0 74 54.5t82 146.5
q12 79 28 137l30 21q42 -20 72 -46q-52 -115 -87 -183l-7 -41q-4 -28 -4 -37q0 -62 47 -62q27 0 67 22z" />
    <glyph glyph-name="paragraph" unicode="&#xb6;" horiz-adv-x="543" 
d="M362 583.5q-4 2.5 -21 2.5q-51 0 -79 -53.5t-28 -142.5q0 -48 10.5 -86.5t32.5 -75.5l-3 -19q-96 6 -156.5 58.5t-60.5 145.5q0 63 30.5 116t84.5 83.5t122 30.5q30 0 80 -2q40 -2 51 -2q35 0 74.5 1.5t54.5 1.5l-12 -50l-2 -4q-40 0 -54.5 -9.5t-19.5 -36.5
q-15 -53 -56 -359l-3 -22q-15 -128 -69.5 -196t-161.5 -68q-51 0 -85.5 23t-34.5 64q0 23 15 53t35 52h16q-2 -20 -2 -28q0 -51 21 -78t57 -27q37 0 59 17t34 53.5t20 101.5l55 443q0 10 -4 12.5z" />
    <glyph glyph-name="periodcentered" unicode="&#xb7;" horiz-adv-x="229" 
d="M63 180.5q-14 15.5 -14 40.5q0 33 22 56t56 23q27 0 41.5 -15.5t14.5 -40.5q0 -34 -22 -56.5t-57 -22.5q-27 0 -41 15.5z" />
    <glyph glyph-name="cedilla" unicode="&#xb8;" horiz-adv-x="385" 
d="M194 26l-31 -73q4 -3 27 -19.5t36.5 -34.5t13.5 -35q0 -25 -20.5 -48t-52 -37t-62.5 -14q-25 0 -45.5 10t-20.5 27q0 16 38 62h8q-2 -27 10 -42t35 -15q19 0 33 10.5t14 26.5q0 15 -20 32t-54 39l45 111h46z" />
    <glyph glyph-name="uni00B9" unicode="&#xb9;" horiz-adv-x="247" 
d="M171.5 527q-13.5 -92 -13.5 -111q0 -16 5 -22.5t18 -6.5q11 0 19.5 1t11.5 1l1 -4l-12 -41q-10 0 -36 1t-54 1q-24 0 -56.5 -3t-42.5 -4l10 40q30 2 44.5 13t17.5 36l25 204l1 12q0 14 -6 19t-22 5q-10 0 -19.5 -1t-12.5 -2l-3 4l8 36l76 10l88 13l5 -18
q-13 -11 -20 -21.5t-11 -29.5q-8 -40 -21.5 -132z" />
    <glyph glyph-name="ordmasculine" unicode="&#xba;" horiz-adv-x="305" 
d="M54 368.5q-25 30.5 -25 84.5t21 98.5t57.5 70.5t81.5 26q44 0 68.5 -28t24.5 -79q0 -57 -21 -103.5t-57.5 -73t-81.5 -26.5q-43 0 -68 30.5zM187.5 422q14.5 33 14.5 91q0 80 -39 80q-25 0 -40.5 -33t-15.5 -86q0 -40 10.5 -62.5t29.5 -22.5q26 0 40.5 33z" />
    <glyph glyph-name="guillemotright" unicode="&#xbb;" horiz-adv-x="422" 
d="M191 77q4 7 15 21.5t25 33.5q68 92 71 98q-1 3 -35 67q-36 67 -40 76l3 12l33 19q7 -10 63.5 -77t77.5 -91l-2 -17q-27 -25 -100.5 -94t-82.5 -80l-28 19v13zM23 77q4 7 15 21.5t25 33.5q68 92 71 98q-1 3 -35 67q-36 67 -40 76l3 12l33 19q7 -10 63.5 -77t77.5 -91
l-2 -17q-27 -25 -100.5 -94t-82.5 -80l-28 19v13z" />
    <glyph glyph-name="onequarter" unicode="&#xbc;" horiz-adv-x="696" 
d="M171.5 446q-13.5 -92 -13.5 -111q0 -17 5 -23.5t18 -6.5q11 0 19.5 1t11.5 1l1 -3l-12 -42q-10 0 -36 1t-54 1q-24 0 -56.5 -3t-42.5 -4l10 40q30 2 44.5 13t17.5 37l25 204l1 12q0 14 -6 18.5t-22 4.5q-10 0 -19.5 -1t-12.5 -1l-3 3l8 37q31 2 76 10l88 12l5 -18
q-13 -11 -20 -21.5t-11 -28.5q-8 -40 -21.5 -132zM440.5 461.5q-89.5 -136.5 -145.5 -224.5q-71 -113 -130.5 -206.5t-79.5 -124.5l-49 22l-5 13q21 32 90.5 137.5t124.5 192.5l258 407l49 -21l6 -16q-29 -43 -118.5 -179.5zM577 381l5 1l52 -7l-25 -220h50l5 -7l-13 -52
l-49 2q-4 -29 -6 -56.5t-2 -35.5l-5 -6l-74 -7l-5 6q2 9 7.5 40.5t9.5 60.5l-149 3l7 41zM534 155l14 117h-7l-91 -117h84z" />
    <glyph glyph-name="onehalf" unicode="&#xbd;" horiz-adv-x="712" 
d="M171.5 446q-13.5 -92 -13.5 -111q0 -17 5 -23.5t18 -6.5q11 0 19.5 1t11.5 1l1 -3l-12 -42q-10 0 -36 1t-54 1q-24 0 -56.5 -3t-42.5 -4l10 40q30 2 44.5 13t17.5 37l25 204l1 12q0 14 -6 18.5t-22 4.5q-10 0 -19.5 -1t-12.5 -1l-3 3l8 37q31 2 76 10l88 12l5 -18
q-13 -11 -20 -21.5t-11 -28.5q-8 -40 -21.5 -132zM440.5 461.5q-89.5 -136.5 -145.5 -224.5q-71 -113 -130.5 -206.5t-79.5 -124.5l-49 22l-5 13q21 32 90.5 137.5t124.5 192.5l258 407l49 -21l6 -16q-29 -43 -118.5 -179.5zM464 109q50 55 76.5 98t26.5 69q0 35 -40 35
q-23 0 -47 -15t-45 -43h-10l-4 50q26 35 63 57t72 22q45 0 73.5 -22t28.5 -58q0 -40 -34.5 -91t-126.5 -147l2 -5h66q29 0 42.5 11.5t24.5 46.5l49 4q-4 -11 -15.5 -49t-17.5 -70l-10 -8q-24 1 -97 3.5t-110 2.5l-47 -6l-2 34z" />
    <glyph glyph-name="threequarters" unicode="&#xbe;" horiz-adv-x="741" 
d="M79 321q39 0 65.5 18.5t26.5 46.5q0 24 -21 35.5t-64 11.5l-6 6v39l43 9q24 11 39 29t15 38q0 14 -9 23t-24 9q-16 0 -35.5 -7.5t-37.5 -20.5h-8l-7 44q23 15 57 29.5t62 14.5q39 0 63 -18.5t24 -49.5q0 -29 -22 -55.5t-58 -40.5l-1 -6q76 -23 76 -81q0 -33 -29.5 -65.5
t-75.5 -53t-92 -20.5q-23 0 -33 11t-10 37q0 11 1 17l9 9q24 -9 52 -9zM485.5 461.5q-89.5 -136.5 -145.5 -224.5q-71 -113 -130.5 -206.5t-79.5 -124.5l-49 22l-5 13q21 32 90.5 137.5t124.5 192.5l258 407l49 -21l6 -16q-29 -43 -118.5 -179.5zM622 381l5 1l52 -7
l-25 -220h50l5 -7l-13 -52l-49 2q-4 -29 -6 -56.5t-2 -35.5l-5 -6l-74 -7l-5 6q2 9 7.5 40.5t9.5 60.5l-149 3l7 41zM579 155l14 117h-7l-91 -117h84z" />
    <glyph glyph-name="questiondown" unicode="&#xbf;" horiz-adv-x="351" 
d="M280.5 452.5q14.5 -15.5 14.5 -40.5q0 -33 -22 -56t-56 -23q-27 0 -41.5 15.5t-14.5 40.5q0 33 22 56t56 23q27 0 41.5 -15.5zM257 109l-118 -70q-30 -19 -47 -41t-17 -50q0 -49 45.5 -75t127.5 -31l3 -13l-41 -66l-15 -5q-60 2 -108.5 23t-76 56t-27.5 77q0 45 18 76.5
t46 54t80 55.5l40 26l4 8l-6 90l5 9l74 18l10 -5l8 -122z" />
    <glyph glyph-name="Agrave" unicode="&#xc0;" horiz-adv-x="577" 
d="M508 67.5q16 -14.5 54 -19.5l2 -4l-12 -47q-12 0 -44 1.5t-64 1.5q-48 0 -93.5 -3.5t-58.5 -5.5l-3 7l9 46q37 3 55 7.5t25 13.5t7 26q0 9 -1 18t-2 16l-15 98q-19 1 -94 1q-34 0 -101 -7l-42 -96q-12 -25 -12 -42t11 -24.5t36 -7.5h50l1 -4l-11 -49q-12 1 -54.5 3.5
t-81.5 2.5q-37 0 -68.5 -1t-41.5 -2l14 54q26 3 44 18.5t36 54.5l240 509l98 17l10 -2q0 -7 29.5 -203.5t54.5 -325.5q7 -37 23 -51.5zM277 277q28 0 83 5l-37 249h-10l-113 -254h77zM254 832l10 5q19 -10 76.5 -40t132.5 -67l-9 -33l-10 -7q-68 24 -132.5 44t-82.5 26
l-5 12z" />
    <glyph glyph-name="Aacute" unicode="&#xc1;" horiz-adv-x="577" 
d="M508 67.5q16 -14.5 54 -19.5l2 -4l-12 -47q-12 0 -44 1.5t-64 1.5q-48 0 -93.5 -3.5t-58.5 -5.5l-3 7l9 46q37 3 55 7.5t25 13.5t7 26q0 9 -1 18t-2 16l-15 98q-19 1 -94 1q-34 0 -101 -7l-42 -96q-12 -25 -12 -42t11 -24.5t36 -7.5h50l1 -4l-11 -49q-12 1 -54.5 3.5
t-81.5 2.5q-37 0 -68.5 -1t-41.5 -2l14 54q26 3 44 18.5t36 54.5l240 509l98 17l10 -2q0 -7 29.5 -203.5t54.5 -325.5q7 -37 23 -51.5zM277 277q28 0 83 5l-37 249h-10l-113 -254h77zM386 735q-65 -20 -133 -44l-10 7l-9 33q62 31 126 64t83 43l10 -5l20 -60l-4 -12
q-18 -6 -83 -26z" />
    <glyph glyph-name="Acircumflex" unicode="&#xc2;" horiz-adv-x="577" 
d="M508 67.5q16 -14.5 54 -19.5l2 -4l-12 -47q-12 0 -44 1.5t-64 1.5q-48 0 -93.5 -3.5t-58.5 -5.5l-3 7l9 46q37 3 55 7.5t25 13.5t7 26q0 9 -1 18t-2 16l-15 98q-19 1 -94 1q-34 0 -101 -7l-42 -96q-12 -25 -12 -42t11 -24.5t36 -7.5h50l1 -4l-11 -49q-12 1 -54.5 3.5
t-81.5 2.5q-37 0 -68.5 -1t-41.5 -2l14 54q26 3 44 18.5t36 54.5l240 509l98 17l10 -2q0 -7 29.5 -203.5t54.5 -325.5q7 -37 23 -51.5zM277 277q28 0 83 5l-37 249h-10l-113 -254h77zM290 803.5q51 38.5 73 54.5h16q1 1 85 -77l43 -39l-23 -30l-12 -2l-38 21q-68 40 -74 41
l-62 -30l-65 -32l-11 2l-15 30q32 23 83 61.5z" />
    <glyph glyph-name="Atilde" unicode="&#xc3;" horiz-adv-x="577" 
d="M508 67.5q16 -14.5 54 -19.5l2 -4l-12 -47q-12 0 -44 1.5t-64 1.5q-48 0 -93.5 -3.5t-58.5 -5.5l-3 7l9 46q37 3 55 7.5t25 13.5t7 26q0 9 -1 18t-2 16l-15 98q-19 1 -94 1q-34 0 -101 -7l-42 -96q-12 -25 -12 -42t11 -24.5t36 -7.5h50l1 -4l-11 -49q-12 1 -54.5 3.5
t-81.5 2.5q-37 0 -68.5 -1t-41.5 -2l14 54q26 3 44 18.5t36 54.5l240 509l98 17l10 -2q0 -7 29.5 -203.5t54.5 -325.5q7 -37 23 -51.5zM277 277q28 0 83 5l-37 249h-10l-113 -254h77zM184 722l1 7l85 86l15 4q19 0 75 -18q8 -2 31 -8.5t33 -6.5t25 10.5t27 22t15 15.5h8
l26 -28l-1 -7l-85 -86l-16 -4q-14 0 -40.5 7.5t-32.5 9.5q-52 16 -65 16q-10 0 -25 -10.5t-27 -22t-15 -15.5h-8z" />
    <glyph glyph-name="Adieresis" unicode="&#xc4;" horiz-adv-x="577" 
d="M508 67.5q16 -14.5 54 -19.5l2 -4l-12 -47q-12 0 -44 1.5t-64 1.5q-48 0 -93.5 -3.5t-58.5 -5.5l-3 7l9 46q37 3 55 7.5t25 13.5t7 26q0 9 -1 18t-2 16l-15 98q-19 1 -94 1q-34 0 -101 -7l-42 -96q-12 -25 -12 -42t11 -24.5t36 -7.5h50l1 -4l-11 -49q-12 1 -54.5 3.5
t-81.5 2.5q-37 0 -68.5 -1t-41.5 -2l14 54q26 3 44 18.5t36 54.5l240 509l98 17l10 -2q0 -7 29.5 -203.5t54.5 -325.5q7 -37 23 -51.5zM277 277q28 0 83 5l-37 249h-10l-113 -254h77zM230.5 729.5q-10.5 12.5 -10.5 31.5q0 27 18 45.5t45 18.5q20 0 31.5 -12.5t11.5 -31.5
q0 -26 -18.5 -45t-45.5 -19q-21 0 -31.5 12.5zM396 729.5q-11 12.5 -11 31.5q0 26 18.5 45t44.5 19q21 0 32 -12.5t11 -31.5q0 -26 -18.5 -45t-45.5 -19q-20 0 -31 12.5z" />
    <glyph glyph-name="Aring" unicode="&#xc5;" horiz-adv-x="577" 
d="M508 67.5q16 -14.5 54 -19.5l2 -4l-12 -47q-12 0 -44 1.5t-64 1.5q-48 0 -93.5 -3.5t-58.5 -5.5l-3 7l9 46q37 3 55 7.5t25 13.5t7 26q0 9 -1 18t-2 16l-15 98q-19 1 -94 1q-34 0 -101 -7l-42 -96q-12 -25 -12 -42t11 -24.5t36 -7.5h50l1 -4l-11 -49q-12 1 -54.5 3.5
t-81.5 2.5q-37 0 -68.5 -1t-41.5 -2l14 54q26 3 44 18.5t36 54.5l240 509l98 17l10 -2q0 -7 29.5 -203.5t54.5 -325.5q7 -37 23 -51.5zM277 277q28 0 83 5l-37 249h-10l-113 -254h77zM287 695.5q-18 19.5 -18 52.5q0 43 28 72t71 29q36 0 53 -20t17 -50q0 -42 -28 -72.5
t-72 -30.5q-33 0 -51 19.5zM396 764q0 18 -11 28.5t-31 10.5q-21 0 -33 -11.5t-12 -31.5t13 -30t28 -10q46 0 46 44z" />
    <glyph glyph-name="AE" unicode="&#xc6;" horiz-adv-x="806" 
d="M345 68q24 19 25 52l1 35l-1 110l-92 -9l-86 -11l-71 -123q-11 -19 -15 -28.5t-4 -18.5q0 -15 11 -20.5t39 -5.5l43 -2l-12 -53q-14 1 -61 3.5t-83 2.5q-22 0 -42 -1.5t-27 -2.5v45q6 1 27 25.5t43 58.5l273 444q-2 10 -7 14.5t-15 4.5t-19.5 -1t-12.5 -1l-4 6l15 50
q17 -1 69 -2t119 -1q219 0 298 12l4 -8q-2 -6 -8.5 -28.5t-16.5 -62.5t-18 -81l-65 -5q1 6 4.5 26t3.5 34q0 22 -10 32.5t-37.5 14t-86.5 3.5q-38 0 -50 -6.5t-12 -23.5l3 -210l107 11l92 16l6 -7l-20 -65l-86 -4l-98 -10l5 -151q1 -37 16.5 -52.5t51.5 -15.5q65 0 95 8
t45 31.5t30 79.5l61 6l4 -7q-5 -15 -20.5 -67t-27.5 -108l-7 -8q1 2 -109.5 4.5t-194.5 2.5q-47 0 -91.5 -3.5t-56.5 -5.5l-2 7l8 47q46 4 70 23zM370 324v204h-12l-127 -215l72 5z" />
    <glyph glyph-name="Ccedilla" unicode="&#xc7;" horiz-adv-x="598" 
d="M163 20.5q-59 32.5 -91 92.5t-32 141q0 115 47.5 205t132 140.5t191.5 50.5q36 0 76.5 -5t69.5 -10.5t37 -7.5l3 -9l-10 -30t-18.5 -62.5t-18.5 -81.5l-65 -5q1 7 5 28.5t4 33.5q0 78 -118 78q-66 0 -116 -36.5t-77.5 -104t-27.5 -159.5q0 -106 44 -166.5t122 -60.5
q60 0 100.5 36.5t65.5 115.5l65 5q-5 -16 -20 -70t-24 -101l-8 -10q0 -1 -29 -11.5t-73.5 -19.5t-96.5 -9q-79 0 -138 32.5zM340 26l-31 -73q4 -3 27 -19.5t36.5 -34.5t13.5 -35q0 -25 -20.5 -48t-52 -37t-62.5 -14q-25 0 -45.5 10t-20.5 27q0 16 38 62h8q-2 -27 10 -42
t35 -15q19 0 33 10.5t14 26.5q0 15 -20 32t-54 39l45 111h46z" />
    <glyph glyph-name="Egrave" unicode="&#xc8;" horiz-adv-x="572" 
d="M215 62.5q13 -6.5 52 -6.5q74 0 107 8t49 31.5t30 79.5l59 6l4 -7q-5 -15 -20.5 -66.5t-27.5 -107.5l-8 -7q-31 1 -130 4t-163 3q-49 0 -92.5 -4t-55.5 -6l13 53q43 6 60.5 24t22.5 61l51 407q2 18 2 24q0 17 -6.5 23.5t-23.5 6.5q-9 0 -18.5 -1t-12.5 -1l-3 5l13 49
q15 -1 57.5 -2t93.5 -1q198 0 291 12l4 -7q-2 -6 -8.5 -28.5t-16.5 -62t-18 -80.5l-63 -5q2 6 5.5 26.5t3.5 35.5q0 22 -10.5 32t-36.5 13t-84 3q-31 0 -42.5 -2t-16 -8.5t-7.5 -25.5l-28 -182l95 -1q21 0 61.5 4t53.5 6l5 -6l-22 -68q-13 1 -51 2t-80 1q-34 0 -74 -7
q-7 -55 -15 -100q-12 -75 -12 -96q0 -25 13 -31.5zM261 832l10 5q19 -10 76.5 -40t132.5 -67l-9 -33l-10 -7q-68 24 -132.5 44t-82.5 26l-5 12z" />
    <glyph glyph-name="Eacute" unicode="&#xc9;" horiz-adv-x="572" 
d="M215 62.5q13 -6.5 52 -6.5q74 0 107 8t49 31.5t30 79.5l59 6l4 -7q-5 -15 -20.5 -66.5t-27.5 -107.5l-8 -7q-31 1 -130 4t-163 3q-49 0 -92.5 -4t-55.5 -6l13 53q43 6 60.5 24t22.5 61l51 407q2 18 2 24q0 17 -6.5 23.5t-23.5 6.5q-9 0 -18.5 -1t-12.5 -1l-3 5l13 49
q15 -1 57.5 -2t93.5 -1q198 0 291 12l4 -7q-2 -6 -8.5 -28.5t-16.5 -62t-18 -80.5l-63 -5q2 6 5.5 26.5t3.5 35.5q0 22 -10.5 32t-36.5 13t-84 3q-31 0 -42.5 -2t-16 -8.5t-7.5 -25.5l-28 -182l95 -1q21 0 61.5 4t53.5 6l5 -6l-22 -68q-13 1 -51 2t-80 1q-34 0 -74 -7
q-7 -55 -15 -100q-12 -75 -12 -96q0 -25 13 -31.5zM393 735q-65 -20 -133 -44l-10 7l-9 33q62 31 126 64t83 43l10 -5l20 -60l-4 -12q-18 -6 -83 -26z" />
    <glyph glyph-name="Ecircumflex" unicode="&#xca;" horiz-adv-x="572" 
d="M215 62.5q13 -6.5 52 -6.5q74 0 107 8t49 31.5t30 79.5l59 6l4 -7q-5 -15 -20.5 -66.5t-27.5 -107.5l-8 -7q-31 1 -130 4t-163 3q-49 0 -92.5 -4t-55.5 -6l13 53q43 6 60.5 24t22.5 61l51 407q2 18 2 24q0 17 -6.5 23.5t-23.5 6.5q-9 0 -18.5 -1t-12.5 -1l-3 5l13 49
q15 -1 57.5 -2t93.5 -1q198 0 291 12l4 -7q-2 -6 -8.5 -28.5t-16.5 -62t-18 -80.5l-63 -5q2 6 5.5 26.5t3.5 35.5q0 22 -10.5 32t-36.5 13t-84 3q-31 0 -42.5 -2t-16 -8.5t-7.5 -25.5l-28 -182l95 -1q21 0 61.5 4t53.5 6l5 -6l-22 -68q-13 1 -51 2t-80 1q-34 0 -74 -7
q-7 -55 -15 -100q-12 -75 -12 -96q0 -25 13 -31.5zM297 803.5q51 38.5 73 54.5h16q1 1 85 -77l43 -39l-23 -30l-12 -2l-38 21q-68 40 -74 41l-62 -30l-65 -32l-11 2l-15 30q32 23 83 61.5z" />
    <glyph glyph-name="Edieresis" unicode="&#xcb;" horiz-adv-x="571" 
d="M215 62.5q13 -6.5 52 -6.5q74 0 107 8t49 31.5t30 79.5l59 6l4 -7q-5 -15 -20.5 -66.5t-27.5 -107.5l-8 -7q-31 1 -130 4t-163 3q-49 0 -92.5 -4t-55.5 -6l13 53q43 6 60.5 24t22.5 61l51 407q2 18 2 24q0 17 -6.5 23.5t-23.5 6.5q-9 0 -18.5 -1t-12.5 -1l-3 5l13 49
q15 -1 57.5 -2t93.5 -1q198 0 291 12l4 -7q-2 -6 -8.5 -28.5t-16.5 -62t-18 -80.5l-63 -5q2 6 5.5 26.5t3.5 35.5q0 22 -10.5 32t-36.5 13t-84 3q-31 0 -42.5 -2t-16 -8.5t-7.5 -25.5l-28 -182l95 -1q21 0 61.5 4t53.5 6l5 -6l-22 -68q-13 1 -51 2t-80 1q-34 0 -74 -7
q-7 -55 -15 -100q-12 -75 -12 -96q0 -25 13 -31.5zM237.5 729.5q-10.5 12.5 -10.5 31.5q0 27 18 45.5t45 18.5q20 0 31.5 -12.5t11.5 -31.5q0 -26 -18.5 -45t-45.5 -19q-21 0 -31.5 12.5zM403 729.5q-11 12.5 -11 31.5q0 26 18.5 45t44.5 19q21 0 32 -12.5t11 -31.5
q0 -26 -18.5 -45t-45.5 -19q-20 0 -31 12.5z" />
    <glyph glyph-name="Igrave" unicode="&#xcc;" horiz-adv-x="349" 
d="M223 257q-21 -136 -21 -164q0 -24 8 -33t27 -9q17 0 30 1t17 2l3 -5l-15 -52q-14 1 -53.5 2t-79.5 1q-32 0 -71 -4.5t-51 -6.5l14 52q45 9 62.5 26.5t21.5 59.5l51 408q2 18 2 22q0 18 -7 25t-24 7q-11 0 -22.5 -1t-15.5 -1q0 1 -1 2.5t-1 2.5l13 49l24 -1q54 -2 98 -2
q27 0 68 3.5t54 5.5l-12 -52q-39 -5 -53.5 -16t-19.5 -40q-25 -146 -46 -282zM148 832l10 5q19 -10 76.5 -40t132.5 -67l-9 -33l-10 -7q-68 24 -132.5 44t-82.5 26l-5 12z" />
    <glyph glyph-name="Iacute" unicode="&#xcd;" horiz-adv-x="349" 
d="M223 257q-21 -136 -21 -164q0 -24 8 -33t27 -9q17 0 30 1t17 2l3 -5l-15 -52q-14 1 -53.5 2t-79.5 1q-32 0 -71 -4.5t-51 -6.5l14 52q45 9 62.5 26.5t21.5 59.5l51 408q2 18 2 22q0 18 -7 25t-24 7q-11 0 -22.5 -1t-15.5 -1q0 1 -1 2.5t-1 2.5l13 49l24 -1q54 -2 98 -2
q27 0 68 3.5t54 5.5l-12 -52q-39 -5 -53.5 -16t-19.5 -40q-25 -146 -46 -282zM280 735q-65 -20 -133 -44l-10 7l-9 33q62 31 126 64t83 43l10 -5l20 -60l-4 -12q-18 -6 -83 -26z" />
    <glyph glyph-name="Icircumflex" unicode="&#xce;" horiz-adv-x="349" 
d="M223 257q-21 -136 -21 -164q0 -24 8 -33t27 -9q17 0 30 1t17 2l3 -5l-15 -52q-14 1 -53.5 2t-79.5 1q-32 0 -71 -4.5t-51 -6.5l14 52q45 9 62.5 26.5t21.5 59.5l51 408q2 18 2 22q0 18 -7 25t-24 7q-11 0 -22.5 -1t-15.5 -1q0 1 -1 2.5t-1 2.5l13 49l24 -1q54 -2 98 -2
q27 0 68 3.5t54 5.5l-12 -52q-39 -5 -53.5 -16t-19.5 -40q-25 -146 -46 -282zM183 803.5q51 38.5 73 54.5h16q1 1 85 -77l43 -39l-23 -30l-12 -2l-38 21q-68 40 -74 41l-62 -30l-65 -32l-11 2l-15 30q32 23 83 61.5z" />
    <glyph glyph-name="Eth" unicode="&#xd0;" horiz-adv-x="683" 
d="M529.5 610.5q65.5 -32.5 101.5 -91.5t36 -138q0 -107 -49.5 -197.5t-134 -143t-186.5 -52.5q-16 2 -66 7t-82 5q-31 0 -68.5 -4.5t-49.5 -6.5l13 53q44 8 61.5 25.5t22.5 59.5l21 169h-124l-7 8l14 43h123l23 187l2 24q0 17 -6.5 23.5t-21.5 6.5q-10 0 -20 -1t-13 -1
l-3 6l13 49q12 -1 44.5 -2t65.5 -1q28 0 75.5 2t63.5 3q86 0 151.5 -32.5zM440.5 90q53.5 39 83 110t29.5 164q0 107 -59.5 162.5t-174.5 55.5q-18 0 -24.5 -4.5t-8.5 -18.5q-1 -5 -26 -162l-8 -50l142 1l5 -8l-12 -43h-144q-25 -162 -25 -182q0 -38 20.5 -51t76.5 -13
q72 0 125.5 39z" />
    <glyph glyph-name="Ntilde" unicode="&#xd1;" horiz-adv-x="695" 
d="M564 545q4 43 -27 43l-35 -1l-2 5l14 50q11 -1 41.5 -2.5t62.5 -1.5q27 0 60 3.5t43 4.5l-11 -53q-33 -5 -50.5 -19.5t-21.5 -43.5l-80 -552l-59 -14q-61 127 -119.5 242t-96.5 186t-48 89h-6l-52 -389q-1 -5 -1 -14q0 -15 6.5 -21t21.5 -6l45 1l3 -5l-15 -51
q-11 1 -43 2.5t-67 1.5q-28 0 -60 -3.5t-42 -4.5l13 52q30 4 46 18.5t20 44.5l64 425q1 5 1 14q0 22 -16.5 32t-58.5 15l-3 7l12 43q10 -1 41 -3t53 -2q23 0 45.5 1.5t29.5 2.5q52 -108 105.5 -212t89 -171t45.5 -85h6zM244 722l1 7l85 86l15 4q19 0 75 -18q8 -2 31 -8.5
t33 -6.5t25 10.5t27 22t15 15.5h8l26 -28l-1 -7l-85 -86l-16 -4q-14 0 -40.5 7.5t-32.5 9.5q-52 16 -65 16q-10 0 -25 -10.5t-27 -22t-15 -15.5h-8z" />
    <glyph glyph-name="Ograve" unicode="&#xd2;" horiz-adv-x="657" 
d="M161.5 21.5q-57.5 33.5 -89.5 94t-32 138.5q0 112 44.5 202.5t123 142t176.5 51.5q75 0 134 -33.5t92 -93.5t33 -138q0 -112 -45.5 -202.5t-125.5 -142.5t-179 -52q-74 0 -131.5 33.5zM423 89q49 38 76.5 107t27.5 159q0 103 -44.5 163.5t-119.5 60.5q-61 0 -109.5 -38.5
t-75.5 -107.5t-27 -158q0 -103 43.5 -163.5t116.5 -60.5q63 0 112 38zM295 832l10 5q19 -10 76.5 -40t132.5 -67l-9 -33l-10 -7q-68 24 -132.5 44t-82.5 26l-5 12z" />
    <glyph glyph-name="Oacute" unicode="&#xd3;" horiz-adv-x="657" 
d="M161.5 21.5q-57.5 33.5 -89.5 94t-32 138.5q0 112 44.5 202.5t123 142t176.5 51.5q75 0 134 -33.5t92 -93.5t33 -138q0 -112 -45.5 -202.5t-125.5 -142.5t-179 -52q-74 0 -131.5 33.5zM423 89q49 38 76.5 107t27.5 159q0 103 -44.5 163.5t-119.5 60.5q-61 0 -109.5 -38.5
t-75.5 -107.5t-27 -158q0 -103 43.5 -163.5t116.5 -60.5q63 0 112 38zM427 735q-65 -20 -133 -44l-10 7l-9 33q62 31 126 64t83 43l10 -5l20 -60l-4 -12q-18 -6 -83 -26z" />
    <glyph glyph-name="Ocircumflex" unicode="&#xd4;" horiz-adv-x="657" 
d="M161.5 21.5q-57.5 33.5 -89.5 94t-32 138.5q0 112 44.5 202.5t123 142t176.5 51.5q75 0 134 -33.5t92 -93.5t33 -138q0 -112 -45.5 -202.5t-125.5 -142.5t-179 -52q-74 0 -131.5 33.5zM423 89q49 38 76.5 107t27.5 159q0 103 -44.5 163.5t-119.5 60.5q-61 0 -109.5 -38.5
t-75.5 -107.5t-27 -158q0 -103 43.5 -163.5t116.5 -60.5q63 0 112 38zM331 803.5q51 38.5 73 54.5h16q1 1 85 -77l43 -39l-23 -30l-12 -2l-38 21q-68 40 -74 41l-62 -30l-65 -32l-11 2l-15 30q32 23 83 61.5z" />
    <glyph glyph-name="Otilde" unicode="&#xd5;" horiz-adv-x="657" 
d="M161.5 21.5q-57.5 33.5 -89.5 94t-32 138.5q0 112 44.5 202.5t123 142t176.5 51.5q75 0 134 -33.5t92 -93.5t33 -138q0 -112 -45.5 -202.5t-125.5 -142.5t-179 -52q-74 0 -131.5 33.5zM423 89q49 38 76.5 107t27.5 159q0 103 -44.5 163.5t-119.5 60.5q-61 0 -109.5 -38.5
t-75.5 -107.5t-27 -158q0 -103 43.5 -163.5t116.5 -60.5q63 0 112 38zM225 722l1 7l85 86l15 4q19 0 75 -18q8 -2 31 -8.5t33 -6.5t25 10.5t27 22t15 15.5h8l26 -28l-1 -7l-85 -86l-16 -4q-14 0 -40.5 7.5t-32.5 9.5q-52 16 -65 16q-10 0 -25 -10.5t-27 -22t-15 -15.5h-8z
" />
    <glyph glyph-name="multiply" unicode="&#xd7;" horiz-adv-x="487" 
d="M445 393l-146 -137q30 -35 67.5 -76t49.5 -53l-6 -13l-59 -42l-111 132q-50 -47 -90 -84.5t-53 -50.5l-11 3l-31 55l140 128q-40 47 -72.5 86t-43.5 52l3 12l61 37q10 -13 41 -50.5t70 -83.5q48 46 89.5 87t55.5 55l11 -3z" />
    <glyph glyph-name="Oslash" unicode="&#xd8;" horiz-adv-x="657" 
d="M612.5 519q30.5 -59 30.5 -134q0 -112 -45.5 -202.5t-125.5 -142.5t-179 -52q-55 0 -100 18l-62 -108l-40 16l-3 10l61 106q-52 34 -80.5 92.5t-28.5 131.5q0 112 44.5 202.5t123 142t176.5 51.5q50 0 96 -16l45 83l43 -17l3 -12l-44 -77q55 -33 85.5 -92zM253.5 540.5
q-48.5 -38.5 -75.5 -107.5t-27 -158q0 -102 43 -163l245 447q-34 20 -76 20q-61 0 -109.5 -38.5zM423 89q49 38 76.5 107t27.5 159q0 107 -49 169l-246 -450q34 -23 79 -23q63 0 112 38z" />
    <glyph glyph-name="Ugrave" unicode="&#xd9;" horiz-adv-x="643" 
d="M190 200q0 -70 31.5 -107t92.5 -37q71 0 112.5 39.5t50.5 117.5q6 42 18.5 161.5t16.5 160.5q1 8 1 21q0 20 -6 26.5t-22 6.5q-11 0 -22.5 -1t-15.5 -1l-1 4l13 50q12 0 44.5 -1.5t64.5 -1.5q28 0 61 3.5t43 5.5l-12 -53q-28 -4 -41.5 -9.5t-19 -15t-8.5 -29.5l-40 -328
q-13 -108 -82.5 -166t-184.5 -58q-95 0 -144.5 45.5t-49.5 131.5q0 21 3 43l41 327q2 18 2 24q0 17 -6.5 23.5t-23.5 6.5q-10 0 -19.5 -1t-12.5 -1l-2 4l14 50q12 -1 47 -2t73 -1q25 0 60.5 3.5t46.5 5.5l-11 -53q-34 -4 -47.5 -16t-18.5 -39l-43 -293q-3 -25 -3 -46z
M289 832l10 5q19 -10 76.5 -40t132.5 -67l-9 -33l-10 -7q-68 24 -132.5 44t-82.5 26l-5 12z" />
    <glyph glyph-name="Uacute" unicode="&#xda;" horiz-adv-x="643" 
d="M190 200q0 -70 31.5 -107t92.5 -37q71 0 112.5 39.5t50.5 117.5q6 42 18.5 161.5t16.5 160.5q1 8 1 21q0 20 -6 26.5t-22 6.5q-11 0 -22.5 -1t-15.5 -1l-1 4l13 50q12 0 44.5 -1.5t64.5 -1.5q28 0 61 3.5t43 5.5l-12 -53q-28 -4 -41.5 -9.5t-19 -15t-8.5 -29.5l-40 -328
q-13 -108 -82.5 -166t-184.5 -58q-95 0 -144.5 45.5t-49.5 131.5q0 21 3 43l41 327q2 18 2 24q0 17 -6.5 23.5t-23.5 6.5q-10 0 -19.5 -1t-12.5 -1l-2 4l14 50q12 -1 47 -2t73 -1q25 0 60.5 3.5t46.5 5.5l-11 -53q-34 -4 -47.5 -16t-18.5 -39l-43 -293q-3 -25 -3 -46z
M421 735q-65 -20 -133 -44l-10 7l-9 33q62 31 126 64t83 43l10 -5l20 -60l-4 -12q-18 -6 -83 -26z" />
    <glyph glyph-name="Ucircumflex" unicode="&#xdb;" horiz-adv-x="645" 
d="M190 200q0 -70 31.5 -107t92.5 -37q71 0 112.5 39.5t50.5 117.5q6 42 18.5 161.5t16.5 160.5q1 8 1 21q0 20 -6 26.5t-22 6.5q-11 0 -22.5 -1t-15.5 -1l-1 4l13 50q12 0 44.5 -1.5t64.5 -1.5q28 0 61 3.5t43 5.5l-12 -53q-28 -4 -41.5 -9.5t-19 -15t-8.5 -29.5l-40 -328
q-13 -108 -82.5 -166t-184.5 -58q-95 0 -144.5 45.5t-49.5 131.5q0 21 3 43l41 327q2 18 2 24q0 17 -6.5 23.5t-23.5 6.5q-10 0 -19.5 -1t-12.5 -1l-2 4l14 50q12 -1 47 -2t73 -1q25 0 60.5 3.5t46.5 5.5l-11 -53q-34 -4 -47.5 -16t-18.5 -39l-43 -293q-3 -25 -3 -46z
M327 803.5q51 38.5 73 54.5h16q1 1 85 -77l43 -39l-23 -30l-12 -2l-38 21q-68 40 -74 41l-62 -30l-65 -32l-11 2l-15 30q32 23 83 61.5z" />
    <glyph glyph-name="Udieresis" unicode="&#xdc;" horiz-adv-x="645" 
d="M190 200q0 -70 31.5 -107t92.5 -37q71 0 112.5 39.5t50.5 117.5q6 42 18.5 161.5t16.5 160.5q1 8 1 21q0 20 -6 26.5t-22 6.5q-11 0 -22.5 -1t-15.5 -1l-1 4l13 50q12 0 44.5 -1.5t64.5 -1.5q28 0 61 3.5t43 5.5l-12 -53q-28 -4 -41.5 -9.5t-19 -15t-8.5 -29.5l-40 -328
q-13 -108 -82.5 -166t-184.5 -58q-95 0 -144.5 45.5t-49.5 131.5q0 21 3 43l41 327q2 18 2 24q0 17 -6.5 23.5t-23.5 6.5q-10 0 -19.5 -1t-12.5 -1l-2 4l14 50q12 -1 47 -2t73 -1q25 0 60.5 3.5t46.5 5.5l-11 -53q-34 -4 -47.5 -16t-18.5 -39l-43 -293q-3 -25 -3 -46z
M267.5 729.5q-10.5 12.5 -10.5 31.5q0 27 18 45.5t45 18.5q20 0 31.5 -12.5t11.5 -31.5q0 -26 -18.5 -45t-45.5 -19q-21 0 -31.5 12.5zM433 729.5q-11 12.5 -11 31.5q0 26 18.5 45t44.5 19q21 0 32 -12.5t11 -31.5q0 -26 -18.5 -45t-45.5 -19q-20 0 -31 12.5z" />
    <glyph glyph-name="Thorn" unicode="&#xde;" horiz-adv-x="536" 
d="M342 509q95 0 144 -37.5t49 -109.5q0 -58 -35.5 -107t-94.5 -77.5t-126 -28.5h-68l-4 -36q-2 -20 -2 -25q0 -20 7.5 -27.5t27.5 -7.5q18 0 31.5 1t17.5 2l2 -6l-15 -53q-15 0 -55.5 1.5t-80.5 1.5q-33 0 -72.5 -4.5t-51.5 -6.5l13 54q45 9 62 26t22 59l50 406q2 18 2 23
q0 17 -7 23.5t-24 6.5q-11 0 -21.5 -1t-14.5 -1l-4 6l14 50q15 0 29 -1l95 -1q27 0 69 3.5t55 4.5l-11 -54q-39 -5 -53 -15.5t-19 -36.5l-7 -32h76zM234 309l-13 -88q16 -6 42.5 -10.5t44.5 -5.5q58 8 87 43.5t29 95.5q0 53 -35 78t-110 25q-14 0 -19 -2t-6 -9
q-7 -49 -20 -127z" />
    <glyph glyph-name="germandbls" unicode="&#xdf;" horiz-adv-x="574" 
d="M398 351.5q18 -18.5 56 -44.5q50 -33 78 -64t28 -78q0 -48 -26.5 -88.5t-71 -64.5t-96.5 -24q-49 0 -85.5 16.5t-36.5 38.5q3 18 19.5 49.5t32.5 47.5l16 -1q-1 -5 -1 -15q0 -36 20 -56.5t56 -20.5q28 0 51.5 25t23.5 56q0 28 -19.5 48.5t-59.5 47.5q-33 24 -52 40.5
t-33 40.5t-14 55q0 38 20 66t59 63q33 31 49 52.5t16 47.5q0 37 -30 59.5t-83 22.5q-86 0 -99 -108l-70 -624q-9 -80 -57 -130.5t-115 -50.5q-35 0 -63.5 14t-35.5 35q5 19 18 48.5t23 45.5h15q0 -39 19 -60.5t52 -21.5q23 0 41 16t25 44q8 92 10 122l4 46l27 344l-8 6
l-70 3l-3 5l5 36l81 12l8 74q7 60 40.5 109t84.5 77.5t108 28.5q47 0 85 -15.5t60 -42.5t22 -61q0 -44 -21 -74t-61 -66q-31 -28 -45.5 -47t-14.5 -43q0 -23 18 -41.5zM72 -102l-2 -12q2 8 2 12z" />
    <glyph glyph-name="agrave" unicode="&#xe0;" horiz-adv-x="474" 
d="M375.5 88.5q12.5 9.5 54.5 45.5l14 -1l15 -29q-70 -69 -102.5 -92.5t-55.5 -23.5q-17 0 -26.5 8.5t-9.5 22.5q0 24 40 193l-7 1q-47 -86 -89 -139.5t-87 -85.5q-44 0 -69.5 37t-25.5 102q0 80 34.5 158t89 127.5t110.5 49.5l95 -16l8 24l8 3l51 -15l8 -14
q-23 -84 -45 -185t-33 -176l3 -4q7 0 19.5 9.5zM194 123.5q30 39.5 66 105t66 138.5q-22 13 -48.5 22t-44.5 9q-29 0 -55 -31t-42 -82t-16 -106q0 -41 8 -68t20 -27q16 0 46 39.5zM213 724l11 1q14 -16 62 -69t96 -102l-25 -27l-11 -3q-55 46 -108.5 84.5t-68.5 49.5l-1 13z
" />
    <glyph glyph-name="aacute" unicode="&#xe1;" horiz-adv-x="484" 
d="M385.5 88.5q12.5 9.5 54.5 45.5l14 -1l15 -29q-70 -69 -102.5 -92.5t-55.5 -23.5q-17 0 -26.5 8.5t-9.5 22.5q0 24 40 193l-7 1q-47 -86 -89 -139.5t-87 -85.5q-44 0 -69.5 37t-25.5 102q0 80 34.5 158t89 127.5t110.5 49.5l95 -16l8 24l8 3l51 -15l8 -14
q-23 -84 -45 -185t-33 -176l3 -4q7 0 19.5 9.5zM204 123.5q30 39.5 66 105t66 138.5q-22 13 -48.5 22t-44.5 9q-29 0 -55 -31t-42 -82t-16 -106q0 -41 8 -68t20 -27q16 0 46 39.5zM333.5 625q-53.5 -39 -108.5 -85l-11 3l-25 27q48 49 96 102.5t62 69.5l11 -2l45 -53l-1 -12
q-15 -11 -68.5 -50z" />
    <glyph glyph-name="acircumflex" unicode="&#xe2;" horiz-adv-x="474" 
d="M375.5 88.5q12.5 9.5 54.5 45.5l14 -1l15 -29q-70 -69 -102.5 -92.5t-55.5 -23.5q-17 0 -26.5 8.5t-9.5 22.5q0 24 40 193l-7 1q-47 -86 -89 -139.5t-87 -85.5q-44 0 -69.5 37t-25.5 102q0 80 34.5 158t89 127.5t110.5 49.5l95 -16l8 24l8 3l51 -15l8 -14
q-23 -84 -45 -185t-33 -176l3 -4q7 0 19.5 9.5zM194 123.5q30 39.5 66 105t66 138.5q-22 13 -48.5 22t-44.5 9q-29 0 -55 -31t-42 -82t-16 -106q0 -41 8 -68t20 -27q16 0 46 39.5zM217.5 633q62.5 61 84.5 83h17q17 -22 64.5 -83t55.5 -70l-24 -30l-12 -2l-50 43
q-47 44 -54 48l-56 -41l-70 -50l-12 2l-17 30q11 9 73.5 70z" />
    <glyph glyph-name="atilde" unicode="&#xe3;" horiz-adv-x="474" 
d="M375.5 88.5q12.5 9.5 54.5 45.5l14 -1l15 -29q-70 -69 -102.5 -92.5t-55.5 -23.5q-17 0 -26.5 8.5t-9.5 22.5q0 24 40 193l-7 1q-47 -86 -89 -139.5t-87 -85.5q-44 0 -69.5 37t-25.5 102q0 80 34.5 158t89 127.5t110.5 49.5l95 -16l8 24l8 3l51 -15l8 -14
q-23 -84 -45 -185t-33 -176l3 -4q7 0 19.5 9.5zM194 123.5q30 39.5 66 105t66 138.5q-22 13 -48.5 22t-44.5 9q-29 0 -55 -31t-42 -82t-16 -106q0 -41 8 -68t20 -27q16 0 46 39.5zM142 575l1 8l86 94l16 4q18 0 74 -18q8 -2 31 -8.5t33 -6.5t25 12t27.5 25.5t15.5 17.5h8
l27 -27l-1 -8l-86 -94l-16 -4q-19 0 -75 18q-49 15 -63 15q-10 0 -25 -12t-27.5 -25.5t-15.5 -17.5h-9z" />
    <glyph glyph-name="adieresis" unicode="&#xe4;" horiz-adv-x="474" 
d="M375.5 88.5q12.5 9.5 54.5 45.5l14 -1l15 -29q-70 -69 -102.5 -92.5t-55.5 -23.5q-17 0 -26.5 8.5t-9.5 22.5q0 24 40 193l-7 1q-47 -86 -89 -139.5t-87 -85.5q-44 0 -69.5 37t-25.5 102q0 80 34.5 158t89 127.5t110.5 49.5l95 -16l8 24l8 3l51 -15l8 -14
q-23 -84 -45 -185t-33 -176l3 -4q7 0 19.5 9.5zM194 123.5q30 39.5 66 105t66 138.5q-22 13 -48.5 22t-44.5 9q-29 0 -55 -31t-42 -82t-16 -106q0 -41 8 -68t20 -27q16 0 46 39.5zM169.5 578.5q-13.5 13.5 -13.5 35.5q0 25 16.5 41.5t42.5 16.5q21 0 33.5 -13.5t12.5 -35.5
q0 -25 -16.5 -41.5t-41.5 -16.5q-20 0 -33.5 13.5zM335 578.5q-13 13.5 -13 35.5q0 26 16 42t42 16q22 0 34 -13t12 -36q0 -25 -16 -41.5t-41 -16.5q-21 0 -34 13.5z" />
    <glyph glyph-name="aring" unicode="&#xe5;" horiz-adv-x="474" 
d="M375.5 88.5q12.5 9.5 54.5 45.5l14 -1l15 -29q-70 -69 -102.5 -92.5t-55.5 -23.5q-17 0 -26.5 8.5t-9.5 22.5q0 24 40 193l-7 1q-47 -86 -89 -139.5t-87 -85.5q-44 0 -69.5 37t-25.5 102q0 80 34.5 158t89 127.5t110.5 49.5l95 -16l8 24l8 3l51 -15l8 -14
q-23 -84 -45 -185t-33 -176l3 -4q7 0 19.5 9.5zM194 123.5q30 39.5 66 105t66 138.5q-22 13 -48.5 22t-44.5 9q-29 0 -55 -31t-42 -82t-16 -106q0 -41 8 -68t20 -27q16 0 46 39.5zM254 565.5q-18 19.5 -18 52.5q0 43 28 72t71 29q36 0 53.5 -20t17.5 -50q0 -42 -28 -72.5
t-72 -30.5q-34 0 -52 19.5zM350 599q14 9 14 35q0 18 -11 28.5t-31 10.5q-21 0 -33 -11.5t-12 -31.5t13 -30t28 -10q18 0 32 9z" />
    <glyph glyph-name="ae" unicode="&#xe6;" horiz-adv-x="607" 
d="M541 145l23 -31q-29 -55 -78 -90.5t-97 -35.5q-57 0 -90.5 44.5t-34.5 121.5q-71 -116 -142 -166q-45 0 -70 37t-25 103q0 80 34.5 157.5t89 127t110.5 49.5l155 -19q42 25 86 25q43 0 67 -22.5t24 -62.5q0 -64 -55.5 -109t-185.5 -87q-2 -56 16 -89.5t51 -33.5
q29 0 57.5 22t49.5 61zM224.5 171q53.5 87 101.5 206q-24 10 -50 15.5t-45 5.5q-27 0 -53 -31.5t-42 -82t-16 -104.5q0 -40 7.5 -68t18.5 -28q25 0 78.5 87zM469 397q-37 0 -70 -46.5t-43 -113.5q79 25 114.5 53t35.5 66q0 41 -37 41z" />
    <glyph glyph-name="ccedilla" unicode="&#xe7;" horiz-adv-x="354" 
d="M179.5 367q-26.5 -30 -42.5 -78.5t-16 -100.5q0 -58 17.5 -91.5t47.5 -33.5q28 0 56 23.5t46 61.5l15 -2l23 -31q-28 -55 -76.5 -91t-94.5 -36q-58 0 -91.5 45t-33.5 123t33.5 150.5t88.5 117t115 44.5q26 0 50 -6t40 -16l4 -12l-37 -80l-20 -2q-30 45 -70 45
q-28 0 -54.5 -30zM214 26l-31 -73q4 -3 27 -19.5t36.5 -34.5t13.5 -35q0 -25 -20.5 -48t-52 -37t-62.5 -14q-25 0 -45.5 10t-20.5 27q0 16 38 62h8q-2 -27 10 -42t35 -15q19 0 33 10.5t14 26.5q0 15 -20 32t-54 39l45 111h46z" />
    <glyph glyph-name="egrave" unicode="&#xe8;" horiz-adv-x="373" 
d="M304 274q-55 -45 -185 -87q-2 -56 16 -89.5t51 -33.5q29 0 57.5 22t48.5 61l15 -2l23 -31q-28 -55 -77 -90.5t-97 -35.5q-58 0 -92 45.5t-34 123.5q0 77 34.5 149t89.5 117t114 45q43 0 67 -22.5t24 -62.5q0 -64 -55 -109zM165 350.5q-33 -46.5 -43 -113.5
q79 25 114.5 53t35.5 66q0 41 -37 41t-70 -46.5zM185 706l11 1q14 -16 62 -69t96 -102l-25 -27l-11 -3q-55 46 -108.5 84.5t-68.5 49.5l-1 13z" />
    <glyph glyph-name="eacute" unicode="&#xe9;" horiz-adv-x="373" 
d="M304 274q-55 -45 -185 -87q-2 -56 16 -89.5t51 -33.5q29 0 57.5 22t48.5 61l15 -2l23 -31q-28 -55 -77 -90.5t-97 -35.5q-58 0 -92 45.5t-34 123.5q0 77 34.5 149t89.5 117t114 45q43 0 67 -22.5t24 -62.5q0 -64 -55 -109zM165 350.5q-33 -46.5 -43 -113.5
q79 25 114.5 53t35.5 66q0 41 -37 41t-70 -46.5zM296.5 607q-53.5 -39 -108.5 -85l-11 3l-25 27q48 49 96 102.5t62 69.5l11 -2l45 -53l-1 -12q-15 -11 -68.5 -50z" />
    <glyph glyph-name="ecircumflex" unicode="&#xea;" horiz-adv-x="346" 
d="M304 274q-55 -45 -185 -87q-2 -56 16 -89.5t51 -33.5q29 0 57.5 22t48.5 61l15 -2l23 -31q-28 -55 -77 -90.5t-97 -35.5q-58 0 -92 45.5t-34 123.5q0 77 34.5 149t89.5 117t114 45q43 0 67 -22.5t24 -62.5q0 -64 -55 -109zM165 350.5q-33 -46.5 -43 -113.5
q79 25 114.5 53t35.5 66q0 41 -37 41t-70 -46.5zM189.5 615q62.5 61 84.5 83h17q17 -22 64.5 -83t55.5 -70l-24 -30l-12 -2l-50 43q-47 44 -54 48l-56 -41l-70 -50l-12 2l-17 30q11 9 73.5 70z" />
    <glyph glyph-name="edieresis" unicode="&#xeb;" horiz-adv-x="373" 
d="M304 274q-55 -45 -185 -87q-2 -56 16 -89.5t51 -33.5q29 0 57.5 22t48.5 61l15 -2l23 -31q-28 -55 -77 -90.5t-97 -35.5q-58 0 -92 45.5t-34 123.5q0 77 34.5 149t89.5 117t114 45q43 0 67 -22.5t24 -62.5q0 -64 -55 -109zM165 350.5q-33 -46.5 -43 -113.5
q79 25 114.5 53t35.5 66q0 41 -37 41t-70 -46.5zM141.5 560.5q-13.5 13.5 -13.5 35.5q0 25 16.5 41.5t42.5 16.5q21 0 33.5 -13.5t12.5 -35.5q0 -25 -16.5 -41.5t-41.5 -16.5q-20 0 -33.5 13.5zM307 560.5q-13 13.5 -13 35.5q0 26 16 42t42 16q22 0 34 -13t12 -36
q0 -25 -16 -41.5t-41 -16.5q-21 0 -34 13.5z" />
    <glyph glyph-name="igrave" unicode="&#xec;" horiz-adv-x="315" 
d="M135 722l11 1q14 -16 62 -69t96 -102l-25 -27l-11 -3q-55 46 -108.5 84.5t-68.5 49.5l-1 13zM212.5 88.5q12.5 9.5 53.5 45.5l14 -1l15 -29q-58 -60 -95 -88t-59 -28q-19 0 -28 10t-9 31q21 128 35 223t14 110q0 22 -9 31t-31 9h-38l8 47q79 0 174 7l10 -13
q-23 -77 -45 -179t-33 -181l4 -4q7 0 19.5 9.5z" />
    <glyph glyph-name="iacute" unicode="&#xed;" horiz-adv-x="272" 
d="M169.5 88.5q12.5 9.5 53.5 45.5l14 -1l15 -29q-58 -60 -95 -88t-59 -28q-19 0 -28 10t-9 31q21 128 35 223t14 110q0 22 -9 31t-31 9h-38l8 47q79 0 174 7l10 -13q-23 -77 -45 -179t-33 -181l4 -4q7 0 19.5 9.5zM211.5 606q-53.5 -39 -108.5 -85l-11 3l-25 27
q48 49 96 102.5t62 69.5l11 -2l45 -53l-1 -12q-15 -11 -68.5 -50z" />
    <glyph glyph-name="icircumflex" unicode="&#xee;" horiz-adv-x="272" 
d="M169.5 88.5q12.5 9.5 53.5 45.5l14 -1l15 -29q-58 -60 -95 -88t-59 -28q-19 0 -28 10t-9 31q21 128 35 223t14 110q0 22 -9 31t-31 9h-38l8 47q79 0 174 7l10 -13q-23 -77 -45 -179t-33 -181l4 -4q7 0 19.5 9.5zM105.5 614q62.5 61 84.5 83h17q17 -22 64.5 -83t55.5 -70
l-24 -30l-12 -2l-50 43q-47 44 -54 48l-56 -41l-70 -50l-12 2l-17 30q11 9 73.5 70z" />
    <glyph glyph-name="eth" unicode="&#xf0;" horiz-adv-x="432" 
d="M285 599q52 -60 81.5 -137t29.5 -154q0 -87 -31.5 -160.5t-86 -116.5t-119.5 -43q-57 0 -91 46t-34 123q0 82 32 152t86 111.5t117 41.5q-20 54 -58 101l-130 -64l-7 3l-6 43l105 54q-48 54 -119 95l27 42l12 5q83 -42 154 -107l137 68l7 -5l6 -42zM272 110q28 57 28 148
q0 64 -19 99t-53 35q-29 0 -52 -25t-36 -69t-13 -100q0 -66 20 -105.5t52 -39.5q45 0 73 57z" />
    <glyph glyph-name="ntilde" unicode="&#xf1;" horiz-adv-x="506" 
d="M479 104q-59 -60 -95.5 -87.5t-58.5 -27.5q-38 0 -38 35q0 19 9 52.5t26 89.5q18 58 28 96.5t10 59.5q0 17 -8.5 28t-21.5 11q-28 0 -75.5 -73t-95.5 -191l-10 -77q-2 -8 -30 -18.5t-49 -10.5l-10 12q18 102 35.5 219t19.5 140q1 21 -9 30.5t-32 9.5h-38l8 47q58 0 174 7
l9 -14q-15 -45 -30 -107t-24 -113l5 -2q47 96 94.5 159.5t90.5 88.5q39 0 64.5 -27.5t25.5 -70.5q0 -25 -10 -61t-34 -111q-28 -81 -35 -115l3 -4q7 0 19.5 9.5t53.5 46.5l15 -2zM155 557l1 8l86 94l16 4q18 0 74 -18q8 -2 31 -8.5t33 -6.5t25 12t27.5 25.5t15.5 17.5h8
l27 -27l-1 -8l-86 -94l-16 -4q-19 0 -75 18q-49 15 -63 15q-10 0 -25 -12t-27.5 -25.5t-15.5 -17.5h-9z" />
    <glyph glyph-name="ograve" unicode="&#xf2;" horiz-adv-x="424" 
d="M67 34q-34 46 -34 124q0 83 32 154t86 113.5t118 42.5q60 0 93.5 -41t33.5 -116q0 -88 -31.5 -162t-86.5 -117.5t-120 -43.5q-57 0 -91 46zM272 109.5q28 56.5 28 150.5q0 64 -19 100t-54 36q-45 0 -73 -52.5t-28 -138.5q0 -70 19.5 -111t52.5 -41q46 0 74 56.5zM182 706
l11 1q14 -16 62 -69t96 -102l-25 -27l-11 -3q-55 46 -108.5 84.5t-68.5 49.5l-1 13z" />
    <glyph glyph-name="oacute" unicode="&#xf3;" horiz-adv-x="422" 
d="M65 34q-34 46 -34 124q0 83 32 154t86 113.5t118 42.5q60 0 93.5 -41t33.5 -116q0 -88 -31.5 -162t-86.5 -117.5t-120 -43.5q-57 0 -91 46zM270 109.5q28 56.5 28 150.5q0 64 -19 100t-54 36q-45 0 -73 -52.5t-28 -138.5q0 -70 19.5 -111t52.5 -41q46 0 74 56.5z
M290.5 607q-53.5 -39 -108.5 -85l-11 3l-25 27q48 49 96 102.5t62 69.5l11 -2l45 -53l-1 -12q-15 -11 -68.5 -50z" />
    <glyph glyph-name="ocircumflex" unicode="&#xf4;" horiz-adv-x="425" 
d="M68 34q-34 46 -34 124q0 83 32 154t86 113.5t118 42.5q60 0 93.5 -41t33.5 -116q0 -88 -31.5 -162t-86.5 -117.5t-120 -43.5q-57 0 -91 46zM273 109.5q28 56.5 28 150.5q0 64 -19 100t-54 36q-45 0 -73 -52.5t-28 -138.5q0 -70 19.5 -111t52.5 -41q46 0 74 56.5z
M186.5 615q62.5 61 84.5 83h17q17 -22 64.5 -83t55.5 -70l-24 -30l-12 -2l-50 43q-47 44 -54 48l-56 -41l-70 -50l-12 2l-17 30q11 9 73.5 70z" />
    <glyph glyph-name="otilde" unicode="&#xf5;" horiz-adv-x="421" 
d="M65 34q-34 46 -34 124q0 83 32 154t86 113.5t118 42.5q60 0 93.5 -41t33.5 -116q0 -88 -31.5 -162t-86.5 -117.5t-120 -43.5q-57 0 -91 46zM270 109.5q28 56.5 28 150.5q0 64 -19 100t-54 36q-45 0 -73 -52.5t-28 -138.5q0 -70 19.5 -111t52.5 -41q46 0 74 56.5zM108 557
l1 8l86 94l16 4q18 0 74 -18q8 -2 31 -8.5t33 -6.5t25 12t27.5 25.5t15.5 17.5h8l27 -27l-1 -8l-86 -94l-16 -4q-19 0 -75 18q-49 15 -63 15q-10 0 -25 -12t-27.5 -25.5t-15.5 -17.5h-9z" />
    <glyph glyph-name="divide" unicode="&#xf7;" horiz-adv-x="487" 
d="M215 386.5q-13 15.5 -13 38.5q0 32 21 54t53 22q25 0 39 -15t14 -39q0 -32 -21 -54t-54 -22q-26 0 -39 15.5zM461 224l-218 -1l-220 -1l-5 10l20 66l228 -1q48 0 117 2.5t91 3.5l5 -11zM172 35q-13 15 -13 39q0 32 20.5 53.5t53.5 21.5q25 0 39 -15t14 -39
q0 -32 -21 -53.5t-54 -21.5q-26 0 -39 15z" />
    <glyph glyph-name="oslash" unicode="&#xf8;" horiz-adv-x="422" 
d="M354 434q40 -42 40 -123q0 -88 -31.5 -162t-86.5 -117.5t-120 -43.5q-22 0 -43 8l-58 -102l-41 16l-2 10l59 106q-19 22 -29.5 56t-10.5 76q0 83 32 154t86 113.5t118 42.5q25 0 43 -7l51 92l43 -17l2 -12zM152 343.5q-28 -52.5 -28 -138.5q0 -43 7 -72l134 246
q-17 17 -40 17q-45 0 -73 -52.5zM270 109.5q28 56.5 28 150.5q0 35 -6 62l-136 -248q16 -21 40 -21q46 0 74 56.5z" />
    <glyph glyph-name="ugrave" unicode="&#xf9;" horiz-adv-x="495" 
d="M477 104q-67 -66 -100.5 -91t-54.5 -25q-39 0 -39 32q0 15 40 195l-8 2q-84 -166 -169 -228q-46 0 -72 23.5t-26 64.5q0 33 38 159q12 41 22 79t10 52q0 18 -9.5 26.5t-30.5 8.5h-38l9 47q76 0 174 7l10 -13q-41 -119 -67.5 -210.5t-26.5 -115.5q0 -17 6.5 -24.5
t20.5 -7.5q26 0 75 76t103 201l16 93l11 5l78 -8l8 -10q-23 -78 -46.5 -178.5t-35.5 -176.5l4 -4q7 1 19 9.5t50 41.5l14 -1zM216 706l11 1q14 -16 62 -69t96 -102l-25 -27l-11 -3q-55 46 -108.5 84.5t-68.5 49.5l-1 13z" />
    <glyph glyph-name="uacute" unicode="&#xfa;" horiz-adv-x="495" 
d="M477 104q-67 -66 -100.5 -91t-54.5 -25q-39 0 -39 32q0 15 40 195l-8 2q-84 -166 -169 -228q-46 0 -72 23.5t-26 64.5q0 33 38 159q12 41 22 79t10 52q0 18 -9.5 26.5t-30.5 8.5h-38l9 47q76 0 174 7l10 -13q-41 -119 -67.5 -210.5t-26.5 -115.5q0 -17 6.5 -24.5
t20.5 -7.5q26 0 75 76t103 201l16 93l11 5l78 -8l8 -10q-23 -78 -46.5 -178.5t-35.5 -176.5l4 -4q7 1 19 9.5t50 41.5l14 -1zM326.5 607q-53.5 -39 -108.5 -85l-11 3l-25 27q48 49 96 102.5t62 69.5l11 -2l45 -53l-1 -12q-15 -11 -68.5 -50z" />
    <glyph glyph-name="ucircumflex" unicode="&#xfb;" horiz-adv-x="497" 
d="M477 104q-67 -66 -100.5 -91t-54.5 -25q-39 0 -39 32q0 15 40 195l-8 2q-84 -166 -169 -228q-46 0 -72 23.5t-26 64.5q0 33 38 159q12 41 22 79t10 52q0 18 -9.5 26.5t-30.5 8.5h-38l9 47q76 0 174 7l10 -13q-41 -119 -67.5 -210.5t-26.5 -115.5q0 -17 6.5 -24.5
t20.5 -7.5q26 0 75 76t103 201l16 93l11 5l78 -8l8 -10q-23 -78 -46.5 -178.5t-35.5 -176.5l4 -4q7 1 19 9.5t50 41.5l14 -1zM220.5 615q62.5 61 84.5 83h17q17 -22 64.5 -83t55.5 -70l-24 -30l-12 -2l-50 43q-47 44 -54 48l-56 -41l-70 -50l-12 2l-17 30q11 9 73.5 70z" />
    <glyph glyph-name="udieresis" unicode="&#xfc;" horiz-adv-x="497" 
d="M477 104q-67 -66 -100.5 -91t-54.5 -25q-39 0 -39 32q0 15 40 195l-8 2q-84 -166 -169 -228q-46 0 -72 23.5t-26 64.5q0 33 38 159q12 41 22 79t10 52q0 18 -9.5 26.5t-30.5 8.5h-38l9 47q76 0 174 7l10 -13q-41 -119 -67.5 -210.5t-26.5 -115.5q0 -17 6.5 -24.5
t20.5 -7.5q26 0 75 76t103 201l16 93l11 5l78 -8l8 -10q-23 -78 -46.5 -178.5t-35.5 -176.5l4 -4q7 1 19 9.5t50 41.5l14 -1zM172.5 560.5q-13.5 13.5 -13.5 35.5q0 25 16.5 41.5t42.5 16.5q21 0 33.5 -13.5t12.5 -35.5q0 -25 -16.5 -41.5t-41.5 -16.5q-20 0 -33.5 13.5z
M338 560.5q-13 13.5 -13 35.5q0 26 16 42t42 16q22 0 34 -13t12 -36q0 -25 -16 -41.5t-41 -16.5q-21 0 -34 13.5z" />
    <glyph glyph-name="thorn" unicode="&#xfe;" horiz-adv-x="467" 
d="M90.5 307q48.5 316 48.5 336t-9.5 29t-30.5 9h-38l7 47q42 0 99 3t75 4l11 -14q-5 -21 -21.5 -96.5t-38 -186.5t-37.5 -216l4 -2q47 99 85 155.5t80 90.5q51 0 82.5 -44t31.5 -115q0 -80 -33 -153.5t-87.5 -118t-114.5 -44.5q-38 0 -84 10l-18 -132q-1 -6 -1 -17
q0 -18 9.5 -25t33.5 -7h42l1 -6l-8 -42q-72 0 -136.5 -3t-82.5 -4l8 45q25 2 37.5 15.5t18.5 50.5q18 115 66.5 431zM240 292q-46 -80 -99 -210q25 -9 54 -16t47 -7q26 0 50.5 28.5t39.5 75t15 97.5q0 44 -11.5 78t-27.5 34q-22 0 -68 -80z" />
    <glyph glyph-name="ydieresis" unicode="&#xff;" horiz-adv-x="446" 
d="M402 468q15 -10 24 -32t9 -48q0 -103 -183 -371q-92 -134 -154.5 -193.5t-112.5 -59.5q-31 0 -54 11.5t-29 29.5q8 49 28 84h14q31 -36 66 -36q58 0 135 101q-19 241 -43 406q-4 22 -12 30t-26 8l-22 -2q-18 -2 -25 -2l3 46l160 22l11 -9q17 -132 17 -348v-40h11
q60 98 92 170.5t32 109.5q0 22 -13 42.5t-36 34.5l6 23zM147.5 560.5q-13.5 13.5 -13.5 35.5q0 25 16.5 41.5t42.5 16.5q21 0 33.5 -13.5t12.5 -35.5q0 -25 -16.5 -41.5t-41.5 -16.5q-20 0 -33.5 13.5zM313 560.5q-13 13.5 -13 35.5q0 26 16 42t42 16q22 0 34 -13t12 -36
q0 -25 -16 -41.5t-41 -16.5q-21 0 -34 13.5z" />
    <glyph glyph-name="Amacron" unicode="&#x100;" horiz-adv-x="577" 
d="M508 67.5q16 -14.5 54 -19.5l2 -4l-12 -47q-12 0 -44 1.5t-64 1.5q-48 0 -93.5 -3.5t-58.5 -5.5l-3 7l9 46q37 3 55 7.5t25 13.5t7 26q0 9 -1 18t-2 16l-15 98q-19 1 -94 1q-34 0 -101 -7l-42 -96q-12 -25 -12 -42t11 -24.5t36 -7.5h50l1 -4l-11 -49q-12 1 -54.5 3.5
t-81.5 2.5q-37 0 -68.5 -1t-41.5 -2l14 54q26 3 44 18.5t36 54.5l240 509l98 17l10 -2q0 -7 29.5 -203.5t54.5 -325.5q7 -37 23 -51.5zM277 277q28 0 83 5l-37 249h-10l-113 -254h77zM485 716l-137 -1l-136 -1l-7 10l20 58l147 -1q30 0 70.5 2.5t53.5 3.5l6 -12z" />
    <glyph glyph-name="amacron" unicode="&#x101;" horiz-adv-x="474" 
d="M375.5 88.5q12.5 9.5 54.5 45.5l14 -1l15 -29q-70 -69 -102.5 -92.5t-55.5 -23.5q-17 0 -26.5 8.5t-9.5 22.5q0 24 40 193l-7 1q-47 -86 -89 -139.5t-87 -85.5q-44 0 -69.5 37t-25.5 102q0 80 34.5 158t89 127.5t110.5 49.5l95 -16l8 24l8 3l51 -15l8 -14
q-23 -84 -45 -185t-33 -176l3 -4q7 0 19.5 9.5zM194 123.5q30 39.5 66 105t66 138.5q-22 13 -48.5 22t-44.5 9q-29 0 -55 -31t-42 -82t-16 -106q0 -41 8 -68t20 -27q16 0 46 39.5zM423 592l-136 -1l-136 -1l-7 10l19 58l148 -1q30 0 70.5 2.5t53.5 3.5l5 -12z" />
    <glyph glyph-name="Abreve" unicode="&#x102;" horiz-adv-x="577" 
d="M508 67.5q16 -14.5 54 -19.5l2 -4l-12 -47q-12 0 -44 1.5t-64 1.5q-48 0 -93.5 -3.5t-58.5 -5.5l-3 7l9 46q37 3 55 7.5t25 13.5t7 26q0 9 -1 18t-2 16l-15 98q-19 1 -94 1q-34 0 -101 -7l-42 -96q-12 -25 -12 -42t11 -24.5t36 -7.5h50l1 -4l-11 -49q-12 1 -54.5 3.5
t-81.5 2.5q-37 0 -68.5 -1t-41.5 -2l14 54q26 3 44 18.5t36 54.5l240 509l98 17l10 -2q0 -7 29.5 -203.5t54.5 -325.5q7 -37 23 -51.5zM277 277q28 0 83 5l-37 249h-10l-113 -254h77zM411 792q28 14 43 40l11 -1l19 -20q-19 -45 -55 -75.5t-87 -30.5t-79.5 30.5t-36.5 75.5
l24 20l12 1q10 -26 34 -40t55 -14q32 0 60 14z" />
    <glyph glyph-name="abreve" unicode="&#x103;" horiz-adv-x="474" 
d="M375.5 88.5q12.5 9.5 54.5 45.5l14 -1l15 -29q-70 -69 -102.5 -92.5t-55.5 -23.5q-17 0 -26.5 8.5t-9.5 22.5q0 24 40 193l-7 1q-47 -86 -89 -139.5t-87 -85.5q-44 0 -69.5 37t-25.5 102q0 80 34.5 158t89 127.5t110.5 49.5l95 -16l8 24l8 3l51 -15l8 -14
q-23 -84 -45 -185t-33 -176l3 -4q7 0 19.5 9.5zM194 123.5q30 39.5 66 105t66 138.5q-22 13 -48.5 22t-44.5 9q-29 0 -55 -31t-42 -82t-16 -106q0 -41 8 -68t20 -27q16 0 46 39.5zM345 635.5q28 17.5 44 49.5l12 -1l18 -21q-19 -50 -55.5 -84t-87.5 -34q-52 0 -80 34t-34 84
l23 21l12 1q9 -32 32.5 -49.5t55.5 -17.5t60 17.5z" />
    <glyph glyph-name="Aogonek" unicode="&#x104;" horiz-adv-x="577" 
d="M508 67.5q16 -14.5 54 -19.5l2 -4l-12 -47q-12 0 -44 1.5t-64 1.5q-48 0 -93.5 -3.5t-58.5 -5.5l-3 7l9 46q37 3 55 7.5t25 13.5t7 26q0 9 -1 18t-2 16l-15 98q-19 1 -94 1q-34 0 -101 -7l-42 -96q-12 -25 -12 -42t11 -24.5t36 -7.5h50l1 -4l-11 -49q-12 1 -54.5 3.5
t-81.5 2.5q-37 0 -68.5 -1t-41.5 -2l14 54q26 3 44 18.5t36 54.5l240 509l98 17l10 -2q0 -7 29.5 -203.5t54.5 -325.5q7 -37 23 -51.5zM277 277q28 0 83 5l-37 249h-10l-113 -254h77zM480 -215q-24 -17 -53 -26q-46 0 -74 22.5t-28 61.5q0 28 18 57.5t46.5 58.5t86.5 83h51
q-73 -71 -99 -105.5t-26 -67.5q0 -19 12 -31t32 -12q21 0 42 8t32 15l13 -25q-29 -22 -53 -39z" />
    <glyph glyph-name="aogonek" unicode="&#x105;" horiz-adv-x="474" 
d="M356.5 -165.5q21.5 8.5 31.5 14.5l13 -25q-29 -22 -53 -39t-53 -26q-46 0 -74 22t-28 61q0 33 22.5 66.5t72.5 81.5q-23 6 -23 28q0 24 40 194l-7 1q-47 -86 -89 -139.5t-87 -85.5q-45 0 -70 37t-25 102q0 80 34.5 158.5t89 127.5t110.5 49l95 -16l8 24l8 3l51 -15l8 -14
q-1 -6 -29.5 -113t-48.5 -248l3 -4q7 0 19.5 9.5t54.5 45.5l14 -1l17 -33q-107 -94 -149 -142.5t-42 -86.5q0 -22 12 -33.5t33 -11.5q20 0 41.5 8.5zM193 123q30 39 66 104t67 140q-24 14 -49.5 22.5t-43.5 8.5q-29 0 -55 -31.5t-42 -82t-16 -105.5q0 -40 7.5 -67.5
t20.5 -27.5q15 0 45 39z" />
    <glyph glyph-name="Cacute" unicode="&#x106;" horiz-adv-x="598" 
d="M163 20.5q-59 32.5 -91 92.5t-32 141q0 115 47.5 205t132 140.5t191.5 50.5q36 0 76.5 -5t69.5 -10.5t37 -7.5l3 -9l-10 -30t-18.5 -62.5t-18.5 -81.5l-65 -5q1 7 5 28.5t4 33.5q0 78 -118 78q-66 0 -116 -36.5t-77.5 -104t-27.5 -159.5q0 -106 44 -166.5t122 -60.5
q60 0 100.5 36.5t65.5 115.5l65 5q-5 -16 -20 -70t-24 -101l-8 -10q0 -1 -29 -11.5t-73.5 -19.5t-96.5 -9q-79 0 -138 32.5zM420 735q-65 -20 -133 -44l-10 7l-9 33q62 31 126 64t83 43l10 -5l20 -60l-4 -12q-18 -6 -83 -26z" />
    <glyph glyph-name="cacute" unicode="&#x107;" horiz-adv-x="354" 
d="M179.5 367q-26.5 -30 -42.5 -78.5t-16 -100.5q0 -58 17.5 -91.5t47.5 -33.5q28 0 56 23.5t46 61.5l15 -2l23 -31q-28 -55 -76.5 -91t-94.5 -36q-58 0 -91.5 45t-33.5 123t33.5 150.5t88.5 117t115 44.5q26 0 50 -6t40 -16l4 -12l-37 -80l-20 -2q-30 45 -70 45
q-28 0 -54.5 -30zM299.5 607q-53.5 -39 -108.5 -85l-11 3l-25 27q48 49 96 102.5t62 69.5l11 -2l45 -53l-1 -12q-15 -11 -68.5 -50z" />
    <glyph glyph-name="Ccircumflex" unicode="&#x108;" horiz-adv-x="598" 
d="M163 20.5q-59 32.5 -91 92.5t-32 141q0 115 47.5 205t132 140.5t191.5 50.5q36 0 76.5 -5t69.5 -10.5t37 -7.5l3 -9l-10 -30t-18.5 -62.5t-18.5 -81.5l-65 -5q1 7 5 28.5t4 33.5q0 78 -118 78q-66 0 -116 -36.5t-77.5 -104t-27.5 -159.5q0 -106 44 -166.5t122 -60.5
q60 0 100.5 36.5t65.5 115.5l65 5q-5 -16 -20 -70t-24 -101l-8 -10q0 -1 -29 -11.5t-73.5 -19.5t-96.5 -9q-79 0 -138 32.5zM316.5 797q62.5 61 84.5 83h17q17 -22 64.5 -83t55.5 -70l-24 -30l-12 -2l-50 43q-47 44 -54 48l-56 -41l-70 -50l-12 2l-17 30q11 9 73.5 70z" />
    <glyph glyph-name="ccircumflex" unicode="&#x109;" horiz-adv-x="354" 
d="M179.5 367q-26.5 -30 -42.5 -78.5t-16 -100.5q0 -58 17.5 -91.5t47.5 -33.5q28 0 56 23.5t46 61.5l15 -2l23 -31q-28 -55 -76.5 -91t-94.5 -36q-58 0 -91.5 45t-33.5 123t33.5 150.5t88.5 117t115 44.5q26 0 50 -6t40 -16l4 -12l-37 -80l-20 -2q-30 45 -70 45
q-28 0 -54.5 -30zM193.5 615q62.5 61 84.5 83h17q17 -22 64.5 -83t55.5 -70l-24 -30l-12 -2l-50 43q-47 44 -54 48l-56 -41l-70 -50l-12 2l-17 30q11 9 73.5 70z" />
    <glyph glyph-name="Cdotaccent" unicode="&#x10a;" horiz-adv-x="598" 
d="M163 20.5q-59 32.5 -91 92.5t-32 141q0 115 47.5 205t132 140.5t191.5 50.5q36 0 76.5 -5t69.5 -10.5t37 -7.5l3 -9l-10 -30t-18.5 -62.5t-18.5 -81.5l-65 -5q1 7 5 28.5t4 33.5q0 78 -118 78q-66 0 -116 -36.5t-77.5 -104t-27.5 -159.5q0 -106 44 -166.5t122 -60.5
q60 0 100.5 36.5t65.5 115.5l65 5q-5 -16 -20 -70t-24 -101l-8 -10q0 -1 -29 -11.5t-73.5 -19.5t-96.5 -9q-79 0 -138 32.5zM339 726.5q-13 14.5 -13 37.5q0 32 21.5 54t54.5 22q24 0 37 -15t13 -38q0 -31 -22 -53t-53 -22q-25 0 -38 14.5z" />
    <glyph glyph-name="cdotaccent" unicode="&#x10b;" horiz-adv-x="354" 
d="M179.5 367q-26.5 -30 -42.5 -78.5t-16 -100.5q0 -58 17.5 -91.5t47.5 -33.5q28 0 56 23.5t46 61.5l15 -2l23 -31q-28 -55 -76.5 -91t-94.5 -36q-58 0 -91.5 45t-33.5 123t33.5 150.5t88.5 117t115 44.5q26 0 50 -6t40 -16l4 -12l-37 -80l-20 -2q-30 45 -70 45
q-28 0 -54.5 -30zM221 583q-13 15 -13 37q0 32 21.5 54t53.5 22q24 0 37 -15t13 -37q0 -32 -22 -54t-53 -22q-24 0 -37 15z" />
    <glyph glyph-name="Ccaron" unicode="&#x10c;" horiz-adv-x="598" 
d="M163 20.5q-59 32.5 -91 92.5t-32 141q0 115 47.5 205t132 140.5t191.5 50.5q36 0 76.5 -5t69.5 -10.5t37 -7.5l3 -9l-10 -30t-18.5 -62.5t-18.5 -81.5l-65 -5q1 7 5 28.5t4 33.5q0 78 -118 78q-66 0 -116 -36.5t-77.5 -104t-27.5 -159.5q0 -106 44 -166.5t122 -60.5
q60 0 100.5 36.5t65.5 115.5l65 5q-5 -16 -20 -70t-24 -101l-8 -10q0 -1 -29 -11.5t-73.5 -19.5t-96.5 -9q-79 0 -138 32.5zM455 755.5q-51 -38.5 -73 -54.5h-16q-18 16 -59.5 54.5t-67.5 61.5l21 30l13 2q10 -4 68 -38l43 -24l63 31q57 30 64 31l12 -2l15 -30
q-32 -23 -83 -61.5z" />
    <glyph glyph-name="ccaron" unicode="&#x10d;" horiz-adv-x="354" 
d="M179.5 367q-26.5 -30 -42.5 -78.5t-16 -100.5q0 -58 17.5 -91.5t47.5 -33.5q28 0 56 23.5t46 61.5l15 -2l23 -31q-28 -55 -76.5 -91t-94.5 -36q-58 0 -91.5 45t-33.5 123t33.5 150.5t88.5 117t115 44.5q26 0 50 -6t40 -16l4 -12l-37 -80l-20 -2q-30 45 -70 45
q-28 0 -54.5 -30zM153 716q35 -34 108 -95q89 61 131 95l11 -2l18 -31q-48 -44 -98.5 -94t-65.5 -65h-16q-11 15 -49.5 65t-75.5 94l26 31z" />
    <glyph glyph-name="Dcaron" unicode="&#x10e;" horiz-adv-x="672" 
d="M219 -5q-50 5 -82 5q-31 0 -68.5 -4.5t-49.5 -6.5l13 53q44 8 61.5 25.5t22.5 59.5l50 407l2 24q0 17 -6.5 23.5t-21.5 6.5q-10 0 -20 -1t-13 -1l-3 6l13 49q12 -1 44.5 -2t65.5 -1q27 0 75 2t64 3q86 0 151.5 -32.5t101.5 -91.5t36 -138q0 -107 -49.5 -197.5t-134 -143
t-186.5 -52.5q-16 2 -66 7zM282.5 577.5q-6.5 -4.5 -8.5 -18.5l-10 -60q-5 -33 -31.5 -196.5t-26.5 -187.5q0 -38 20.5 -51t76.5 -13q72 0 125.5 39t83 110t29.5 164q0 107 -59.5 162.5t-174.5 55.5q-18 0 -24.5 -4.5zM463 755.5q-51 -38.5 -73 -54.5h-16q-18 16 -59.5 54.5
t-67.5 61.5l21 30l13 2q10 -4 68 -38l43 -24l63 31q57 30 64 31l12 -2l15 -30q-32 -23 -83 -61.5z" />
    <glyph glyph-name="dcaron" unicode="&#x10f;" horiz-adv-x="576" 
d="M373.5 87q10.5 8 56.5 47l14 -1l15 -29q-67 -66 -100.5 -91t-54.5 -25q-39 0 -39 33q0 13 15.5 84.5t24.5 106.5l-8 1q-46 -86 -88.5 -140t-86.5 -85q-45 0 -70 37t-25 103q0 80 34.5 157.5t89 127t110.5 49.5l71 -13l26 188l1 11q0 17 -10 25t-31 8h-38l7 47q42 0 99 3
t75 4l11 -14q-7 -32 -29.5 -145t-49 -254.5t-40.5 -238.5l3 -4q7 0 17.5 8zM223.5 167q52.5 83 100.5 200q-21 13 -47 22t-46 9q-27 0 -53 -31.5t-42 -82t-16 -104.5q0 -40 7.5 -68t18.5 -28q25 0 77.5 83zM583 626q-17 -65 -38 -130l-38 -16l-12 3q11 70 16 139t5 83l84 14
l5 -9q-5 -19 -22 -84z" />
    <glyph glyph-name="Dcroat" unicode="&#x110;" horiz-adv-x="683" 
d="M529.5 610.5q65.5 -32.5 101.5 -91.5t36 -138q0 -107 -49.5 -197.5t-134 -143t-186.5 -52.5q-16 2 -66 7t-82 5q-31 0 -68.5 -4.5t-49.5 -6.5l13 53q44 8 61.5 25.5t22.5 59.5l21 169h-124l-7 8l14 43h123l23 187l2 24q0 17 -6.5 23.5t-21.5 6.5q-10 0 -20 -1t-13 -1
l-3 6l13 49q12 -1 44.5 -2t65.5 -1q28 0 75.5 2t63.5 3q86 0 151.5 -32.5zM440.5 90q53.5 39 83 110t29.5 164q0 107 -59.5 162.5t-174.5 55.5q-18 0 -24.5 -4.5t-8.5 -18.5q-1 -5 -26 -162l-8 -50l142 1l5 -8l-12 -43h-144q-25 -162 -25 -182q0 -38 20.5 -51t76.5 -13
q72 0 125.5 39z" />
    <glyph glyph-name="dcroat" unicode="&#x111;" horiz-adv-x="476" 
d="M434 534q-56 -280 -81 -451l3 -4q7 0 17.5 8t56.5 47l14 -1l15 -29q-67 -66 -100.5 -91t-54.5 -25q-39 0 -39 33q0 13 15.5 84.5t24.5 106.5l-8 1q-46 -86 -88.5 -140t-86.5 -85q-45 0 -70 37t-25 103q0 80 34.5 157.5t89 127t110.5 49.5l71 -13l12 85l-105 -1l-9 10
l7 42l114 -1l7 53l1 11q0 17 -10 25t-31 8h-38l7 47q42 0 99 3t75 4l11 -14q-2 -10 -9.5 -45.5t-18.5 -90.5l81 4l13 -13l-4 -41zM223.5 167q52.5 83 100.5 200q-21 13 -47 22t-46 9q-27 0 -53 -31.5t-42 -82t-16 -104.5q0 -40 7.5 -68t18.5 -28q25 0 77.5 83z" />
    <glyph glyph-name="Emacron" unicode="&#x112;" horiz-adv-x="571" 
d="M215 62.5q13 -6.5 52 -6.5q74 0 107 8t49 31.5t30 79.5l59 6l4 -7q-5 -15 -20.5 -66.5t-27.5 -107.5l-8 -7q-31 1 -130 4t-163 3q-49 0 -92.5 -4t-55.5 -6l13 53q43 6 60.5 24t22.5 61l51 407q2 18 2 24q0 17 -6.5 23.5t-23.5 6.5q-9 0 -18.5 -1t-12.5 -1l-3 5l13 49
q15 -1 57.5 -2t93.5 -1q198 0 291 12l4 -7q-2 -6 -8.5 -28.5t-16.5 -62t-18 -80.5l-63 -5q2 6 5.5 26.5t3.5 35.5q0 22 -10.5 32t-36.5 13t-84 3q-31 0 -42.5 -2t-16 -8.5t-7.5 -25.5l-28 -182l95 -1q21 0 61.5 4t53.5 6l5 -6l-22 -68q-13 1 -51 2t-80 1q-34 0 -74 -7
q-7 -55 -15 -100q-12 -75 -12 -96q0 -25 13 -31.5zM492 716l-137 -1l-136 -1l-7 10l20 58l147 -1q30 0 70.5 2.5t53.5 3.5l6 -12z" />
    <glyph glyph-name="emacron" unicode="&#x113;" horiz-adv-x="373" 
d="M304 274q-55 -45 -185 -87q-2 -56 16 -89.5t51 -33.5q29 0 57.5 22t48.5 61l15 -2l23 -31q-28 -55 -77 -90.5t-97 -35.5q-58 0 -92 45.5t-34 123.5q0 77 34.5 149t89.5 117t114 45q43 0 67 -22.5t24 -62.5q0 -64 -55 -109zM165 350.5q-33 -46.5 -43 -113.5
q79 25 114.5 53t35.5 66q0 41 -37 41t-70 -46.5zM395 574l-136 -1l-136 -1l-7 10l19 58l148 -1q30 0 70.5 2.5t53.5 3.5l5 -12z" />
    <glyph glyph-name="Ebreve" unicode="&#x114;" horiz-adv-x="571" 
d="M215 62.5q13 -6.5 52 -6.5q74 0 107 8t49 31.5t30 79.5l59 6l4 -7q-5 -15 -20.5 -66.5t-27.5 -107.5l-8 -7q-31 1 -130 4t-163 3q-49 0 -92.5 -4t-55.5 -6l13 53q43 6 60.5 24t22.5 61l51 407q2 18 2 24q0 17 -6.5 23.5t-23.5 6.5q-9 0 -18.5 -1t-12.5 -1l-3 5l13 49
q15 -1 57.5 -2t93.5 -1q198 0 291 12l4 -7q-2 -6 -8.5 -28.5t-16.5 -62t-18 -80.5l-63 -5q2 6 5.5 26.5t3.5 35.5q0 22 -10.5 32t-36.5 13t-84 3q-31 0 -42.5 -2t-16 -8.5t-7.5 -25.5l-28 -182l95 -1q21 0 61.5 4t53.5 6l5 -6l-22 -68q-13 1 -51 2t-80 1q-34 0 -74 -7
q-7 -55 -15 -100q-12 -75 -12 -96q0 -25 13 -31.5zM418 799.5q28 17.5 44 49.5l12 -1l18 -21q-19 -50 -55.5 -84t-87.5 -34q-52 0 -80 34t-34 84l23 21l12 1q9 -32 32.5 -49.5t55.5 -17.5t60 17.5z" />
    <glyph glyph-name="ebreve" unicode="&#x115;" horiz-adv-x="373" 
d="M304 274q-55 -45 -185 -87q-2 -56 16 -89.5t51 -33.5q29 0 57.5 22t48.5 61l15 -2l23 -31q-28 -55 -77 -90.5t-97 -35.5q-58 0 -92 45.5t-34 123.5q0 77 34.5 149t89.5 117t114 45q43 0 67 -22.5t24 -62.5q0 -64 -55 -109zM165 350.5q-33 -46.5 -43 -113.5
q79 25 114.5 53t35.5 66q0 41 -37 41t-70 -46.5zM317 617.5q28 17.5 44 49.5l12 -1l18 -21q-19 -50 -55.5 -84t-87.5 -34q-52 0 -80 34t-34 84l23 21l12 1q9 -32 32.5 -49.5t55.5 -17.5t60 17.5z" />
    <glyph glyph-name="Edotaccent" unicode="&#x116;" horiz-adv-x="571" 
d="M215 62.5q13 -6.5 52 -6.5q74 0 107 8t49 31.5t30 79.5l59 6l4 -7q-5 -15 -20.5 -66.5t-27.5 -107.5l-8 -7q-31 1 -130 4t-163 3q-49 0 -92.5 -4t-55.5 -6l13 53q43 6 60.5 24t22.5 61l51 407q2 18 2 24q0 17 -6.5 23.5t-23.5 6.5q-9 0 -18.5 -1t-12.5 -1l-3 5l13 49
q15 -1 57.5 -2t93.5 -1q198 0 291 12l4 -7q-2 -6 -8.5 -28.5t-16.5 -62t-18 -80.5l-63 -5q2 6 5.5 26.5t3.5 35.5q0 22 -10.5 32t-36.5 13t-84 3q-31 0 -42.5 -2t-16 -8.5t-7.5 -25.5l-28 -182l95 -1q21 0 61.5 4t53.5 6l5 -6l-22 -68q-13 1 -51 2t-80 1q-34 0 -74 -7
q-7 -55 -15 -100q-12 -75 -12 -96q0 -25 13 -31.5zM313 726.5q-13 14.5 -13 37.5q0 32 21.5 54t54.5 22q24 0 37 -15t13 -38q0 -31 -22 -53t-53 -22q-25 0 -38 14.5z" />
    <glyph glyph-name="edotaccent" unicode="&#x117;" horiz-adv-x="373" 
d="M304 274q-55 -45 -185 -87q-2 -56 16 -89.5t51 -33.5q29 0 57.5 22t48.5 61l15 -2l23 -31q-28 -55 -77 -90.5t-97 -35.5q-58 0 -92 45.5t-34 123.5q0 77 34.5 149t89.5 117t114 45q43 0 67 -22.5t24 -62.5q0 -64 -55 -109zM165 350.5q-33 -46.5 -43 -113.5
q79 25 114.5 53t35.5 66q0 41 -37 41t-70 -46.5zM217 583q-13 15 -13 37q0 32 21.5 54t53.5 22q24 0 37 -15t13 -37q0 -32 -22 -54t-53 -22q-24 0 -37 15z" />
    <glyph glyph-name="Eogonek" unicode="&#x118;" horiz-adv-x="571" 
d="M215 62.5q13 -6.5 52 -6.5q74 0 107 8t49 31.5t30 79.5l59 6l4 -7q-5 -15 -20.5 -66.5t-27.5 -107.5l-8 -7q-31 1 -130 4t-163 3q-49 0 -92.5 -4t-55.5 -6l13 53q43 6 60.5 24t22.5 61l51 407q2 18 2 24q0 17 -6.5 23.5t-23.5 6.5q-9 0 -18.5 -1t-12.5 -1l-3 5l13 49
q15 -1 57.5 -2t93.5 -1q198 0 291 12l4 -7q-2 -6 -8.5 -28.5t-16.5 -62t-18 -80.5l-63 -5q2 6 5.5 26.5t3.5 35.5q0 22 -10.5 32t-36.5 13t-84 3q-31 0 -42.5 -2t-16 -8.5t-7.5 -25.5l-28 -182l95 -1q21 0 61.5 4t53.5 6l5 -6l-22 -68q-13 1 -51 2t-80 1q-34 0 -74 -7
q-7 -55 -15 -100q-12 -75 -12 -96q0 -25 13 -31.5zM404 -217q-24 -17 -53 -26q-46 0 -74 22.5t-28 61.5q0 28 18 57.5t46.5 58.5t86.5 83h51q-73 -71 -99 -105.5t-26 -67.5q0 -19 12 -31t32 -12q21 0 42 8t32 15l13 -25q-29 -22 -53 -39z" />
    <glyph glyph-name="eogonek" unicode="&#x119;" horiz-adv-x="373" 
d="M330 114q-23 -34 -46 -60.5t-55 -61.5q-41 -44 -57.5 -69t-16.5 -54q0 -19 12 -31t32 -12q21 0 43.5 9t29.5 14l14 -25q-29 -22 -53 -39t-53 -26q-47 0 -74.5 22.5t-27.5 61.5q0 33 23 67t72 80q-12 -2 -17 -2q-58 0 -92 45.5t-34 123.5q0 77 34.5 149t89.5 117t114 45
q43 0 67 -22.5t24 -62.5q0 -64 -55 -108.5t-185 -87.5q-2 -56 16 -89.5t51 -33.5q29 0 57.5 22t48.5 61l15 -2zM165 350.5q-33 -46.5 -43 -113.5q79 25 114.5 53t35.5 66q0 41 -37 41t-70 -46.5z" />
    <glyph glyph-name="Ecaron" unicode="&#x11a;" horiz-adv-x="571" 
d="M215 62.5q13 -6.5 52 -6.5q74 0 107 8t49 31.5t30 79.5l59 6l4 -7q-5 -15 -20.5 -66.5t-27.5 -107.5l-8 -7q-31 1 -130 4t-163 3q-49 0 -92.5 -4t-55.5 -6l13 53q43 6 60.5 24t22.5 61l51 407q2 18 2 24q0 17 -6.5 23.5t-23.5 6.5q-9 0 -18.5 -1t-12.5 -1l-3 5l13 49
q15 -1 57.5 -2t93.5 -1q198 0 291 12l4 -7q-2 -6 -8.5 -28.5t-16.5 -62t-18 -80.5l-63 -5q2 6 5.5 26.5t3.5 35.5q0 22 -10.5 32t-36.5 13t-84 3q-31 0 -42.5 -2t-16 -8.5t-7.5 -25.5l-28 -182l95 -1q21 0 61.5 4t53.5 6l5 -6l-22 -68q-13 1 -51 2t-80 1q-34 0 -74 -7
q-7 -55 -15 -100q-12 -75 -12 -96q0 -25 13 -31.5zM429 755.5q-51 -38.5 -73 -54.5h-16q-18 16 -59.5 54.5t-67.5 61.5l21 30l13 2q10 -4 68 -38l43 -24l63 31q57 30 64 31l12 -2l15 -30q-32 -23 -83 -61.5z" />
    <glyph glyph-name="ecaron" unicode="&#x11b;" horiz-adv-x="373" 
d="M304 274q-55 -45 -185 -87q-2 -56 16 -89.5t51 -33.5q29 0 57.5 22t48.5 61l15 -2l23 -31q-28 -55 -77 -90.5t-97 -35.5q-58 0 -92 45.5t-34 123.5q0 77 34.5 149t89.5 117t114 45q43 0 67 -22.5t24 -62.5q0 -64 -55 -109zM165 350.5q-33 -46.5 -43 -113.5
q79 25 114.5 53t35.5 66q0 41 -37 41t-70 -46.5zM149 716q35 -34 108 -95q89 61 131 95l11 -2l18 -31q-48 -44 -98.5 -94t-65.5 -65h-16q-11 15 -49.5 65t-75.5 94l26 31z" />
    <glyph glyph-name="Gcircumflex" unicode="&#x11c;" horiz-adv-x="636" 
d="M544 312q27 2 35 3l2 -28q-32 -21 -42 -86q-5 -33 -10 -73.5t-5 -53.5l1 -32l-8 -10q0 -1 -31.5 -12.5t-79.5 -21.5t-105 -10q-79 0 -138 32.5t-91 92.5t-32 141q0 115 47.5 205t132 140.5t191.5 50.5q36 0 76.5 -5t69.5 -10.5t37 -7.5l3 -9q-2 -6 -10 -29t-18.5 -61
t-18.5 -81l-65 -5q1 7 5 27.5t4 32.5q0 77 -118 77q-66 0 -116 -36.5t-77.5 -104t-27.5 -159.5q0 -106 44 -166.5t122 -60.5q31 0 57.5 7.5t42 15.5t19.5 11l13 113q1 8 1 20q0 19 -9 25.5t-34 6.5h-60l-2 6l16 56q1 0 39.5 -1.5t86.5 -1.5q26 0 53 2zM332.5 797
q62.5 61 84.5 83h17q17 -22 64.5 -83t55.5 -70l-24 -30l-12 -2l-50 43q-47 44 -54 48l-56 -41l-70 -50l-12 2l-17 30q11 9 73.5 70z" />
    <glyph glyph-name="gcircumflex" unicode="&#x11d;" horiz-adv-x="455" 
d="M3.5 -222.5q-39.5 18.5 -62 48.5t-20.5 63l3 7q50 38 181 113l1 8q-27 15 -41.5 49.5t-14.5 81.5q0 74 33.5 147.5t86 120.5t105.5 47l96 -17l10 24l8 3l51 -14l10 -13q-63 -119 -72 -199q-3 -22 -5.5 -65.5t-3.5 -62.5q-1 -20 -3.5 -58t-4.5 -54q-6 -56 -50.5 -114
t-106 -96t-116.5 -38q-45 0 -84.5 18.5zM240.5 171q44.5 73 99.5 197q-60 30 -96 30q-25 0 -49 -29t-39 -75.5t-15 -94.5q0 -41 10 -71t24 -30q21 0 65.5 73zM230 -127q42 43 51 118l25 201l-9 2q-49 -88 -78 -126.5t-63 -62.5l-56 -38q-45 -31 -64 -45t-19 -22
q0 -16 16 -32.5t41.5 -27t51.5 -10.5q62 0 104 43zM209.5 643q62.5 61 84.5 83h17q17 -22 64.5 -83t55.5 -70l-24 -30l-12 -2l-50 43q-47 44 -54 48l-56 -41l-70 -50l-12 2l-17 30q11 9 73.5 70z" />
    <glyph glyph-name="Gbreve" unicode="&#x11e;" horiz-adv-x="636" 
d="M544 312q27 2 35 3l2 -28q-32 -21 -42 -86q-5 -33 -10 -73.5t-5 -53.5l1 -32l-8 -10q0 -1 -31.5 -12.5t-79.5 -21.5t-105 -10q-79 0 -138 32.5t-91 92.5t-32 141q0 115 47.5 205t132 140.5t191.5 50.5q36 0 76.5 -5t69.5 -10.5t37 -7.5l3 -9q-2 -6 -10 -29t-18.5 -61
t-18.5 -81l-65 -5q1 7 5 27.5t4 32.5q0 77 -118 77q-66 0 -116 -36.5t-77.5 -104t-27.5 -159.5q0 -106 44 -166.5t122 -60.5q31 0 57.5 7.5t42 15.5t19.5 11l13 113q1 8 1 20q0 19 -9 25.5t-34 6.5h-60l-2 6l16 56q1 0 39.5 -1.5t86.5 -1.5q26 0 53 2zM460 792q28 14 43 40
l11 -1l19 -20q-19 -45 -55 -75.5t-87 -30.5t-79.5 30.5t-36.5 75.5l24 20l12 1q10 -26 34 -40t55 -14q32 0 60 14z" />
    <glyph glyph-name="gbreve" unicode="&#x11f;" horiz-adv-x="455" 
d="M3.5 -222.5q-39.5 18.5 -62 48.5t-20.5 63l3 7q50 38 181 113l1 8q-27 15 -41.5 49.5t-14.5 81.5q0 74 33.5 147.5t86 120.5t105.5 47l96 -17l10 24l8 3l51 -14l10 -13q-63 -119 -72 -199q-3 -22 -5.5 -65.5t-3.5 -62.5q-1 -20 -3.5 -58t-4.5 -54q-6 -56 -50.5 -114
t-106 -96t-116.5 -38q-45 0 -84.5 18.5zM240.5 171q44.5 73 99.5 197q-60 30 -96 30q-25 0 -49 -29t-39 -75.5t-15 -94.5q0 -41 10 -71t24 -30q21 0 65.5 73zM230 -127q42 43 51 118l25 201l-9 2q-49 -88 -78 -126.5t-63 -62.5l-56 -38q-45 -31 -64 -45t-19 -22
q0 -16 16 -32.5t41.5 -27t51.5 -10.5q62 0 104 43zM337 645.5q28 17.5 44 49.5l12 -1l18 -21q-19 -50 -55.5 -84t-87.5 -34q-52 0 -80 34t-34 84l23 21l12 1q9 -32 32.5 -49.5t55.5 -17.5t60 17.5z" />
    <glyph glyph-name="Gdotaccent" unicode="&#x120;" horiz-adv-x="636" 
d="M544 312q27 2 35 3l2 -28q-32 -21 -42 -86q-5 -33 -10 -73.5t-5 -53.5l1 -32l-8 -10q0 -1 -31.5 -12.5t-79.5 -21.5t-105 -10q-79 0 -138 32.5t-91 92.5t-32 141q0 115 47.5 205t132 140.5t191.5 50.5q36 0 76.5 -5t69.5 -10.5t37 -7.5l3 -9q-2 -6 -10 -29t-18.5 -61
t-18.5 -81l-65 -5q1 7 5 27.5t4 32.5q0 77 -118 77q-66 0 -116 -36.5t-77.5 -104t-27.5 -159.5q0 -106 44 -166.5t122 -60.5q31 0 57.5 7.5t42 15.5t19.5 11l13 113q1 8 1 20q0 19 -9 25.5t-34 6.5h-60l-2 6l16 56q1 0 39.5 -1.5t86.5 -1.5q26 0 53 2zM355 726.5
q-13 14.5 -13 37.5q0 32 21.5 54t54.5 22q24 0 37 -15t13 -38q0 -31 -22 -53t-53 -22q-25 0 -38 14.5z" />
    <glyph glyph-name="gdotaccent" unicode="&#x121;" horiz-adv-x="455" 
d="M3.5 -222.5q-39.5 18.5 -62 48.5t-20.5 63l3 7q50 38 181 113l1 8q-27 15 -41.5 49.5t-14.5 81.5q0 74 33.5 147.5t86 120.5t105.5 47l96 -17l10 24l8 3l51 -14l10 -13q-63 -119 -72 -199q-3 -22 -5.5 -65.5t-3.5 -62.5q-1 -20 -3.5 -58t-4.5 -54q-6 -56 -50.5 -114
t-106 -96t-116.5 -38q-45 0 -84.5 18.5zM240.5 171q44.5 73 99.5 197q-60 30 -96 30q-25 0 -49 -29t-39 -75.5t-15 -94.5q0 -41 10 -71t24 -30q21 0 65.5 73zM230 -127q42 43 51 118l25 201l-9 2q-49 -88 -78 -126.5t-63 -62.5l-56 -38q-45 -31 -64 -45t-19 -22
q0 -16 16 -32.5t41.5 -27t51.5 -10.5q62 0 104 43zM237 611q-13 15 -13 37q0 32 21.5 54t53.5 22q24 0 37 -15t13 -37q0 -32 -22 -54t-53 -22q-24 0 -37 15z" />
    <glyph glyph-name="Gcommaaccent" unicode="&#x122;" horiz-adv-x="636" 
d="M544 312q27 2 35 3l2 -28q-32 -21 -42 -86q-5 -33 -10 -73.5t-5 -53.5l1 -32l-8 -10q0 -1 -31.5 -12.5t-79.5 -21.5t-105 -10q-79 0 -138 32.5t-91 92.5t-32 141q0 115 47.5 205t132 140.5t191.5 50.5q36 0 76.5 -5t69.5 -10.5t37 -7.5l3 -9q-2 -6 -10 -29t-18.5 -61
t-18.5 -81l-65 -5q1 7 5 27.5t4 32.5q0 77 -118 77q-66 0 -116 -36.5t-77.5 -104t-27.5 -159.5q0 -106 44 -166.5t122 -60.5q31 0 57.5 7.5t42 15.5t19.5 11l13 113q1 8 1 20q0 19 -9 25.5t-34 6.5h-60l-2 6l16 56q1 0 39.5 -1.5t86.5 -1.5q26 0 53 2zM305 -60q26 0 43 -21
t17 -56q0 -49 -39.5 -92t-96.5 -74l-26 21v13q31 19 51 47t20 53q0 19 -10.5 36.5t-27.5 28.5l2 14q39 30 67 30z" />
    <glyph glyph-name="gcommaaccent" unicode="&#x123;" horiz-adv-x="455" 
d="M3.5 -222.5q-39.5 18.5 -62 48.5t-20.5 63l3 7q50 38 181 113l1 8q-27 15 -41.5 49.5t-14.5 81.5q0 74 33.5 147.5t86 120.5t105.5 47l96 -17l10 24l8 3l51 -14l10 -13q-63 -119 -72 -199q-3 -22 -5.5 -65.5t-3.5 -62.5q-1 -20 -3.5 -58t-4.5 -54q-6 -56 -50.5 -114
t-106 -96t-116.5 -38q-45 0 -84.5 18.5zM240.5 171q44.5 73 99.5 197q-60 30 -96 30q-25 0 -49 -29t-39 -75.5t-15 -94.5q0 -41 10 -71t24 -30q21 0 65.5 73zM230 -127q42 43 51 118l25 201l-9 2q-49 -88 -78 -126.5t-63 -62.5l-56 -38q-45 -31 -64 -45t-19 -22
q0 -16 16 -32.5t41.5 -27t51.5 -10.5q62 0 104 43zM309 513q-27 0 -44 22t-17 57q0 43 32.5 87.5t91.5 81.5l27 -19l1 -13q-29 -22 -46 -49.5t-17 -51.5q0 -19 11 -37t31 -29l-1 -15q-39 -34 -69 -34z" />
    <glyph glyph-name="Hcircumflex" unicode="&#x124;" horiz-adv-x="722" 
d="M721 647l-10 -52q-36 -5 -50 -16.5t-19 -39.5q-65 -398 -65 -445q0 -24 7.5 -33.5t27.5 -9.5q25 0 41 3l1 -5l-14 -52q-90 3 -119 3h-35l-54 -1q-34 -2 -39 -1l14 52q30 1 46 9t24.5 29.5t14.5 63.5l18 143l-130 1q-26 0 -152 -10l-16 -116q-2 -20 -4 -28q-1 -9 -3 -26
t-2 -27q0 -9 1 -12q1 -15 8.5 -20.5t24.5 -5.5q10 0 40 3q2 -2 2 -5l-15 -52q-15 1 -42 2t-52 1q-40 0 -90 -3.5t-61 -7.5l12 52q34 7 51 17.5t25 31.5t12 63l47 382q2 18 2 23q0 18 -7 24.5t-24 6.5l-31 -2l-3 5l13 49l31 -1l79 -2q28 0 120 9l-10 -52q-28 -5 -41 -12
t-19.5 -22.5t-11.5 -49.5l-25 -155q98 -2 146 -2q40 0 133 8l21 173q2 18 2 23q0 18 -6.5 24.5t-23.5 6.5l-32 -2l-3 5l14 49q2 0 29.5 -1t79.5 -2q41 0 122 9zM362 803.5q51 38.5 73 54.5h16q1 1 85 -77l43 -39l-23 -30l-12 -2l-38 21q-68 40 -74 41l-62 -30l-65 -32l-11 2
l-15 30q32 23 83 61.5z" />
    <glyph glyph-name="hcircumflex" unicode="&#x125;" horiz-adv-x="497" 
d="M381 87.5q11 8.5 55 47.5l15 -2l14 -29q-60 -61 -96 -88t-58 -27q-38 0 -38 35q0 19 9 52.5t26 89.5q18 58 28 96.5t10 59.5q0 17 -8.5 28t-22.5 11q-28 0 -75.5 -72.5t-95.5 -189.5l-11 -79q-1 -8 -29.5 -18.5t-49.5 -10.5l-9 12q15 93 54.5 350.5t40.5 287.5
q1 21 -8.5 30.5t-31.5 9.5h-38l7 47q42 0 99 3t75 4l11 -14q-5 -21 -21.5 -96.5t-38 -186.5t-37.5 -216l5 -2q48 96 96 159.5t90 88.5q40 0 66.5 -28.5t26.5 -70.5q0 -25 -11.5 -65.5t-33.5 -103.5q-3 -8 -17 -49t-19 -68l3 -4q7 0 18 8.5zM121 865.5q51 38.5 73 54.5h16
q1 1 85 -77l43 -39l-23 -30l-12 -2l-38 21q-68 40 -74 41l-62 -30l-65 -32l-11 2l-15 30q32 23 83 61.5z" />
    <glyph glyph-name="Hbar" unicode="&#x126;" horiz-adv-x="722" 
d="M627 448q-50 -316 -50 -354q0 -24 7.5 -33.5t27.5 -9.5q25 0 41 3l1 -5l-14 -52q-90 3 -119 3h-35l-54 -1q-34 -2 -39 -1l14 52q30 1 46 9t24.5 29.5t14.5 63.5l18 143l-130 1q-26 0 -152 -10l-16 -116q-2 -20 -4 -28q-1 -9 -3 -26t-2 -27q0 -9 1 -12q1 -15 8.5 -20.5
t24.5 -5.5q10 0 40 3q2 -2 2 -5l-15 -52q-15 1 -42 2t-52 1q-40 0 -90 -3.5t-61 -7.5l12 52q34 7 51 17.5t25 31.5t12 63l36 293h-95l-9 9l7 43h103l5 37q2 18 2 23q0 18 -7 24.5t-24 6.5l-31 -2l-3 5l13 49l31 -1l79 -2q28 0 120 9l-10 -52q-28 -5 -41 -12t-19.5 -22.5
t-11.5 -49.5l-2 -14h154q78 0 118 1l5 37q2 18 2 23q0 18 -6.5 24.5t-23.5 6.5l-32 -2l-3 5l14 49q2 0 29.5 -1t79.5 -2q41 0 122 9l-10 -52q-36 -5 -50 -16.5t-19 -39.5l-6 -39l84 2l14 -14l-5 -40h-102zM528 447h-135h-139l-15 -91q98 -2 146 -2q40 0 133 8z" />
    <glyph glyph-name="hbar" unicode="&#x127;" horiz-adv-x="497" 
d="M465 104q-60 -61 -96 -88t-58 -27q-38 0 -38 35q0 19 9 52.5t26 89.5q18 58 28 96.5t10 59.5q0 17 -8.5 28t-22.5 11q-28 0 -75.5 -72.5t-95.5 -189.5l-11 -79q-1 -8 -29.5 -18.5t-49.5 -10.5l-9 12q9 54 35.5 226.5t43.5 289.5l-88 -1l-9 10l7 42l97 -1l3 25q6 36 6 47
q1 21 -8.5 30.5t-31.5 9.5h-38l7 47q42 0 99 3t75 4l11 -14q-3 -11 -11.5 -50t-21.5 -101l111 4l13 -13l-4 -41l-131 -1q-33 -162 -53 -297l5 -2q48 96 96 159.5t90 88.5q40 0 66.5 -28.5t26.5 -70.5q0 -25 -11.5 -65.5t-33.5 -103.5q-3 -8 -17 -49t-19 -68l3 -4q7 0 18 8.5
t55 47.5l15 -2z" />
    <glyph glyph-name="Imacron" unicode="&#x12a;" horiz-adv-x="349" 
d="M223 257q-21 -136 -21 -164q0 -24 8 -33t27 -9q17 0 30 1t17 2l3 -5l-15 -52q-14 1 -53.5 2t-79.5 1q-32 0 -71 -4.5t-51 -6.5l14 52q45 9 62.5 26.5t21.5 59.5l51 408q2 18 2 22q0 18 -7 25t-24 7q-11 0 -22.5 -1t-15.5 -1q0 1 -1 2.5t-1 2.5l13 49l24 -1q54 -2 98 -2
q27 0 68 3.5t54 5.5l-12 -52q-39 -5 -53.5 -16t-19.5 -40q-25 -146 -46 -282zM378 716l-137 -1l-136 -1l-7 10l20 58l147 -1q30 0 70.5 2.5t53.5 3.5l6 -12z" />
    <glyph glyph-name="imacron" unicode="&#x12b;" horiz-adv-x="277" 
d="M294.8 574l-125.117 -1l-125.118 -1l-6.43945 10l17.4795 58l136.157 -1q27.5996 0 64.8594 2.5q37.2588 2.5 49.2188 3.5l4.59961 -12zM162.5 88.5q12.5 9.5 53.5 45.5l14 -1l15 -29q-58 -60 -95 -88t-59 -28q-19 0 -28 10t-9 31q21 128 35 223t14 110q0 22 -9 31t-31 9
h-38l8 47q79 0 174 7l10 -13q-23 -77 -45 -179t-33 -181l4 -4q7 0 19.5 9.5z" />
    <glyph glyph-name="Ibreve" unicode="&#x12c;" horiz-adv-x="349" 
d="M223 257q-21 -136 -21 -164q0 -24 8 -33t27 -9q17 0 30 1t17 2l3 -5l-15 -52q-14 1 -53.5 2t-79.5 1q-32 0 -71 -4.5t-51 -6.5l14 52q45 9 62.5 26.5t21.5 59.5l51 408q2 18 2 22q0 18 -7 25t-24 7q-11 0 -22.5 -1t-15.5 -1q0 1 -1 2.5t-1 2.5l13 49l24 -1q54 -2 98 -2
q27 0 68 3.5t54 5.5l-12 -52q-39 -5 -53.5 -16t-19.5 -40q-25 -146 -46 -282zM304 792q28 14 43 40l11 -1l19 -20q-19 -45 -55 -75.5t-87 -30.5t-79.5 30.5t-36.5 75.5l24 20l12 1q10 -26 34 -40t55 -14q32 0 60 14z" />
    <glyph glyph-name="ibreve" unicode="&#x12d;" horiz-adv-x="286" 
d="M271 615.5q28 17.5 44 49.5l12 -1l18 -21q-19 -50 -55.5 -84t-87.5 -34q-52 0 -80 34t-34 84l23 21l12 1q9 -32 32.5 -49.5t55.5 -17.5t60 17.5zM190.5 88.5q12.5 9.5 53.5 45.5l14 -1l15 -29q-58 -60 -95 -88t-59 -28q-19 0 -28 10t-9 31q21 128 35 223t14 110
q0 22 -9 31t-31 9h-38l8 47q79 0 174 7l10 -13q-23 -77 -45 -179t-33 -181l4 -4q7 0 19.5 9.5z" />
    <glyph glyph-name="Iogonek" unicode="&#x12e;" horiz-adv-x="349" 
d="M223 257q-21 -136 -21 -164q0 -24 8 -33t27 -9q17 0 30 1t17 2l3 -5l-15 -52q-14 1 -53.5 2t-79.5 1q-32 0 -71 -4.5t-51 -6.5l14 52q45 9 62.5 26.5t21.5 59.5l51 408q2 18 2 22q0 18 -7 25t-24 7q-11 0 -22.5 -1t-15.5 -1q0 1 -1 2.5t-1 2.5l13 49l24 -1q54 -2 98 -2
q27 0 68 3.5t54 5.5l-12 -52q-39 -5 -53.5 -16t-19.5 -40q-25 -146 -46 -282zM205 -221q-24 -17 -53 -26q-46 0 -74 22.5t-28 61.5q0 28 18 57.5t46.5 58.5t86.5 83h51q-73 -71 -99 -105.5t-26 -67.5q0 -19 12 -31t32 -12q21 0 42 8t32 15l13 -25q-29 -22 -53 -39z" />
    <glyph glyph-name="iogonek" unicode="&#x12f;" horiz-adv-x="272" 
d="M142.5 597.5q-12.5 14.5 -12.5 36.5q0 32 21 54t53 22q23 0 35.5 -14t12.5 -36q0 -32 -21 -54.5t-52 -22.5q-24 0 -36.5 14.5zM216 69q-62 -60 -90 -89.5t-43.5 -56.5t-15.5 -54q0 -19 12 -31t32 -12q21 0 42 8t32 15l13 -25q-29 -22 -53 -39t-53 -26q-46 0 -74 22.5
t-28 61.5q0 32 23 65.5t72 80.5q-24 6 -24 40q8 47 28.5 179.5t20.5 153.5q0 22 -9 31t-31 9h-38l8 47q41 0 98.5 3t75.5 4l10 -13q-4 -14 -18 -67t-31.5 -133t-28.5 -160l4 -4q7 0 19.5 9.5t53.5 45.5l14 -1l15 -29z" />
    <glyph glyph-name="Idotaccent" unicode="&#x130;" horiz-adv-x="349" 
d="M223 257q-21 -136 -21 -164q0 -24 8 -33t27 -9q17 0 30 1t17 2l3 -5l-15 -52q-14 1 -53.5 2t-79.5 1q-32 0 -71 -4.5t-51 -6.5l14 52q45 9 62.5 26.5t21.5 59.5l51 408q2 18 2 22q0 18 -7 25t-24 7q-11 0 -22.5 -1t-15.5 -1q0 1 -1 2.5t-1 2.5l13 49l24 -1q54 -2 98 -2
q27 0 68 3.5t54 5.5l-12 -52q-39 -5 -53.5 -16t-19.5 -40q-25 -146 -46 -282zM199 726.5q-13 14.5 -13 37.5q0 32 21.5 54t54.5 22q24 0 37 -15t13 -38q0 -31 -22 -53t-53 -22q-25 0 -38 14.5z" />
    <glyph glyph-name="dotlessi" unicode="&#x131;" horiz-adv-x="272" 
d="M169.5 88.5q12.5 9.5 53.5 45.5l14 -1l15 -29q-58 -60 -95 -88t-59 -28q-19 0 -28 10t-9 31q21 128 35 223t14 110q0 22 -9 31t-31 9h-38l8 47q79 0 174 7l10 -13q-23 -77 -45 -179t-33 -181l4 -4q7 0 19.5 9.5z" />
    <glyph glyph-name="IJ" unicode="&#x132;" horiz-adv-x="665" 
d="M223 257q-21 -136 -21 -164q0 -24 8 -33t27 -9q17 0 30 1t17 2l3 -5l-15 -52q-14 1 -53.5 2t-79.5 1q-32 0 -71 -4.5t-51 -6.5l14 52q45 9 62.5 26.5t21.5 59.5l51 408q2 18 2 22q0 18 -7 25t-24 7q-11 0 -22.5 -1t-15.5 -1q0 1 -1 2.5t-1 2.5l13 49l24 -1q54 -2 98 -2
q27 0 68 3.5t54 5.5l-12 -52q-39 -5 -53.5 -16t-19.5 -40q-25 -146 -46 -282zM507 558q0 17 -7 23.5t-23 6.5q-13 0 -26.5 -1.5t-18.5 -2.5l-1 5l12 49h110q32 1 72.5 4.5t53.5 4.5l-10 -52q-34 -6 -45 -16t-16 -40q-15 -92 -33.5 -213.5t-31.5 -214.5
q-13 -101 -61.5 -162.5t-142.5 -95.5l-17 35l3 9q44 26 68.5 53.5t38 66.5t21.5 101l52 417q2 18 2 23z" />
    <glyph glyph-name="ij" unicode="&#x133;" horiz-adv-x="528" 
d="M169.5 88.5q12.5 9.5 53.5 45.5l14 -1l15 -29q-58 -60 -95 -88t-59 -28q-19 0 -28 10t-9 31q21 128 35 223t14 110q0 22 -9 31t-31 9h-38l8 47q79 0 174 7l10 -13q-23 -77 -45 -179t-33 -181l4 -4q7 0 19.5 9.5zM134 582q-13 15 -13 37q0 32 21.5 54t53.5 22q24 0 37 -15
t13 -37q0 -32 -22 -54t-53 -22q-24 0 -37 15zM416.5 597q-13.5 14 -13.5 37q0 32 21.5 54t52.5 22q22 0 35.5 -13.5t13.5 -36.5q0 -33 -21.5 -55t-52.5 -22q-22 0 -35.5 14zM354 -139.5q-46 -63.5 -125 -102.5l-20 23l3 10q39 29 63 59t38 74t23 113q8 46 29 174.5t21 149.5
q0 22 -10 31.5t-32 9.5h-38l9 47q41 0 97.5 3t74.5 4l11 -13q-5 -19 -20.5 -86t-34.5 -161t-30 -176q-13 -96 -59 -159.5z" />
    <glyph glyph-name="Jcircumflex" unicode="&#x134;" horiz-adv-x="316" 
d="M158 558q0 17 -7 23.5t-23 6.5q-13 0 -26.5 -1.5t-18.5 -2.5l-1 5l12 49h110q32 1 72.5 4.5t53.5 4.5l-10 -52q-34 -6 -45 -16t-16 -40q-15 -92 -33.5 -213.5t-31.5 -214.5q-13 -101 -61.5 -162.5t-142.5 -95.5l-17 35l3 9q44 26 68.5 53.5t38 66.5t21.5 101l52 417
q2 18 2 23zM153.5 797q62.5 61 84.5 83h17q17 -22 64.5 -83t55.5 -70l-24 -30l-12 -2l-50 43q-47 44 -54 48l-56 -41l-70 -50l-12 2l-17 30q11 9 73.5 70z" />
    <glyph glyph-name="jcircumflex" unicode="&#x135;" horiz-adv-x="256" 
d="M82 -139.5q-46 -63.5 -125 -102.5l-20 23l3 10q39 29 63 59t38 74t23 113q8 46 29 174.5t21 149.5q0 22 -10 31.5t-32 9.5h-38l9 47q41 0 97.5 3t74.5 4l11 -13q-5 -19 -20.5 -86t-34.5 -161t-30 -176q-13 -96 -59 -159.5zM101.5 615q62.5 61 84.5 83h17q17 -22 64.5 -83
t55.5 -70l-24 -30l-12 -2l-50 43q-47 44 -54 48l-56 -41l-70 -50l-12 2l-17 30q11 9 73.5 70z" />
    <glyph glyph-name="Kcommaaccent" unicode="&#x136;" horiz-adv-x="616" 
d="M168 558q0 18 -7 24.5t-24 6.5q-9 0 -18.5 -1t-12.5 -1l-3 5l13 50q13 -1 48.5 -2.5t67.5 -1.5q26 0 64.5 3.5t50.5 5.5l-10 -52q-37 -6 -51.5 -18.5t-19.5 -40.5l-62 -418q-2 -12 -2 -29q0 -21 8 -29.5t27 -8.5q14 0 25.5 1t15.5 2l3 -5l-16 -52q-14 1 -51 2t-75 1
q-40 0 -74 -1t-46 -1l16 52q45 5 60.5 20t19.5 57l51 408q2 18 2 23zM438 508q35 34 35 55q0 24 -52 28l-3 5l13 49q12 -1 50 -4t62 -3q31 0 59.5 1.5t38.5 2.5l3 -7l-12 -47q-28 -8 -52.5 -26.5t-72.5 -66.5l-159 -155l122 -211q27 -46 50.5 -65.5t56.5 -20.5l4 -5l-11 -41
q-12 -2 -47 -6.5t-43 -4.5q-52 0 -97 85l-130 244l4 17zM371 -60q26 0 43 -21t17 -56q0 -49 -39.5 -92t-96.5 -74l-26 21v13q31 19 51 47t20 53q0 19 -10.5 36.5t-27.5 28.5l2 14q39 30 67 30z" />
    <glyph glyph-name="kcommaaccent" unicode="&#x137;" horiz-adv-x="444" 
d="M219 198q60 30 92 61.5t32 67.5q0 15 -8.5 24.5t-21.5 9.5q-28 0 -77 -73.5t-97 -189.5l-10 -78q-2 -8 -30 -18.5t-49 -10.5l-10 12q15 94 55.5 355t40.5 285q0 20 -9.5 29t-30.5 9h-39l7 47q42 0 99.5 3t75.5 4l10 -14q-5 -21 -21.5 -96.5t-38 -186.5t-37.5 -216l5 -2
q48 96 96 159.5t90 88.5q40 0 66.5 -27.5t26.5 -68.5q0 -46 -37.5 -93t-108.5 -91q35 -58 74.5 -113t39.5 -53l1 -14l-81 -30l-13 7l-97 198zM216 -60q26 0 43 -21t17 -56q0 -49 -39.5 -92t-96.5 -74l-26 21v13q31 19 51 47t20 53q0 19 -10.5 36.5t-27.5 28.5l2 14
q39 30 67 30z" />
    <glyph glyph-name="kgreenlandic" unicode="&#x138;" horiz-adv-x="478" 
d="M331 -15l-97 198l5 15q60 31 92.5 62t32.5 67q0 15 -8.5 24.5t-22.5 9.5q-28 0 -77 -73.5t-97 -189.5l-10 -78q-1 -8 -29.5 -18.5t-49.5 -10.5l-10 12q8 51 31 193t24 166q1 21 -9 30.5t-32 9.5h-38l8 47q41 0 98.5 3t75.5 4l9 -14q-3 -9 -13 -41.5t-22 -81t-20 -96.5
l6 -3q47 95 95 159t91 89q40 0 66 -27.5t26 -68.5q0 -46 -37.5 -93t-108.5 -91q36 -58 70 -105.5t44 -60.5l1 -14l-81 -30z" />
    <glyph glyph-name="Lacute" unicode="&#x139;" horiz-adv-x="497" 
d="M80.5 -4q-42.5 -4 -54.5 -6l14 53q38 6 54 24t21 61l50 407q2 18 2 23q0 18 -7 24.5t-23 6.5q-10 0 -19.5 -1t-12.5 -1q0 1 -1 2.5t-1 2.5l13 49l26 -1q52 -2 91 -2q26 0 67 3.5t54 5.5l-11 -53q-32 -5 -45 -11t-20 -21.5t-14 -54.5q-16 -86 -38 -233t-22 -172
q0 -28 13.5 -37t53.5 -9q54 0 81.5 10.5t44 40t33.5 94.5l59 6l3 -6q-5 -17 -21 -76.5t-31 -125.5l-7 -8q-27 2 -113.5 5.5t-148.5 3.5q-48 0 -90.5 -4zM285 735q-65 -20 -133 -44l-10 7l-9 33q62 31 126 64t83 43l10 -5l20 -60l-4 -12q-18 -6 -83 -26z" />
    <glyph glyph-name="lacute" unicode="&#x13a;" horiz-adv-x="258" 
d="M156.5 88.5q12.5 9.5 54.5 45.5l14 -1l15 -29q-58 -60 -95 -88t-59 -28q-38 0 -38 37q0 6 36 235q10 67 33 217t23 165q0 21 -9 30t-31 9h-38l7 47q42 0 99 3t75 4l11 -14q-7 -31 -29.5 -140.5t-49.5 -251t-41 -246.5l3 -4q7 0 19.5 9.5zM240.5 881q-53.5 -39 -108.5 -85
l-11 3l-25 27q48 49 96 102.5t62 69.5l11 -2l45 -53l-1 -12q-15 -11 -68.5 -50z" />
    <glyph glyph-name="Lcommaaccent" unicode="&#x13b;" horiz-adv-x="497" 
d="M80.5 -4q-42.5 -4 -54.5 -6l14 53q38 6 54 24t21 61l50 407q2 18 2 23q0 18 -7 24.5t-23 6.5q-10 0 -19.5 -1t-12.5 -1q0 1 -1 2.5t-1 2.5l13 49l26 -1q52 -2 91 -2q26 0 67 3.5t54 5.5l-11 -53q-32 -5 -45 -11t-20 -21.5t-14 -54.5q-16 -86 -38 -233t-22 -172
q0 -28 13.5 -37t53.5 -9q54 0 81.5 10.5t44 40t33.5 94.5l59 6l3 -6q-5 -17 -21 -76.5t-31 -125.5l-7 -8q-27 2 -113.5 5.5t-148.5 3.5q-48 0 -90.5 -4zM252 -60q26 0 43 -21t17 -56q0 -49 -39.5 -92t-96.5 -74l-26 21v13q31 19 51 47t20 53q0 19 -10.5 36.5t-27.5 28.5
l2 14q39 30 67 30z" />
    <glyph glyph-name="lcommaaccent" unicode="&#x13c;" horiz-adv-x="258" 
d="M156.5 88.5q12.5 9.5 54.5 45.5l14 -1l15 -29q-58 -60 -95 -88t-59 -28q-38 0 -38 37q0 6 36 235q10 67 33 217t23 165q0 21 -9 30t-31 9h-38l7 47q42 0 99 3t75 4l11 -14q-7 -31 -29.5 -140.5t-49.5 -251t-41 -246.5l3 -4q7 0 19.5 9.5zM100 -60q26 0 43 -21t17 -56
q0 -49 -39.5 -92t-96.5 -74l-26 21v13q31 19 51 47t20 53q0 19 -10.5 36.5t-27.5 28.5l2 14q39 30 67 30z" />
    <glyph glyph-name="Lcaron" unicode="&#x13d;" horiz-adv-x="507" 
d="M80.5 -4q-42.5 -4 -54.5 -6l14 53q38 6 54 24t21 61l50 407q2 18 2 23q0 18 -7 24.5t-23 6.5q-10 0 -19.5 -1t-12.5 -1q0 1 -1 2.5t-1 2.5l13 49l26 -1q52 -2 91 -2q26 0 67 3.5t54 5.5l-11 -53q-32 -5 -45 -11t-20 -21.5t-14 -54.5q-16 -86 -38 -233t-22 -172
q0 -28 13.5 -37t53.5 -9q54 0 81.5 10.5t44 40t33.5 94.5l59 6l3 -6q-5 -17 -21 -76.5t-31 -125.5l-7 -8q-27 2 -113.5 5.5t-148.5 3.5q-48 0 -90.5 -4zM515.5 544q-17.5 -65 -40.5 -130l-36 -16l-12 3q11 70 16 139t5 83l84 14l6 -9q-5 -19 -22.5 -84z" />
    <glyph glyph-name="lcaron" unicode="&#x13e;" horiz-adv-x="358" 
d="M156.5 88.5q12.5 9.5 54.5 45.5l14 -1l15 -29q-58 -60 -95 -88t-59 -28q-38 0 -38 37q0 6 36 235q10 67 33 217t23 165q0 21 -9 30t-31 9h-38l7 47q42 0 99 3t75 4l11 -14q-7 -31 -29.5 -140.5t-49.5 -251t-41 -246.5l3 -4q7 0 19.5 9.5zM365 626q-17 -65 -38 -130
l-38 -16l-12 3q11 70 16 139t5 83l84 14l5 -9q-5 -19 -22 -84z" />
    <glyph glyph-name="Ldot" unicode="&#x13f;" horiz-adv-x="527" 
d="M80.5 -4q-42.5 -4 -54.5 -6l14 53q38 6 54 24t21 61l50 407q2 18 2 23q0 18 -7 24.5t-23 6.5q-10 0 -19.5 -1t-12.5 -1q0 1 -1 2.5t-1 2.5l13 49l26 -1q52 -2 91 -2q26 0 67 3.5t54 5.5l-11 -53q-32 -5 -45 -11t-20 -21.5t-14 -54.5q-16 -86 -38 -233t-22 -172
q0 -28 13.5 -37t53.5 -9q54 0 81.5 10.5t44 40t33.5 94.5l59 6l3 -6q-5 -17 -21 -76.5t-31 -125.5l-7 -8q-27 2 -113.5 5.5t-148.5 3.5q-48 0 -90.5 -4zM394 421.5q-14 15.5 -14 40.5q0 33 22 56t56 23q27 0 41.5 -15.5t14.5 -40.5q0 -34 -22 -56.5t-57 -22.5
q-27 0 -41 15.5z" />
    <glyph glyph-name="ldot" unicode="&#x140;" horiz-adv-x="371" 
d="M156.5 88.5q12.5 9.5 54.5 45.5l14 -1l15 -29q-58 -60 -95 -88t-59 -28q-38 0 -38 37q0 6 36 235q10 67 33 217t23 165q0 21 -9 30t-31 9h-38l7 47q42 0 99 3t75 4l11 -14q-7 -31 -29.5 -140.5t-49.5 -251t-41 -246.5l3 -4q7 0 19.5 9.5zM231 231.5q-14 15.5 -14 40.5
q0 33 22 56t56 23q27 0 41.5 -15.5t14.5 -40.5q0 -34 -22 -56.5t-57 -22.5q-27 0 -41 15.5z" />
    <glyph glyph-name="Lslash" unicode="&#x141;" horiz-adv-x="501" 
d="M494 201q-5 -17 -21 -76.5t-31 -125.5l-7 -8q-27 2 -113 5.5t-149 3.5q-48 0 -90.5 -4t-54.5 -6l14 53q38 6 54 24t21 61l20 164l-88 -44l-9 3l-10 45l115 57l22 182q2 18 2 23q0 18 -7 24.5t-23 6.5q-10 0 -19.5 -1t-12.5 -1q0 1 -1 2.5t-1 2.5l13 49l26 -1q52 -2 91 -2
q26 0 67 3.5t54 5.5l-11 -53q-32 -5 -45 -11t-20 -21.5t-14 -54.5l-19 -113l129 64l8 -5l10 -43l-157 -77q-31 -201 -31 -231q0 -28 13.5 -37t53.5 -9q54 0 81.5 10.5t44 40t33.5 94.5l59 6z" />
    <glyph glyph-name="lslash" unicode="&#x142;" horiz-adv-x="284" 
d="M238 133l15 -29q-58 -60 -95 -88t-59 -28q-38 0 -38 37q0 9 33 218l13 85l-61 -33l-9 2l-11 44l91 50q36 235 36 251q0 21 -9 30t-31 9h-38l7 47q42 0 99 3t75 4l11 -14q-5 -23 -22.5 -106.5t-36.5 -181.5l61 33l9 -4l11 -44l-94 -50q-33 -172 -48 -285l3 -4
q7 0 19.5 9.5t54.5 45.5z" />
    <glyph glyph-name="Nacute" unicode="&#x143;" horiz-adv-x="695" 
d="M564 545q4 43 -27 43l-35 -1l-2 5l14 50q11 -1 41.5 -2.5t62.5 -1.5q27 0 60 3.5t43 4.5l-11 -53q-33 -5 -50.5 -19.5t-21.5 -43.5l-80 -552l-59 -14q-61 127 -119.5 242t-96.5 186t-48 89h-6l-52 -389q-1 -5 -1 -14q0 -15 6.5 -21t21.5 -6l45 1l3 -5l-15 -51
q-11 1 -43 2.5t-67 1.5q-28 0 -60 -3.5t-42 -4.5l13 52q30 4 46 18.5t20 44.5l64 425q1 5 1 14q0 22 -16.5 32t-58.5 15l-3 7l12 43q10 -1 41 -3t53 -2q23 0 45.5 1.5t29.5 2.5q52 -108 105.5 -212t89 -171t45.5 -85h6zM446 735q-65 -20 -133 -44l-10 7l-9 33q62 31 126 64
t83 43l10 -5l20 -60l-4 -12q-18 -6 -83 -26z" />
    <glyph glyph-name="nacute" unicode="&#x144;" horiz-adv-x="506" 
d="M479 104q-59 -60 -95.5 -87.5t-58.5 -27.5q-38 0 -38 35q0 19 9 52.5t26 89.5q18 58 28 96.5t10 59.5q0 17 -8.5 28t-21.5 11q-28 0 -75.5 -73t-95.5 -191l-10 -77q-2 -8 -30 -18.5t-49 -10.5l-10 12q18 102 35.5 219t19.5 140q1 21 -9 30.5t-32 9.5h-38l8 47q58 0 174 7
l9 -14q-15 -45 -30 -107t-24 -113l5 -2q47 96 94.5 159.5t90.5 88.5q39 0 64.5 -27.5t25.5 -70.5q0 -25 -10 -61t-34 -111q-28 -81 -35 -115l3 -4q7 0 19.5 9.5t53.5 46.5l15 -2zM336.5 607q-53.5 -39 -108.5 -85l-11 3l-25 27q48 49 96 102.5t62 69.5l11 -2l45 -53l-1 -12
q-15 -11 -68.5 -50z" />
    <glyph glyph-name="Ncommaaccent" unicode="&#x145;" horiz-adv-x="695" 
d="M564 545q4 43 -27 43l-35 -1l-2 5l14 50q11 -1 41.5 -2.5t62.5 -1.5q27 0 60 3.5t43 4.5l-11 -53q-33 -5 -50.5 -19.5t-21.5 -43.5l-80 -552l-59 -14q-61 127 -119.5 242t-96.5 186t-48 89h-6l-52 -389q-1 -5 -1 -14q0 -15 6.5 -21t21.5 -6l45 1l3 -5l-15 -51
q-11 1 -43 2.5t-67 1.5q-28 0 -60 -3.5t-42 -4.5l13 52q30 4 46 18.5t20 44.5l64 425q1 5 1 14q0 22 -16.5 32t-58.5 15l-3 7l12 43q10 -1 41 -3t53 -2q23 0 45.5 1.5t29.5 2.5q52 -108 105.5 -212t89 -171t45.5 -85h6zM319 -60q26 0 43 -21t17 -56q0 -49 -39.5 -92
t-96.5 -74l-26 21v13q31 19 51 47t20 53q0 19 -10.5 36.5t-27.5 28.5l2 14q39 30 67 30z" />
    <glyph glyph-name="ncommaaccent" unicode="&#x146;" horiz-adv-x="506" 
d="M479 104q-59 -60 -95.5 -87.5t-58.5 -27.5q-38 0 -38 35q0 19 9 52.5t26 89.5q18 58 28 96.5t10 59.5q0 17 -8.5 28t-21.5 11q-28 0 -75.5 -73t-95.5 -191l-10 -77q-2 -8 -30 -18.5t-49 -10.5l-10 12q18 102 35.5 219t19.5 140q1 21 -9 30.5t-32 9.5h-38l8 47q58 0 174 7
l9 -14q-15 -45 -30 -107t-24 -113l5 -2q47 96 94.5 159.5t90.5 88.5q39 0 64.5 -27.5t25.5 -70.5q0 -25 -10 -61t-34 -111q-28 -81 -35 -115l3 -4q7 0 19.5 9.5t53.5 46.5l15 -2zM228 -60q26 0 43 -21t17 -56q0 -49 -39.5 -92t-96.5 -74l-26 21v13q31 19 51 47t20 53
q0 19 -10.5 36.5t-27.5 28.5l2 14q39 30 67 30z" />
    <glyph glyph-name="Ncaron" unicode="&#x147;" horiz-adv-x="695" 
d="M564 545q4 43 -27 43l-35 -1l-2 5l14 50q11 -1 41.5 -2.5t62.5 -1.5q27 0 60 3.5t43 4.5l-11 -53q-33 -5 -50.5 -19.5t-21.5 -43.5l-80 -552l-59 -14q-61 127 -119.5 242t-96.5 186t-48 89h-6l-52 -389q-1 -5 -1 -14q0 -15 6.5 -21t21.5 -6l45 1l3 -5l-15 -51
q-11 1 -43 2.5t-67 1.5q-28 0 -60 -3.5t-42 -4.5l13 52q30 4 46 18.5t20 44.5l64 425q1 5 1 14q0 22 -16.5 32t-58.5 15l-3 7l12 43q10 -1 41 -3t53 -2q23 0 45.5 1.5t29.5 2.5q52 -108 105.5 -212t89 -171t45.5 -85h6zM481 755.5q-51 -38.5 -73 -54.5h-16
q-18 16 -59.5 54.5t-67.5 61.5l21 30l13 2q10 -4 68 -38l43 -24l63 31q57 30 64 31l12 -2l15 -30q-32 -23 -83 -61.5z" />
    <glyph glyph-name="ncaron" unicode="&#x148;" horiz-adv-x="506" 
d="M479 104q-59 -60 -95.5 -87.5t-58.5 -27.5q-38 0 -38 35q0 19 9 52.5t26 89.5q18 58 28 96.5t10 59.5q0 17 -8.5 28t-21.5 11q-28 0 -75.5 -73t-95.5 -191l-10 -77q-2 -8 -30 -18.5t-49 -10.5l-10 12q18 102 35.5 219t19.5 140q1 21 -9 30.5t-32 9.5h-38l8 47q58 0 174 7
l9 -14q-15 -45 -30 -107t-24 -113l5 -2q47 96 94.5 159.5t90.5 88.5q39 0 64.5 -27.5t25.5 -70.5q0 -25 -10 -61t-34 -111q-28 -81 -35 -115l3 -4q7 0 19.5 9.5t53.5 46.5l15 -2zM190 716q35 -34 108 -95q89 61 131 95l11 -2l18 -31q-48 -44 -98.5 -94t-65.5 -65h-16
q-11 15 -49.5 65t-75.5 94l26 31z" />
    <glyph glyph-name="Eng" unicode="&#x14a;" horiz-adv-x="696" 
d="M240.5 640.5q24.5 1.5 34.5 2.5q44 -94 96.5 -197t90.5 -174.5t49 -91.5h7l44 364q1 5 1 13q0 30 -28 30l-34 -1l-3 5l15 52q12 -1 44.5 -2.5t61.5 -1.5q26 0 60 3t44 4l-11 -54q-34 -4 -50 -18.5t-21 -44.5l-64 -443q-16 -98 -65.5 -155t-147.5 -89l-17 37l4 9
q49 21 79 49t47 69q-80 164 -160 317.5t-80 151.5h-7l-50 -381q-1 -6 -1 -16q0 -14 6 -20t21 -6l46 2l3 -5l-16 -53q-12 1 -50.5 2.5t-71.5 1.5q-24 0 -54 -3.5t-39 -4.5l13 54q32 3 47 20t22 62l61 402q1 5 1 13q0 22 -16 32.5t-58 16.5l-4 7l12 45q11 -1 43 -3t49 -2
q22 0 46.5 1.5z" />
    <glyph glyph-name="eng" unicode="&#x14b;" horiz-adv-x="501" 
d="M310 93q22 83 35 140t13 89q0 17 -8.5 28t-22.5 11q-28 0 -75.5 -73t-95.5 -190l-10 -78q-2 -8 -30 -18.5t-49 -10.5l-10 12q8 51 30.5 193t23.5 166q1 21 -8.5 30.5t-31.5 9.5h-39l8 47q42 0 99 3t75 4l10 -14q-3 -9 -13 -41.5t-22 -81.5t-20 -97l5 -2q48 95 96 159
t90 89q40 0 65.5 -27.5t25.5 -70.5q0 -51 -63 -279q-14 -50 -19 -70q-29 -107 -73 -167t-126 -96l-20 23l3 10q43 28 66.5 56t39 69t36.5 121z" />
    <glyph glyph-name="Omacron" unicode="&#x14c;" horiz-adv-x="659" 
d="M161.5 21.5q-57.5 33.5 -89.5 94t-32 138.5q0 112 44.5 202.5t123 142t176.5 51.5q75 0 134 -33.5t92 -93.5t33 -138q0 -112 -45.5 -202.5t-125.5 -142.5t-179 -52q-74 0 -131.5 33.5zM423 89q49 38 76.5 107t27.5 159q0 103 -44.5 163.5t-119.5 60.5q-61 0 -109.5 -38.5
t-75.5 -107.5t-27 -158q0 -103 43.5 -163.5t116.5 -60.5q63 0 112 38zM526 716l-137 -1l-136 -1l-7 10l20 58l147 -1q30 0 70.5 2.5t53.5 3.5l6 -12z" />
    <glyph glyph-name="omacron" unicode="&#x14d;" horiz-adv-x="422" 
d="M65 34q-34 46 -34 124q0 83 32 154t86 113.5t118 42.5q60 0 93.5 -41t33.5 -116q0 -88 -31.5 -162t-86.5 -117.5t-120 -43.5q-57 0 -91 46zM270 109.5q28 56.5 28 150.5q0 64 -19 100t-54 36q-45 0 -73 -52.5t-28 -138.5q0 -70 19.5 -111t52.5 -41q46 0 74 56.5zM389 574
l-136 -1l-136 -1l-7 10l19 58l148 -1q30 0 70.5 2.5t53.5 3.5l5 -12z" />
    <glyph glyph-name="Obreve" unicode="&#x14e;" horiz-adv-x="659" 
d="M161.5 21.5q-57.5 33.5 -89.5 94t-32 138.5q0 112 44.5 202.5t123 142t176.5 51.5q75 0 134 -33.5t92 -93.5t33 -138q0 -112 -45.5 -202.5t-125.5 -142.5t-179 -52q-74 0 -131.5 33.5zM423 89q49 38 76.5 107t27.5 159q0 103 -44.5 163.5t-119.5 60.5q-61 0 -109.5 -38.5
t-75.5 -107.5t-27 -158q0 -103 43.5 -163.5t116.5 -60.5q63 0 112 38zM452 799.5q28 17.5 44 49.5l12 -1l18 -21q-19 -50 -55.5 -84t-87.5 -34q-52 0 -80 34t-34 84l23 21l12 1q9 -32 32.5 -49.5t55.5 -17.5t60 17.5z" />
    <glyph glyph-name="obreve" unicode="&#x14f;" horiz-adv-x="422" 
d="M65 34q-34 46 -34 124q0 83 32 154t86 113.5t118 42.5q60 0 93.5 -41t33.5 -116q0 -88 -31.5 -162t-86.5 -117.5t-120 -43.5q-57 0 -91 46zM270 109.5q28 56.5 28 150.5q0 64 -19 100t-54 36q-45 0 -73 -52.5t-28 -138.5q0 -70 19.5 -111t52.5 -41q46 0 74 56.5z
M311 617.5q28 17.5 44 49.5l12 -1l18 -21q-19 -50 -55.5 -84t-87.5 -34q-52 0 -80 34t-34 84l23 21l12 1q9 -32 32.5 -49.5t55.5 -17.5t60 17.5z" />
    <glyph glyph-name="Ohungarumlaut" unicode="&#x150;" horiz-adv-x="659" 
d="M161.5 21.5q-57.5 33.5 -89.5 94t-32 138.5q0 112 44.5 202.5t123 142t176.5 51.5q75 0 134 -33.5t92 -93.5t33 -138q0 -112 -45.5 -202.5t-125.5 -142.5t-179 -52q-74 0 -131.5 33.5zM423 89q49 38 76.5 107t27.5 159q0 103 -44.5 163.5t-119.5 60.5q-61 0 -109.5 -38.5
t-75.5 -107.5t-27 -158q0 -103 43.5 -163.5t116.5 -60.5q63 0 112 38zM381.5 748q-49.5 -27 -102.5 -58l-10 5l-15 26q55 44 97 78.5t56 45.5l10 -3l31 -50l-3 -10q-14 -7 -63.5 -34zM533 740.5q-50 -26.5 -102 -57.5l-9 4l-16 26q55 44 97 79t55 46l10 -4l31 -49l-2 -11
q-14 -7 -64 -33.5z" />
    <glyph glyph-name="ohungarumlaut" unicode="&#x151;" horiz-adv-x="422" 
d="M65 34q-34 46 -34 124q0 83 32 154t86 113.5t118 42.5q60 0 93.5 -41t33.5 -116q0 -88 -31.5 -162t-86.5 -117.5t-120 -43.5q-57 0 -91 46zM270 109.5q28 56.5 28 150.5q0 64 -19 100t-54 36q-45 0 -73 -52.5t-28 -138.5q0 -70 19.5 -111t52.5 -41q46 0 74 56.5z
M256 612.5q-46 -36.5 -94 -79.5l-11 1l-22 22q40 46 80.5 95t52.5 63l10 -2l44 -43l-1 -10q-13 -10 -59 -46.5zM391 612.5q-46 -36.5 -94 -79.5l-11 1l-22 22q40 46 80.5 95t52.5 63l10 -2l44 -43l-1 -10q-13 -10 -59 -46.5z" />
    <glyph glyph-name="OE" unicode="&#x152;" horiz-adv-x="915" 
d="M549 92q0 -21 12.5 -27t51.5 -6q71 0 103.5 8t48.5 31.5t31 79.5l62 6l3 -7q-5 -15 -20 -67.5t-27 -108.5l-8 -8q-32 1 -131.5 4.5t-165.5 3.5q-40 0 -133 -7q-68 -6 -94 -6q-71 0 -126 33.5t-85.5 93.5t-30.5 139q0 112 45 202t123.5 141.5t176.5 51.5q30 0 100 -6
q10 -1 48.5 -4t73.5 -3q185 0 298 15l4 -8q-2 -6 -9.5 -30.5t-17 -63t-16.5 -79.5l-68 -5q2 6 5.5 26t3.5 35q0 22 -10 32t-36 13.5t-82 3.5q-29 0 -41 -2t-16 -9.5t-7 -25.5l-30 -177l95 -1q21 0 62.5 4t54.5 6l4 -7l-22 -70q-13 1 -50.5 2t-78.5 1l-76 -7l-23 -170
q-2 -22 -2 -27zM423 88.5q37 34.5 48 117.5l33 255q2 22 2 31q0 33 -13.5 51.5t-43.5 26.5t-83 8q-60 0 -107.5 -38.5t-74.5 -108t-27 -160.5q0 -100 40 -158.5t110 -58.5q79 0 116 34.5z" />
    <glyph glyph-name="oe" unicode="&#x153;" horiz-adv-x="647" 
d="M582 145l22 -31q-28 -55 -77 -90.5t-97 -35.5q-42 0 -69.5 26t-38.5 73q-31 -47 -73.5 -73t-92.5 -26q-57 0 -91 46t-34 124q0 83 32 154t86 113.5t118 42.5q91 0 111 -104q32 48 75.5 76t88.5 28q43 0 67 -22.5t24 -62.5q0 -64 -55 -109t-185 -87q-2 -56 16 -89.5
t51 -33.5q29 0 57.5 22t48.5 61zM440 350.5q-33 -46.5 -43 -113.5q79 26 114.5 54t35.5 65q0 20 -9.5 30.5t-27.5 10.5q-37 0 -70 -46.5zM269 110.5q28 57.5 28 150.5q0 65 -19 100t-53 35q-29 0 -52 -25t-36 -69.5t-13 -100.5q0 -67 20 -107.5t52 -40.5q45 0 73 57.5z" />
    <glyph glyph-name="Racute" unicode="&#x154;" horiz-adv-x="600" 
d="M206 130q-3 -24 -3 -40q0 -26 12.5 -33.5t49.5 -7.5l2 -4l-14 -49l-113 3q-32 1 -70.5 -1t-50.5 -3l15 53q44 5 60.5 20.5t21.5 58.5l50 409q2 18 2 22q0 18 -6.5 24.5t-22.5 6.5q-10 0 -20 -1t-13 -1l-3 5l14 50q12 -1 45 -2.5t66 -1.5q23 0 61.5 2t51.5 3
q91 0 148.5 -38.5t57.5 -104.5q0 -67 -39 -121t-114 -89l77 -164q22 -46 45 -65.5t59 -19.5l4 -6l-11 -40l-95 -11q-28 0 -51.5 24.5t-40.5 69.5l-72 188h-84zM403.5 369.5q38.5 33.5 38.5 110.5q0 107 -149 107q-10 0 -13.5 -4.5t-6.5 -18.5q-22 -109 -37 -231l93 -10
q36 13 74.5 46.5zM399 735q-65 -20 -133 -44l-10 7l-9 33q62 31 126 64t83 43l10 -5l20 -60l-4 -12q-18 -6 -83 -26z" />
    <glyph glyph-name="racute" unicode="&#x155;" horiz-adv-x="360" 
d="M89 194.5q23 141.5 23 166.5q0 22 -9.5 31.5t-31.5 9.5h-39l8 47q42 0 99 3t75 4l10 -14q-5 -17 -21 -75t-27 -116l4 -1q42 93 92.5 152t90.5 62q9 -5 16 -21t8 -33q-1 -20 -5.5 -39t-9 -31.5t-5.5 -15.5l-22 -2q-6 21 -23 21q-34 0 -78.5 -59t-83.5 -158l-14 -106
q-2 -8 -30 -18.5t-49 -10.5l-10 12q9 50 32 191.5zM276.5 607q-53.5 -39 -108.5 -85l-11 3l-25 27q48 49 96 102.5t62 69.5l11 -2l45 -53l-1 -12q-15 -11 -68.5 -50z" />
    <glyph glyph-name="Rcommaaccent" unicode="&#x156;" horiz-adv-x="600" 
d="M206 130q-3 -24 -3 -40q0 -26 12.5 -33.5t49.5 -7.5l2 -4l-14 -49l-113 3q-32 1 -70.5 -1t-50.5 -3l15 53q44 5 60.5 20.5t21.5 58.5l50 409q2 18 2 22q0 18 -6.5 24.5t-22.5 6.5q-10 0 -20 -1t-13 -1l-3 5l14 50q12 -1 45 -2.5t66 -1.5q23 0 61.5 2t51.5 3
q91 0 148.5 -38.5t57.5 -104.5q0 -67 -39 -121t-114 -89l77 -164q22 -46 45 -65.5t59 -19.5l4 -6l-11 -40l-95 -11q-28 0 -51.5 24.5t-40.5 69.5l-72 188h-84zM403.5 369.5q38.5 33.5 38.5 110.5q0 107 -149 107q-10 0 -13.5 -4.5t-6.5 -18.5q-22 -109 -37 -231l93 -10
q36 13 74.5 46.5zM271 -60q26 0 43 -21t17 -56q0 -49 -39.5 -92t-96.5 -74l-26 21v13q31 19 51 47t20 53q0 19 -10.5 36.5t-27.5 28.5l2 14q39 30 67 30z" />
    <glyph glyph-name="rcommaaccent" unicode="&#x157;" horiz-adv-x="360" 
d="M89 194.5q23 141.5 23 166.5q0 22 -9.5 31.5t-31.5 9.5h-39l8 47q42 0 99 3t75 4l10 -14q-5 -17 -21 -75t-27 -116l4 -1q42 93 92.5 152t90.5 62q9 -5 16 -21t8 -33q-1 -20 -5.5 -39t-9 -31.5t-5.5 -15.5l-22 -2q-6 21 -23 21q-34 0 -78.5 -59t-83.5 -158l-14 -106
q-2 -8 -30 -18.5t-49 -10.5l-10 12q9 50 32 191.5zM107 -60q26 0 43 -21t17 -56q0 -49 -39.5 -92t-96.5 -74l-26 21v13q31 19 51 47t20 53q0 19 -10.5 36.5t-27.5 28.5l2 14q39 30 67 30z" />
    <glyph glyph-name="Rcaron" unicode="&#x158;" horiz-adv-x="600" 
d="M206 130q-3 -24 -3 -40q0 -26 12.5 -33.5t49.5 -7.5l2 -4l-14 -49l-113 3q-32 1 -70.5 -1t-50.5 -3l15 53q44 5 60.5 20.5t21.5 58.5l50 409q2 18 2 22q0 18 -6.5 24.5t-22.5 6.5q-10 0 -20 -1t-13 -1l-3 5l14 50q12 -1 45 -2.5t66 -1.5q23 0 61.5 2t51.5 3
q91 0 148.5 -38.5t57.5 -104.5q0 -67 -39 -121t-114 -89l77 -164q22 -46 45 -65.5t59 -19.5l4 -6l-11 -40l-95 -11q-28 0 -51.5 24.5t-40.5 69.5l-72 188h-84zM403.5 369.5q38.5 33.5 38.5 110.5q0 107 -149 107q-10 0 -13.5 -4.5t-6.5 -18.5q-22 -109 -37 -231l93 -10
q36 13 74.5 46.5zM434 755.5q-51 -38.5 -73 -54.5h-16q-18 16 -59.5 54.5t-67.5 61.5l21 30l13 2q10 -4 68 -38l43 -24l63 31q57 30 64 31l12 -2l15 -30q-32 -23 -83 -61.5z" />
    <glyph glyph-name="rcaron" unicode="&#x159;" horiz-adv-x="360" 
d="M89 194.5q23 141.5 23 166.5q0 22 -9.5 31.5t-31.5 9.5h-39l8 47q42 0 99 3t75 4l10 -14q-5 -17 -21 -75t-27 -116l4 -1q42 93 92.5 152t90.5 62q9 -5 16 -21t8 -33q-1 -20 -5.5 -39t-9 -31.5t-5.5 -15.5l-22 -2q-6 21 -23 21q-34 0 -78.5 -59t-83.5 -158l-14 -106
q-2 -8 -30 -18.5t-49 -10.5l-10 12q9 50 32 191.5zM130 716q35 -34 108 -95q89 61 131 95l11 -2l18 -31q-48 -44 -98.5 -94t-65.5 -65h-16q-11 15 -49.5 65t-75.5 94l26 31z" />
    <glyph glyph-name="Sacute" unicode="&#x15a;" horiz-adv-x="513" 
d="M114 -4q-37 8 -58.5 16t-27.5 11l-5 12q2 6 8.5 30t14.5 62.5t13 79.5l58 6q-5 -45 -5 -70q0 -54 22 -73.5t80 -19.5q59 0 96 29.5t37 76.5q0 34 -26.5 59.5t-78.5 54.5q-54 31 -83.5 51t-51.5 51.5t-22 72.5q0 57 32.5 104t89.5 74t127 27q40 0 76 -5.5t57.5 -11.5
t27.5 -8l3 -8q-4 -14 -17.5 -63t-24.5 -107l-52 -5l-7 6q2 7 6 28t4 37q0 38 -22 54t-75 16q-51 0 -86 -27.5t-35 -67.5q0 -28 18.5 -50t53.5 -45l47 -28q48 -26 78 -47.5t50.5 -51t20.5 -67.5q0 -61 -33 -109t-93 -75t-138 -27q-42 0 -79 8zM367 735q-65 -20 -133 -44
l-10 7l-9 33q62 31 126 64t83 43l10 -5l20 -60l-4 -12q-18 -6 -83 -26z" />
    <glyph glyph-name="sacute" unicode="&#x15b;" horiz-adv-x="352" 
d="M86.5 74q24.5 -26 68.5 -26q26 0 45 16.5t19 40.5q0 21 -16 39.5t-48 42.5q-47 37 -70.5 65t-23.5 67q0 40 23 74.5t62.5 54.5t84.5 20q35 0 65.5 -10.5t46.5 -29.5q-18 -50 -40 -88h-16q-11 31 -32.5 48t-48.5 17q-23 0 -38 -14t-15 -35q0 -26 30 -54q16 -14 37 -31
q43 -33 66 -61.5t23 -66.5q0 -40 -24.5 -76t-66 -57.5t-88.5 -21.5q-49 0 -83 15.5t-43 42.5q6 24 18.5 54.5t22.5 45.5h17q0 -46 24.5 -72zM254.5 607q-53.5 -39 -108.5 -85l-11 3l-25 27q48 49 96 102.5t62 69.5l11 -2l45 -53l-1 -12q-15 -11 -68.5 -50z" />
    <glyph glyph-name="Scircumflex" unicode="&#x15c;" horiz-adv-x="513" 
d="M114 -4q-37 8 -58.5 16t-27.5 11l-5 12q2 6 8.5 30t14.5 62.5t13 79.5l58 6q-5 -45 -5 -70q0 -54 22 -73.5t80 -19.5q59 0 96 29.5t37 76.5q0 34 -26.5 59.5t-78.5 54.5q-54 31 -83.5 51t-51.5 51.5t-22 72.5q0 57 32.5 104t89.5 74t127 27q40 0 76 -5.5t57.5 -11.5
t27.5 -8l3 -8q-4 -14 -17.5 -63t-24.5 -107l-52 -5l-7 6q2 7 6 28t4 37q0 38 -22 54t-75 16q-51 0 -86 -27.5t-35 -67.5q0 -28 18.5 -50t53.5 -45l47 -28q48 -26 78 -47.5t50.5 -51t20.5 -67.5q0 -61 -33 -109t-93 -75t-138 -27q-42 0 -79 8zM270 803.5q51 38.5 73 54.5h16
q1 1 85 -77l43 -39l-23 -30l-12 -2l-38 21q-68 40 -74 41l-62 -30l-65 -32l-11 2l-15 30q32 23 83 61.5z" />
    <glyph glyph-name="scircumflex" unicode="&#x15d;" horiz-adv-x="352" 
d="M86.5 74q24.5 -26 68.5 -26q26 0 45 16.5t19 40.5q0 21 -16 39.5t-48 42.5q-47 37 -70.5 65t-23.5 67q0 40 23 74.5t62.5 54.5t84.5 20q35 0 65.5 -10.5t46.5 -29.5q-18 -50 -40 -88h-16q-11 31 -32.5 48t-48.5 17q-23 0 -38 -14t-15 -35q0 -26 30 -54q16 -14 37 -31
q43 -33 66 -61.5t23 -66.5q0 -40 -24.5 -76t-66 -57.5t-88.5 -21.5q-49 0 -83 15.5t-43 42.5q6 24 18.5 54.5t22.5 45.5h17q0 -46 24.5 -72zM148.5 615q62.5 61 84.5 83h17q17 -22 64.5 -83t55.5 -70l-24 -30l-12 -2l-50 43q-47 44 -54 48l-56 -41l-70 -50l-12 2l-17 30
q11 9 73.5 70z" />
    <glyph glyph-name="Scedilla" unicode="&#x15e;" horiz-adv-x="513" 
d="M114 -4q-37 8 -58.5 16t-27.5 11l-5 12q2 6 8.5 30t14.5 62.5t13 79.5l58 6q-5 -45 -5 -70q0 -54 22 -73.5t80 -19.5q59 0 96 29.5t37 76.5q0 34 -26.5 59.5t-78.5 54.5q-54 31 -83.5 51t-51.5 51.5t-22 72.5q0 57 32.5 104t89.5 74t127 27q40 0 76 -5.5t57.5 -11.5
t27.5 -8l3 -8q-4 -14 -17.5 -63t-24.5 -107l-52 -5l-7 6q2 7 6 28t4 37q0 38 -22 54t-75 16q-51 0 -86 -27.5t-35 -67.5q0 -28 18.5 -50t53.5 -45l47 -28q48 -26 78 -47.5t50.5 -51t20.5 -67.5q0 -61 -33 -109t-93 -75t-138 -27q-42 0 -79 8zM264 26l-31 -73q4 -3 27 -19.5
t36.5 -34.5t13.5 -35q0 -25 -20.5 -48t-52 -37t-62.5 -14q-25 0 -45.5 10t-20.5 27q0 16 38 62h8q-2 -27 10 -42t35 -15q19 0 33 10.5t14 26.5q0 15 -20 32t-54 39l45 111h46z" />
    <glyph glyph-name="scedilla" unicode="&#x15f;" horiz-adv-x="352" 
d="M86.5 74q24.5 -26 68.5 -26q26 0 45 16.5t19 40.5q0 21 -16 39.5t-48 42.5q-47 37 -70.5 65t-23.5 67q0 40 23 74.5t62.5 54.5t84.5 20q35 0 65.5 -10.5t46.5 -29.5q-18 -50 -40 -88h-16q-11 31 -32.5 48t-48.5 17q-23 0 -38 -14t-15 -35q0 -26 30 -54q16 -14 37 -31
q43 -33 66 -61.5t23 -66.5q0 -40 -24.5 -76t-66 -57.5t-88.5 -21.5q-49 0 -83 15.5t-43 42.5q6 24 18.5 54.5t22.5 45.5h17q0 -46 24.5 -72zM183 26l-31 -73q4 -3 27 -19.5t36.5 -34.5t13.5 -35q0 -25 -20.5 -48t-52 -37t-62.5 -14q-25 0 -45.5 10t-20.5 27q0 16 38 62h8
q-2 -27 10 -42t35 -15q19 0 33 10.5t14 26.5q0 15 -20 32t-54 39l45 111h46z" />
    <glyph glyph-name="Scaron" unicode="&#x160;" horiz-adv-x="513" 
d="M114 -4q-37 8 -58.5 16t-27.5 11l-5 12q2 6 8.5 30t14.5 62.5t13 79.5l58 6q-5 -45 -5 -70q0 -54 22 -73.5t80 -19.5q59 0 96 29.5t37 76.5q0 34 -26.5 59.5t-78.5 54.5q-54 31 -83.5 51t-51.5 51.5t-22 72.5q0 57 32.5 104t89.5 74t127 27q40 0 76 -5.5t57.5 -11.5
t27.5 -8l3 -8q-4 -14 -17.5 -63t-24.5 -107l-52 -5l-7 6q2 7 6 28t4 37q0 38 -22 54t-75 16q-51 0 -86 -27.5t-35 -67.5q0 -28 18.5 -50t53.5 -45l47 -28q48 -26 78 -47.5t50.5 -51t20.5 -67.5q0 -61 -33 -109t-93 -75t-138 -27q-42 0 -79 8zM402 755.5q-51 -38.5 -73 -54.5
h-16q-18 16 -59.5 54.5t-67.5 61.5l21 30l13 2q10 -4 68 -38l43 -24l63 31q57 30 64 31l12 -2l15 -30q-32 -23 -83 -61.5z" />
    <glyph glyph-name="scaron" unicode="&#x161;" horiz-adv-x="352" 
d="M86.5 74q24.5 -26 68.5 -26q26 0 45 16.5t19 40.5q0 21 -16 39.5t-48 42.5q-47 37 -70.5 65t-23.5 67q0 40 23 74.5t62.5 54.5t84.5 20q35 0 65.5 -10.5t46.5 -29.5q-18 -50 -40 -88h-16q-11 31 -32.5 48t-48.5 17q-23 0 -38 -14t-15 -35q0 -26 30 -54q16 -14 37 -31
q43 -33 66 -61.5t23 -66.5q0 -40 -24.5 -76t-66 -57.5t-88.5 -21.5q-49 0 -83 15.5t-43 42.5q6 24 18.5 54.5t22.5 45.5h17q0 -46 24.5 -72zM108 716q35 -34 108 -95q89 61 131 95l11 -2l18 -31q-48 -44 -98.5 -94t-65.5 -65h-16q-11 15 -49.5 65t-75.5 94l26 31z" />
    <glyph glyph-name="uni0162" unicode="&#x162;" horiz-adv-x="534" 
d="M162.5 575q-27.5 -8 -39.5 -30t-27 -86l-61 -5q4 17 16 74t20 113l11 8l84 -11h300l89 11l9 -8q-6 -56 -8 -111t-2 -71l-60 -5q-1 67 -7.5 90t-30 31t-90.5 11q-15 -73 -43.5 -265t-28.5 -219t11 -39t35 -12q21 0 35.5 1t18.5 2l2 -4l-15 -54q-17 1 -62.5 2.5t-89.5 1.5
q-31 0 -79.5 -2t-63.5 -3l14 50q47 5 66.5 13.5t28.5 30t16 74.5l51 423q-72 -3 -99.5 -11zM274 26l-31 -73q4 -3 27 -19.5t36.5 -34.5t13.5 -35q0 -25 -20.5 -48t-52 -37t-62.5 -14q-25 0 -45.5 10t-20.5 27q0 16 38 62h8q-2 -27 10 -42t35 -15q19 0 33 10.5t14 26.5
q0 15 -20 32t-54 39l45 111h46z" />
    <glyph glyph-name="uni0163" unicode="&#x163;" horiz-adv-x="294" 
d="M280 111q-46 -54 -87.5 -88.5t-64.5 -34.5q-34 0 -54 18t-20 50q0 9 1 13l53 324l-6 4l-66 3l-3 5l5 36l78 13l16 118l106 35l7 -12q-4 -12 -15.5 -54.5t-22.5 -89.5l117 1l4 -4l-9 -47l-113 1l-11 -6l-56 -284l-1 -9q0 -25 23 -25q13 0 34 14.5t57 49.5l15 -1zM154 26
l-31 -73q4 -3 27 -19.5t36.5 -34.5t13.5 -35q0 -25 -20.5 -48t-52 -37t-62.5 -14q-25 0 -45.5 10t-20.5 27q0 16 38 62h8q-2 -27 10 -42t35 -15q19 0 33 10.5t14 26.5q0 15 -20 32t-54 39l45 111h46z" />
    <glyph glyph-name="Tcaron" unicode="&#x164;" horiz-adv-x="534" 
d="M162.5 575q-27.5 -8 -39.5 -30t-27 -86l-61 -5q4 17 16 74t20 113l11 8l84 -11h300l89 11l9 -8q-6 -56 -8 -111t-2 -71l-60 -5q-1 67 -7.5 90t-30 31t-90.5 11q-15 -73 -43.5 -265t-28.5 -219t11 -39t35 -12q21 0 35.5 1t18.5 2l2 -4l-15 -54q-17 1 -62.5 2.5t-89.5 1.5
q-31 0 -79.5 -2t-63.5 -3l14 50q47 5 66.5 13.5t28.5 30t16 74.5l51 423q-72 -3 -99.5 -11zM400 755.5q-51 -38.5 -73 -54.5h-16q-18 16 -59.5 54.5t-67.5 61.5l21 30l13 2q10 -4 68 -38l43 -24l63 31q57 30 64 31l12 -2l15 -30q-32 -23 -83 -61.5z" />
    <glyph glyph-name="tcaron" unicode="&#x165;" horiz-adv-x="364" 
d="M280 111q-46 -54 -87.5 -88.5t-64.5 -34.5q-34 0 -54 18t-20 50q0 9 1 13l53 324l-6 4l-66 3l-3 5l5 36l78 13l16 118l106 35l7 -12q-4 -12 -15.5 -54.5t-22.5 -89.5l117 1l4 -4l-9 -47l-113 1l-11 -6l-56 -284l-1 -9q0 -25 23 -25q13 0 34 14.5t57 49.5l15 -1zM389 650
q-17 -65 -38 -130l-38 -16l-12 3q11 70 16 139t5 83l84 14l5 -9q-5 -19 -22 -84z" />
    <glyph glyph-name="Tbar" unicode="&#x166;" horiz-adv-x="536" 
d="M564 641q-6 -56 -8 -111t-2 -71l-60 -5q-1 67 -7.5 90t-30 31t-90.5 11q-15 -75 -41 -250l90 4l14 -13l-5 -41l-107 -1q-23 -157 -23 -183q0 -27 11 -39t35 -12q21 0 35.5 1t18.5 2l2 -4l-15 -54q-17 1 -62.5 2.5t-89.5 1.5q-31 0 -79.5 -2t-63.5 -3l14 50
q47 5 66.5 13.5t28.5 30t16 74.5l15 122l-101 -1l-9 9l7 43l109 -1l30 251q-72 -3 -99.5 -11t-39.5 -30t-27 -86l-61 -5q4 17 16 74t20 113l11 8l84 -11h300l89 11z" />
    <glyph glyph-name="tbar" unicode="&#x167;" horiz-adv-x="294" 
d="M195 396l-21 -108l95 4l14 -13l-4 -41l-115 -1l-25 -125l-1 -9q0 -25 23 -25q13 0 34 14.5t57 49.5l15 -1l13 -30q-46 -54 -87.5 -88.5t-64.5 -34.5q-34 0 -54 18t-20 50q0 9 1 13l27 168l-72 -1l-10 9l7 43l84 -1l17 106l-6 4l-66 3l-3 5l5 36l78 13l16 118l106 35
l7 -12q-4 -12 -15.5 -54.5t-22.5 -89.5l117 1l4 -4l-9 -47l-113 1z" />
    <glyph glyph-name="Umacron" unicode="&#x16a;" horiz-adv-x="645" 
d="M190 200q0 -70 31.5 -107t92.5 -37q71 0 112.5 39.5t50.5 117.5q6 42 18.5 161.5t16.5 160.5q1 8 1 21q0 20 -6 26.5t-22 6.5q-11 0 -22.5 -1t-15.5 -1l-1 4l13 50q12 0 44.5 -1.5t64.5 -1.5q28 0 61 3.5t43 5.5l-12 -53q-28 -4 -41.5 -9.5t-19 -15t-8.5 -29.5l-40 -328
q-13 -108 -82.5 -166t-184.5 -58q-95 0 -144.5 45.5t-49.5 131.5q0 21 3 43l41 327q2 18 2 24q0 17 -6.5 23.5t-23.5 6.5q-10 0 -19.5 -1t-12.5 -1l-2 4l14 50q12 -1 47 -2t73 -1q25 0 60.5 3.5t46.5 5.5l-11 -53q-34 -4 -47.5 -16t-18.5 -39l-43 -293q-3 -25 -3 -46z
M522 716l-137 -1l-136 -1l-7 10l20 58l147 -1q30 0 70.5 2.5t53.5 3.5l6 -12z" />
    <glyph glyph-name="umacron" unicode="&#x16b;" horiz-adv-x="497" 
d="M477 104q-67 -66 -100.5 -91t-54.5 -25q-39 0 -39 32q0 15 40 195l-8 2q-84 -166 -169 -228q-46 0 -72 23.5t-26 64.5q0 33 38 159q12 41 22 79t10 52q0 18 -9.5 26.5t-30.5 8.5h-38l9 47q76 0 174 7l10 -13q-41 -119 -67.5 -210.5t-26.5 -115.5q0 -17 6.5 -24.5
t20.5 -7.5q26 0 75 76t103 201l16 93l11 5l78 -8l8 -10q-23 -78 -46.5 -178.5t-35.5 -176.5l4 -4q7 1 19 9.5t50 41.5l14 -1zM426 574l-136 -1l-136 -1l-7 10l19 58l148 -1q30 0 70.5 2.5t53.5 3.5l5 -12z" />
    <glyph glyph-name="Ubreve" unicode="&#x16c;" horiz-adv-x="645" 
d="M190 200q0 -70 31.5 -107t92.5 -37q71 0 112.5 39.5t50.5 117.5q6 42 18.5 161.5t16.5 160.5q1 8 1 21q0 20 -6 26.5t-22 6.5q-11 0 -22.5 -1t-15.5 -1l-1 4l13 50q12 0 44.5 -1.5t64.5 -1.5q28 0 61 3.5t43 5.5l-12 -53q-28 -4 -41.5 -9.5t-19 -15t-8.5 -29.5l-40 -328
q-13 -108 -82.5 -166t-184.5 -58q-95 0 -144.5 45.5t-49.5 131.5q0 21 3 43l41 327q2 18 2 24q0 17 -6.5 23.5t-23.5 6.5q-10 0 -19.5 -1t-12.5 -1l-2 4l14 50q12 -1 47 -2t73 -1q25 0 60.5 3.5t46.5 5.5l-11 -53q-34 -4 -47.5 -16t-18.5 -39l-43 -293q-3 -25 -3 -46z
M448 799.5q28 17.5 44 49.5l12 -1l18 -21q-19 -50 -55.5 -84t-87.5 -34q-52 0 -80 34t-34 84l23 21l12 1q9 -32 32.5 -49.5t55.5 -17.5t60 17.5z" />
    <glyph glyph-name="ubreve" unicode="&#x16d;" horiz-adv-x="497" 
d="M477 104q-67 -66 -100.5 -91t-54.5 -25q-39 0 -39 32q0 15 40 195l-8 2q-84 -166 -169 -228q-46 0 -72 23.5t-26 64.5q0 33 38 159q12 41 22 79t10 52q0 18 -9.5 26.5t-30.5 8.5h-38l9 47q76 0 174 7l10 -13q-41 -119 -67.5 -210.5t-26.5 -115.5q0 -17 6.5 -24.5
t20.5 -7.5q26 0 75 76t103 201l16 93l11 5l78 -8l8 -10q-23 -78 -46.5 -178.5t-35.5 -176.5l4 -4q7 1 19 9.5t50 41.5l14 -1zM348 617.5q28 17.5 44 49.5l12 -1l18 -21q-19 -50 -55.5 -84t-87.5 -34q-52 0 -80 34t-34 84l23 21l12 1q9 -32 32.5 -49.5t55.5 -17.5t60 17.5z
" />
    <glyph glyph-name="Uring" unicode="&#x16e;" horiz-adv-x="645" 
d="M190 200q0 -70 31.5 -107t92.5 -37q71 0 112.5 39.5t50.5 117.5q6 42 18.5 161.5t16.5 160.5q1 8 1 21q0 20 -6 26.5t-22 6.5q-11 0 -22.5 -1t-15.5 -1l-1 4l13 50q12 0 44.5 -1.5t64.5 -1.5q28 0 61 3.5t43 5.5l-12 -53q-28 -4 -41.5 -9.5t-19 -15t-8.5 -29.5l-40 -328
q-13 -108 -82.5 -166t-184.5 -58q-95 0 -144.5 45.5t-49.5 131.5q0 21 3 43l41 327q2 18 2 24q0 17 -6.5 23.5t-23.5 6.5q-10 0 -19.5 -1t-12.5 -1l-2 4l14 50q12 -1 47 -2t73 -1q25 0 60.5 3.5t46.5 5.5l-11 -53q-34 -4 -47.5 -16t-18.5 -39l-43 -293q-3 -25 -3 -46z
M324 695.5q-18 19.5 -18 52.5q0 43 28 72t71 29q36 0 53 -20t17 -50q0 -42 -28 -72.5t-72 -30.5q-33 0 -51 19.5zM433 764q0 18 -11 28.5t-31 10.5q-21 0 -33 -11.5t-12 -31.5t13 -30t28 -10q46 0 46 44z" />
    <glyph glyph-name="uring" unicode="&#x16f;" horiz-adv-x="497" 
d="M477 104q-67 -66 -100.5 -91t-54.5 -25q-39 0 -39 32q0 15 40 195l-8 2q-84 -166 -169 -228q-46 0 -72 23.5t-26 64.5q0 33 38 159q12 41 22 79t10 52q0 18 -9.5 26.5t-30.5 8.5h-38l9 47q76 0 174 7l10 -13q-41 -119 -67.5 -210.5t-26.5 -115.5q0 -17 6.5 -24.5
t20.5 -7.5q26 0 75 76t103 201l16 93l11 5l78 -8l8 -10q-23 -78 -46.5 -178.5t-35.5 -176.5l4 -4q7 1 19 9.5t50 41.5l14 -1zM257 547.5q-18 19.5 -18 52.5q0 43 28 72t71 29q36 0 53.5 -20t17.5 -50q0 -42 -28 -72.5t-72 -30.5q-34 0 -52 19.5zM353 581q14 9 14 35
q0 18 -11 28.5t-31 10.5q-21 0 -33 -11.5t-12 -31.5t13 -30t28 -10q18 0 32 9z" />
    <glyph glyph-name="Uhungarumlaut" unicode="&#x170;" horiz-adv-x="645" 
d="M190 200q0 -70 31.5 -107t92.5 -37q71 0 112.5 39.5t50.5 117.5q6 42 18.5 161.5t16.5 160.5q1 8 1 21q0 20 -6 26.5t-22 6.5q-11 0 -22.5 -1t-15.5 -1l-1 4l13 50q12 0 44.5 -1.5t64.5 -1.5q28 0 61 3.5t43 5.5l-12 -53q-28 -4 -41.5 -9.5t-19 -15t-8.5 -29.5l-40 -328
q-13 -108 -82.5 -166t-184.5 -58q-95 0 -144.5 45.5t-49.5 131.5q0 21 3 43l41 327q2 18 2 24q0 17 -6.5 23.5t-23.5 6.5q-10 0 -19.5 -1t-12.5 -1l-2 4l14 50q12 -1 47 -2t73 -1q25 0 60.5 3.5t46.5 5.5l-11 -53q-34 -4 -47.5 -16t-18.5 -39l-43 -293q-3 -25 -3 -46z
M377.5 748q-49.5 -27 -102.5 -58l-10 5l-15 26q55 44 97 78.5t56 45.5l10 -3l31 -50l-3 -10q-14 -7 -63.5 -34zM529 740.5q-50 -26.5 -102 -57.5l-9 4l-16 26q55 44 97 79t55 46l10 -4l31 -49l-2 -11q-14 -7 -64 -33.5z" />
    <glyph glyph-name="uhungarumlaut" unicode="&#x171;" horiz-adv-x="497" 
d="M477 104q-67 -66 -100.5 -91t-54.5 -25q-39 0 -39 32q0 15 40 195l-8 2q-84 -166 -169 -228q-46 0 -72 23.5t-26 64.5q0 33 38 159q12 41 22 79t10 52q0 18 -9.5 26.5t-30.5 8.5h-38l9 47q76 0 174 7l10 -13q-41 -119 -67.5 -210.5t-26.5 -115.5q0 -17 6.5 -24.5
t20.5 -7.5q26 0 75 76t103 201l16 93l11 5l78 -8l8 -10q-23 -78 -46.5 -178.5t-35.5 -176.5l4 -4q7 1 19 9.5t50 41.5l14 -1zM293 612.5q-46 -36.5 -94 -79.5l-11 1l-22 22q40 46 80.5 95t52.5 63l10 -2l44 -43l-1 -10q-13 -10 -59 -46.5zM428 612.5q-46 -36.5 -94 -79.5
l-11 1l-22 22q40 46 80.5 95t52.5 63l10 -2l44 -43l-1 -10q-13 -10 -59 -46.5z" />
    <glyph glyph-name="Uogonek" unicode="&#x172;" horiz-adv-x="643" 
d="M629 641.5q33 3.5 43 5.5l-12 -53q-29 -5 -42.5 -10.5t-19 -15t-7.5 -28.5l-40 -328q-9 -66 -41.5 -115.5t-86.5 -105.5q-39 -41 -57.5 -67.5t-18.5 -54.5q0 -19 12 -31t32 -12q21 0 42 8t32 15l13 -25q-29 -22 -53 -39t-53 -26q-47 0 -74.5 22.5t-27.5 61.5
q0 30 22.5 66t74.5 89q-37 -10 -83 -10q-95 0 -144.5 45.5t-49.5 131.5q0 21 3 43l41 327q2 18 2 23q0 18 -7 24.5t-23 6.5q-10 0 -19.5 -1t-12.5 -1l-2 4l14 50q12 -1 47 -2t73 -1q25 0 60.5 3.5t46.5 5.5l-11 -53q-34 -4 -47.5 -16t-18.5 -39l-43 -293q-3 -25 -3 -46
q0 -71 31.5 -107.5t92.5 -36.5q71 0 112 39.5t51 117.5q6 42 18.5 161.5t16.5 160.5q1 8 1 21q0 20 -6 26.5t-22 6.5q-11 0 -22.5 -1t-15.5 -1l-1 4l13 50q12 0 44.5 -1.5t64.5 -1.5q28 0 61 3.5z" />
    <glyph glyph-name="uogonek" unicode="&#x173;" horiz-adv-x="495" 
d="M436 63q-77 -76 -109 -116.5t-32 -77.5q0 -19 12 -31t32 -12q21 0 42 8t32 15l13 -25q-29 -22 -53 -39t-53 -26q-46 0 -74 22.5t-28 61.5q0 32 22 65t69 81q-26 6 -26 31q0 15 40 195l-8 2q-84 -166 -169 -228q-46 0 -72 23.5t-26 64.5q0 33 38 159q12 41 22 79t10 52
q0 18 -9.5 26.5t-30.5 8.5h-38l9 47q76 0 174 7l10 -13q-41 -119 -67.5 -210.5t-26.5 -115.5q0 -17 6.5 -24.5t20.5 -7.5q26 0 75 76t103 201l16 93l11 5l78 -8l8 -10q-23 -78 -46.5 -178.5t-35.5 -176.5l4 -4q7 1 19 9.5t50 41.5l14 -1l15 -29z" />
    <glyph glyph-name="Wcircumflex" unicode="&#x174;" horiz-adv-x="909" 
d="M475 378h-8l-169 -373l-101 -21q-7 52 -32.5 224.5t-51.5 320.5q-5 30 -22 43.5t-49 15.5l-3 5l13 48q12 0 45 -1.5t65 -1.5q45 0 90 4.5t58 6.5l3 -8l-9 -46q-37 -3 -55.5 -8t-26 -13.5t-7.5 -24.5q0 -39 22 -210t30 -231h9q61 138 170 376q1 16 -2.5 30t-4.5 21
q-5 28 -20.5 39.5t-50.5 13.5l-2 5l13 48q13 0 48.5 -1.5t68.5 -1.5q40 0 87 4.5t61 6.5l2 -8l-10 -46q-37 -3 -56 -8t-26 -13t-7 -24q0 -35 22.5 -208t30.5 -234h9l26 58q81 180 125 280t44 116t-12.5 22.5t-41.5 6.5h-39l-3 5l13 49q12 -1 54 -4t80 -3q29 0 61.5 1.5
t42.5 2.5l-13 -54q-26 -2 -38 -11.5t-25 -37.5l-254 -534l-99 -21zM456 803.5q51 38.5 73 54.5h16q1 1 85 -77l43 -39l-23 -30l-12 -2l-38 21q-68 40 -74 41l-62 -30l-65 -32l-11 2l-15 30q32 23 83 61.5z" />
    <glyph glyph-name="wcircumflex" unicode="&#x175;" horiz-adv-x="659" 
d="M321 298l-18 138l7 12l76 20q16 -11 24.5 -32.5t8.5 -46.5q0 -30 -17 -73l24 -241h11q57 91 88 161.5t31 109.5q0 23 -13.5 44t-35.5 32l6 23l102 23q16 -12 24.5 -33.5t8.5 -47.5q0 -105 -196 -396l-75 -2l-16 13l-19 186h-8q-34 -67 -113 -197l-79 -2l-16 13
q-3 81 -13.5 183.5t-23.5 174.5q-4 22 -12 30t-26 8l-23 -2q-18 -2 -25 -2l4 46q26 3 53 7t52 7l55 8l11 -9q20 -181 19 -378h11q84 135 113 223zM316.5 615q62.5 61 84.5 83h17q17 -22 64.5 -83t55.5 -70l-24 -30l-12 -2l-50 43q-47 44 -54 48l-56 -41l-70 -50l-12 2
l-17 30q11 9 73.5 70z" />
    <glyph glyph-name="Ycircumflex" unicode="&#x176;" horiz-adv-x="540" 
d="M248 442q30 -98 39 -121h6l121 197q20 33 20 51q0 12 -11 18t-37 8l-2 4l12 45l26 -2q15 -1 43.5 -2.5t44.5 -1.5q25 0 55 1.5t39 2.5l3 -6l-13 -46q-31 -7 -50.5 -19.5t-35.5 -34t-52 -75.5l-115 -176q-15 -22 -21 -46t-15 -83l-5 -37q-2 -22 -2 -29q0 -22 8.5 -30.5
t28.5 -8.5q16 0 29.5 1t18.5 2l2 -4l-15 -54q-15 1 -55.5 2.5t-80.5 1.5q-32 0 -73.5 -4.5t-54.5 -6.5l13 52q37 7 55 17.5t26 29.5t12 57l4 39q2 22 2 32q0 34 -16 78l-67 186q-16 45 -25.5 64t-26.5 30.5t-50 15.5l-3 5l13 47q12 -1 44.5 -2.5t67.5 -1.5q33 0 81.5 3.5
t63.5 5.5l3 -8l-10 -43q-44 -4 -59.5 -11.5t-15.5 -24.5q0 -20 30 -118zM289 803.5q51 38.5 73 54.5h16q1 1 85 -77l43 -39l-23 -30l-12 -2l-38 21q-68 40 -74 41l-62 -30l-65 -32l-11 2l-15 30q32 23 83 61.5z" />
    <glyph glyph-name="ycircumflex" unicode="&#x177;" horiz-adv-x="446" 
d="M402 468q15 -10 24 -32t9 -48q0 -103 -183 -371q-92 -134 -154.5 -193.5t-112.5 -59.5q-31 0 -54 11.5t-29 29.5q8 49 28 84h14q31 -36 66 -36q58 0 135 101q-19 241 -43 406q-4 22 -12 30t-26 8l-22 -2q-18 -2 -25 -2l3 46l160 22l11 -9q17 -132 17 -348v-40h11
q60 98 92 170.5t32 109.5q0 22 -13 42.5t-36 34.5l6 23zM195.5 615q62.5 61 84.5 83h17q17 -22 64.5 -83t55.5 -70l-24 -30l-12 -2l-50 43q-47 44 -54 48l-56 -41l-70 -50l-12 2l-17 30q11 9 73.5 70z" />
    <glyph glyph-name="Ydieresis" unicode="&#x178;" horiz-adv-x="540" 
d="M248 442q30 -98 39 -121h6l121 197q20 33 20 51q0 12 -11 18t-37 8l-2 4l12 45l26 -2q15 -1 43.5 -2.5t44.5 -1.5q25 0 55 1.5t39 2.5l3 -6l-13 -46q-31 -7 -50.5 -19.5t-35.5 -34t-52 -75.5l-115 -176q-15 -22 -21 -46t-15 -83l-5 -37q-2 -22 -2 -29q0 -22 8.5 -30.5
t28.5 -8.5q16 0 29.5 1t18.5 2l2 -4l-15 -54q-15 1 -55.5 2.5t-80.5 1.5q-32 0 -73.5 -4.5t-54.5 -6.5l13 52q37 7 55 17.5t26 29.5t12 57l4 39q2 22 2 32q0 34 -16 78l-67 186q-16 45 -25.5 64t-26.5 30.5t-50 15.5l-3 5l13 47q12 -1 44.5 -2.5t67.5 -1.5q33 0 81.5 3.5
t63.5 5.5l3 -8l-10 -43q-44 -4 -59.5 -11.5t-15.5 -24.5q0 -20 30 -118zM229.5 729.5q-10.5 12.5 -10.5 31.5q0 27 18 45.5t45 18.5q20 0 31.5 -12.5t11.5 -31.5q0 -26 -18.5 -45t-45.5 -19q-21 0 -31.5 12.5zM395 729.5q-11 12.5 -11 31.5q0 26 18.5 45t44.5 19
q21 0 32 -12.5t11 -31.5q0 -26 -18.5 -45t-45.5 -19q-20 0 -31 12.5z" />
    <glyph glyph-name="Zacute" unicode="&#x179;" horiz-adv-x="551" 
d="M87 3l-71 -7l-12 37l418 549l-150 -7q-44 -2 -70 -14t-41.5 -39.5t-26.5 -77.5l-61 -5q5 19 19 82t23 120l11 9l168 -11l261 -5l9 -33q-197 -239 -426 -547l175 8q50 2 83 39.5t58 119.5l60 6q-3 -9 -12 -42.5t-20 -80.5t-18 -90l-18 -17zM393 735q-65 -20 -133 -44
l-10 7l-9 33q62 31 126 64t83 43l10 -5l20 -60l-4 -12q-18 -6 -83 -26z" />
    <glyph glyph-name="zacute" unicode="&#x17a;" horiz-adv-x="409" 
d="M64.5 365.5q12.5 48.5 19.5 92.5l20 10q26 -4 103 -15t104 -11q13 0 20 3t14 12l18 21l49 -18l5 -19q-178 -200 -292 -346l28 7q15 0 36.5 -4t28.5 -5q46 -10 68 -10q27 0 45.5 18t25.5 51l20 -2q10 -27 10 -51q0 -46 -28.5 -78.5t-68.5 -32.5q-18 0 -35 4.5t-31.5 9.5
t-18.5 7q-29 12 -51 18t-46 6q-46 0 -98 -32l-14 23l280 349l-89 1q-41 0 -61 -14t-32 -52l-46 -5q4 14 16.5 62.5zM283.5 607q-53.5 -39 -108.5 -85l-11 3l-25 27q48 49 96 102.5t62 69.5l11 -2l45 -53l-1 -12q-15 -11 -68.5 -50z" />
    <glyph glyph-name="Zdotaccent" unicode="&#x17b;" horiz-adv-x="551" 
d="M87 3l-71 -7l-12 37l418 549l-150 -7q-44 -2 -70 -14t-41.5 -39.5t-26.5 -77.5l-61 -5q5 19 19 82t23 120l11 9l168 -11l261 -5l9 -33q-197 -239 -426 -547l175 8q50 2 83 39.5t58 119.5l60 6q-3 -9 -12 -42.5t-20 -80.5t-18 -90l-18 -17zM312 726.5q-13 14.5 -13 37.5
q0 32 21.5 54t54.5 22q24 0 37 -15t13 -38q0 -31 -22 -53t-53 -22q-25 0 -38 14.5z" />
    <glyph glyph-name="zdotaccent" unicode="&#x17c;" horiz-adv-x="409" 
d="M64.5 365.5q12.5 48.5 19.5 92.5l20 10q26 -4 103 -15t104 -11q13 0 20 3t14 12l18 21l49 -18l5 -19q-178 -200 -292 -346l28 7q15 0 36.5 -4t28.5 -5q46 -10 68 -10q27 0 45.5 18t25.5 51l20 -2q10 -27 10 -51q0 -46 -28.5 -78.5t-68.5 -32.5q-18 0 -35 4.5t-31.5 9.5
t-18.5 7q-29 12 -51 18t-46 6q-46 0 -98 -32l-14 23l280 349l-89 1q-41 0 -61 -14t-32 -52l-46 -5q4 14 16.5 62.5zM205 583q-13 15 -13 37q0 32 21.5 54t53.5 22q24 0 37 -15t13 -37q0 -32 -22 -54t-53 -22q-24 0 -37 15z" />
    <glyph glyph-name="Zcaron" unicode="&#x17d;" horiz-adv-x="551" 
d="M87 3l-71 -7l-12 37l418 549l-150 -7q-44 -2 -70 -14t-41.5 -39.5t-26.5 -77.5l-61 -5q5 19 19 82t23 120l11 9l168 -11l261 -5l9 -33q-197 -239 -426 -547l175 8q50 2 83 39.5t58 119.5l60 6q-3 -9 -12 -42.5t-20 -80.5t-18 -90l-18 -17zM428 755.5q-51 -38.5 -73 -54.5
h-16q-18 16 -59.5 54.5t-67.5 61.5l21 30l13 2q10 -4 68 -38l43 -24l63 31q57 30 64 31l12 -2l15 -30q-32 -23 -83 -61.5z" />
    <glyph glyph-name="zcaron" unicode="&#x17e;" horiz-adv-x="409" 
d="M64.5 365.5q12.5 48.5 19.5 92.5l20 10q26 -4 103 -15t104 -11q13 0 20 3t14 12l18 21l49 -18l5 -19q-178 -200 -292 -346l28 7q15 0 36.5 -4t28.5 -5q46 -10 68 -10q27 0 45.5 18t25.5 51l20 -2q10 -27 10 -51q0 -46 -28.5 -78.5t-68.5 -32.5q-18 0 -35 4.5t-31.5 9.5
t-18.5 7q-29 12 -51 18t-46 6q-46 0 -98 -32l-14 23l280 349l-89 1q-41 0 -61 -14t-32 -52l-46 -5q4 14 16.5 62.5zM137 716q35 -34 108 -95q89 61 131 95l11 -2l18 -31q-48 -44 -98.5 -94t-65.5 -65h-16q-11 15 -49.5 65t-75.5 94l26 31z" />
    <glyph glyph-name="uni018F" unicode="&#x18f;" horiz-adv-x="635" 
d="M491 613q60 -36 93.5 -100t33.5 -145q0 -27 -2 -41q-10 -92 -60.5 -170t-127.5 -123.5t-165 -45.5q-113 0 -177 70t-64 191q0 14 2 44h1l10 17h470q2 24 2 35q0 98 -50.5 156t-136.5 58q-40 0 -91.5 -12t-95.5 -31l-10 3l-11 38q84 52 137 72t107 20q75 0 135 -36z
M422 107q56 58 76 154l-368 -6q5 -97 48 -151.5t113 -54.5q75 0 131 58z" />
    <glyph glyph-name="florin" unicode="&#x192;" horiz-adv-x="374" 
d="M135.5 295q-4.5 7 -17.5 9t-46 2l-4 6l7 39l73 11l8 80q3 43 27.5 78.5t63 56.5t81.5 21q36 0 66 -9.5t30 -23.5q0 -16 -7.5 -45.5t-14.5 -38.5l-14 -1q-16 27 -40.5 44.5t-50.5 17.5q-24 0 -36.5 -15.5t-17 -38.5t-7.5 -65l-5 -64l126 3l4 -4l-10 -56l-125 2l-26 -301
q-4 -45 -28.5 -82t-62.5 -59t-80 -22q-30 0 -56.5 11t-26.5 26q0 16 8 43.5t16 36.5h12q9 -27 31 -45t47 -18q50 0 55 81l26 296q-1 17 -5.5 24z" />
    <glyph glyph-name="Ohorn" unicode="&#x1a0;" horiz-adv-x="680" 
d="M698 643q-21 -31 -54.5 -49t-67.5 -18q33 -35 50 -83.5t17 -107.5q0 -111 -47 -202t-129 -143t-182 -52q-72 0 -128 33t-86.5 93.5t-30.5 139.5q0 111 46 202t126.5 143t179.5 52h1q35 0 59 -5.5t50 -15.5q13 -5 26.5 -8.5t26.5 -3.5q30 0 49 15t19 41q0 15 -6 31.5
t-16 27.5l3 14q18 14 35.5 22t31.5 8q22 0 35 -18t13 -48q0 -37 -21 -68zM423 89q49 38 76.5 107t27.5 159q0 103 -44.5 163.5t-119.5 60.5q-61 0 -109.5 -38.5t-75.5 -107.5t-27 -158q0 -103 43.5 -163.5t116.5 -60.5q63 0 112 38z" />
    <glyph glyph-name="ohorn" unicode="&#x1a1;" horiz-adv-x="439" 
d="M66 35.5q-34 47.5 -34 125.5q0 25 1 37q7 75 40 137t83.5 97.5t108.5 35.5q25 0 62 -13q28 -10 40 -10q21 0 33 12.5t12 33.5q0 17 -8.5 35.5t-23.5 31.5l2 14q24 20 43 24q13 5 24 5q25 0 40.5 -22t15.5 -58q0 -30 -18.5 -57.5t-49.5 -44.5t-65 -18q22 -41 22 -90
q0 -88 -32 -162t-86.5 -117.5t-119.5 -43.5q-56 0 -90 47.5zM269 110.5q28 57.5 28 150.5q0 65 -19 100t-53 35q-29 0 -52 -25t-36 -69.5t-13 -100.5q0 -67 20 -107.5t52 -40.5q45 0 73 57.5z" />
    <glyph glyph-name="Uhorn" unicode="&#x1af;" horiz-adv-x="660" 
d="M707.5 761.5q13.5 -14.5 13.5 -39.5q0 -76 -68 -112q-5 -2 -24 -12t-27.5 -23.5t-10.5 -34.5l-40 -328q-13 -108 -82.5 -166t-184.5 -58q-95 0 -144.5 45.5t-49.5 131.5q0 21 3 43l41 327q2 18 2 24q0 17 -6.5 23.5t-23.5 6.5q-10 0 -19.5 -1t-12.5 -1l-2 4l14 50
q12 -1 47 -2t73 -1q25 0 60.5 3.5t46.5 5.5l-11 -53q-34 -4 -47.5 -16t-18.5 -39l-43 -293q-3 -25 -3 -46q0 -70 31.5 -107t92.5 -37q71 0 112.5 39.5t50.5 117.5q6 42 18.5 161.5t16.5 160.5q1 8 1 21q0 20 -6 26.5t-22 6.5q-11 0 -22.5 -1t-15.5 -1l-1 4l13 50
q12 0 45.5 -1t66.5 -1q55 0 55 45q0 13 -6 26.5t-18 22.5l4 14q40 29 65 29q23 0 36.5 -14.5z" />
    <glyph glyph-name="uhorn" unicode="&#x1b0;" horiz-adv-x="495" 
d="M507.5 470q-20.5 -25 -53.5 -39q-23 -77 -45.5 -174t-33.5 -170l4 -4q7 1 19 9.5t50 41.5l14 -1l15 -29q-67 -66 -100.5 -91t-54.5 -25q-39 0 -39 32q0 15 40 195l-8 2q-84 -166 -169 -228q-46 0 -72 23.5t-26 64.5q0 33 38 159q12 41 22 79t10 52q0 18 -9.5 26.5
t-30.5 8.5h-38l9 47q76 0 174 7l10 -13q-41 -119 -67.5 -210.5t-26.5 -115.5q0 -17 6.5 -24.5t20.5 -7.5q26 0 75 76t103 201l16 93l11 5q63 6 63 39q0 16 -8.5 33t-22.5 31l2 14q20 17 42 24q15 6 30 4q23 -1 37 -23t14 -56q0 -31 -20.5 -56z" />
    <glyph glyph-name="uni01C4" unicode="&#x1c4;" horiz-adv-x="1223" 
d="M219 -5q-50 5 -82 5q-31 0 -68.5 -4.5t-49.5 -6.5l13 53q44 8 61.5 25.5t22.5 59.5l50 407l2 24q0 17 -6.5 23.5t-21.5 6.5q-10 0 -20 -1t-13 -1l-3 6l13 49q12 -1 44.5 -2t65.5 -1q27 0 75 2t64 3q86 0 151.5 -32.5t101.5 -91.5t36 -138q0 -107 -49.5 -197.5t-134 -143
t-186.5 -52.5q-16 2 -66 7zM282.5 577.5q-6.5 -4.5 -8.5 -18.5l-10 -60q-5 -33 -31.5 -196.5t-26.5 -187.5q0 -38 20.5 -51t76.5 -13q72 0 125.5 39t83 110t29.5 164q0 107 -59.5 162.5t-174.5 55.5q-18 0 -24.5 -4.5zM759 3l-71 -7l-12 37l418 549l-150 -7q-44 -2 -70 -14
t-41.5 -39.5t-26.5 -77.5l-61 -5q5 19 19 82t23 120l11 9l168 -11l261 -5l9 -33q-197 -239 -426 -547l175 8q50 2 83 39.5t58 119.5l60 6q-3 -9 -12 -42.5t-20 -80.5t-18 -90l-18 -17zM1100 755.5q-51 -38.5 -73 -54.5h-16q-18 16 -59.5 54.5t-67.5 61.5l21 30l13 2
q10 -4 68 -38l43 -24l63 31q57 30 64 31l12 -2l15 -30q-32 -23 -83 -61.5z" />
    <glyph glyph-name="uni01C5" unicode="&#x1c5;" horiz-adv-x="1081" 
d="M219 -5q-50 5 -82 5q-31 0 -68.5 -4.5t-49.5 -6.5l13 53q44 8 61.5 25.5t22.5 59.5l50 407l2 24q0 17 -6.5 23.5t-21.5 6.5q-10 0 -20 -1t-13 -1l-3 6l13 49q12 -1 44.5 -2t65.5 -1q27 0 75 2t64 3q86 0 151.5 -32.5t101.5 -91.5t36 -138q0 -107 -49.5 -197.5t-134 -143
t-186.5 -52.5q-16 2 -66 7zM282.5 577.5q-6.5 -4.5 -8.5 -18.5l-10 -60q-5 -33 -31.5 -196.5t-26.5 -187.5q0 -38 20.5 -51t76.5 -13q72 0 125.5 39t83 110t29.5 164q0 107 -59.5 162.5t-174.5 55.5q-18 0 -24.5 -4.5zM736.5 365.5q12.5 48.5 19.5 92.5l20 10q26 -4 103 -15
t104 -11q13 0 20 3t14 12l18 21l49 -18l5 -19q-178 -200 -292 -346l28 7q15 0 36.5 -4t28.5 -5q46 -10 68 -10q27 0 45.5 18t25.5 51l20 -2q10 -27 10 -51q0 -46 -28.5 -78.5t-68.5 -32.5q-18 0 -35 4.5t-31.5 9.5t-18.5 7q-29 12 -51 18t-46 6q-46 0 -98 -32l-14 23
l280 349l-89 1q-41 0 -61 -14t-32 -52l-46 -5q4 14 16.5 62.5zM809 716q35 -34 108 -95q89 61 131 95l11 -2l18 -31q-48 -44 -98.5 -94t-65.5 -65h-16q-11 15 -49.5 65t-75.5 94l26 31z" />
    <glyph glyph-name="uni01C6" unicode="&#x1c6;" horiz-adv-x="885" 
d="M373.5 87q10.5 8 56.5 47l14 -1l15 -29q-67 -66 -100.5 -91t-54.5 -25q-39 0 -39 33q0 13 15.5 84.5t24.5 106.5l-8 1q-46 -86 -88.5 -140t-86.5 -85q-45 0 -70 37t-25 103q0 80 34.5 157.5t89 127t110.5 49.5l71 -13l26 188l1 11q0 17 -10 25t-31 8h-38l7 47q42 0 99 3
t75 4l11 -14q-7 -32 -29.5 -145t-49 -254.5t-40.5 -238.5l3 -4q7 0 17.5 8zM223.5 167q52.5 83 100.5 200q-21 13 -47 22t-46 9q-27 0 -53 -31.5t-42 -82t-16 -104.5q0 -40 7.5 -68t18.5 -28q25 0 77.5 83zM540.5 365.5q12.5 48.5 19.5 92.5l20 10q26 -4 103 -15t104 -11
q13 0 20 3t14 12l18 21l49 -18l5 -19q-178 -200 -292 -346l28 7q15 0 36.5 -4t28.5 -5q46 -10 68 -10q27 0 45.5 18t25.5 51l20 -2q10 -27 10 -51q0 -46 -28.5 -78.5t-68.5 -32.5q-18 0 -35 4.5t-31.5 9.5t-18.5 7q-29 12 -51 18t-46 6q-46 0 -98 -32l-14 23l280 349l-89 1
q-41 0 -61 -14t-32 -52l-46 -5q4 14 16.5 62.5zM613 716q35 -34 108 -95q89 61 131 95l11 -2l18 -31q-48 -44 -98.5 -94t-65.5 -65h-16q-11 15 -49.5 65t-75.5 94l26 31z" />
    <glyph glyph-name="uni01C7" unicode="&#x1c7;" horiz-adv-x="813" 
d="M80.5 -4q-42.5 -4 -54.5 -6l14 53q38 6 54 24t21 61l50 407q2 18 2 23q0 18 -7 24.5t-23 6.5q-10 0 -19.5 -1t-12.5 -1q0 1 -1 2.5t-1 2.5l13 49l26 -1q52 -2 91 -2q26 0 67 3.5t54 5.5l-11 -53q-32 -5 -45 -11t-20 -21.5t-14 -54.5q-16 -86 -38 -233t-22 -172
q0 -28 13.5 -37t53.5 -9q54 0 81.5 10.5t44 40t33.5 94.5l59 6l3 -6q-5 -17 -21 -76.5t-31 -125.5l-7 -8q-27 2 -113.5 5.5t-148.5 3.5q-48 0 -90.5 -4zM655 558q0 17 -7 23.5t-23 6.5q-13 0 -26.5 -1.5t-18.5 -2.5l-1 5l12 49h110q32 1 72.5 4.5t53.5 4.5l-10 -52
q-34 -6 -45 -16t-16 -40q-15 -92 -33.5 -213.5t-31.5 -214.5q-13 -101 -61.5 -162.5t-142.5 -95.5l-17 35l3 9q44 26 68.5 53.5t38 66.5t21.5 101l52 417q2 18 2 23z" />
    <glyph glyph-name="uni01C8" unicode="&#x1c8;" horiz-adv-x="753" 
d="M80.5 -4q-42.5 -4 -54.5 -6l14 53q38 6 54 24t21 61l50 407q2 18 2 23q0 18 -7 24.5t-23 6.5q-10 0 -19.5 -1t-12.5 -1q0 1 -1 2.5t-1 2.5l13 49l26 -1q52 -2 91 -2q26 0 67 3.5t54 5.5l-11 -53q-32 -5 -45 -11t-20 -21.5t-14 -54.5q-16 -86 -38 -233t-22 -172
q0 -28 13.5 -37t53.5 -9q54 0 81.5 10.5t44 40t33.5 94.5l59 6l3 -6q-5 -17 -21 -76.5t-31 -125.5l-7 -8q-27 2 -113.5 5.5t-148.5 3.5q-48 0 -90.5 -4zM641.5 597q-13.5 14 -13.5 37q0 32 21.5 54t52.5 22q22 0 35.5 -13.5t13.5 -36.5q0 -33 -21.5 -55t-52.5 -22
q-22 0 -35.5 14zM579 -139.5q-46 -63.5 -125 -102.5l-20 23l3 10q39 29 63 59t38 74t23 113q8 46 29 174.5t21 149.5q0 22 -10 31.5t-32 9.5h-38l9 47q41 0 97.5 3t74.5 4l11 -13q-5 -19 -20.5 -86t-34.5 -161t-30 -176q-13 -96 -59 -159.5z" />
    <glyph glyph-name="uni01C9" unicode="&#x1c9;" horiz-adv-x="514" 
d="M156.5 88.5q12.5 9.5 54.5 45.5l14 -1l15 -29q-58 -60 -95 -88t-59 -28q-38 0 -38 37q0 6 36 235q10 67 33 217t23 165q0 21 -9 30t-31 9h-38l7 47q42 0 99 3t75 4l11 -14q-7 -31 -29.5 -140.5t-49.5 -251t-41 -246.5l3 -4q7 0 19.5 9.5zM402.5 597q-13.5 14 -13.5 37
q0 32 21.5 54t52.5 22q22 0 35.5 -13.5t13.5 -36.5q0 -33 -21.5 -55t-52.5 -22q-22 0 -35.5 14zM340 -139.5q-46 -63.5 -125 -102.5l-20 23l3 10q39 29 63 59t38 74t23 113q8 46 29 174.5t21 149.5q0 22 -10 31.5t-32 9.5h-38l9 47q41 0 97.5 3t74.5 4l11 -13
q-5 -19 -20.5 -86t-34.5 -161t-30 -176q-13 -96 -59 -159.5z" />
    <glyph glyph-name="uni01CA" unicode="&#x1ca;" horiz-adv-x="1011" 
d="M564 545q4 43 -27 43l-35 -1l-2 5l14 50q11 -1 41.5 -2.5t62.5 -1.5q27 0 60 3.5t43 4.5l-11 -53q-33 -5 -50.5 -19.5t-21.5 -43.5l-80 -552l-59 -14q-61 127 -119.5 242t-96.5 186t-48 89h-6l-52 -389q-1 -5 -1 -14q0 -15 6.5 -21t21.5 -6l45 1l3 -5l-15 -51
q-11 1 -43 2.5t-67 1.5q-28 0 -60 -3.5t-42 -4.5l13 52q30 4 46 18.5t20 44.5l64 425q1 5 1 14q0 22 -16.5 32t-58.5 15l-3 7l12 43q10 -1 41 -3t53 -2q23 0 45.5 1.5t29.5 2.5q52 -108 105.5 -212t89 -171t45.5 -85h6zM853 558q0 17 -7 23.5t-23 6.5q-13 0 -26.5 -1.5
t-18.5 -2.5l-1 5l12 49h110q32 1 72.5 4.5t53.5 4.5l-10 -52q-34 -6 -45 -16t-16 -40q-15 -92 -33.5 -213.5t-31.5 -214.5q-13 -101 -61.5 -162.5t-142.5 -95.5l-17 35l3 9q44 26 68.5 53.5t38 66.5t21.5 101l52 417q2 18 2 23z" />
    <glyph glyph-name="uni01CB" unicode="&#x1cb;" horiz-adv-x="951" 
d="M564 545q4 43 -27 43l-35 -1l-2 5l14 50q11 -1 41.5 -2.5t62.5 -1.5q27 0 60 3.5t43 4.5l-11 -53q-33 -5 -50.5 -19.5t-21.5 -43.5l-80 -552l-59 -14q-61 127 -119.5 242t-96.5 186t-48 89h-6l-52 -389q-1 -5 -1 -14q0 -15 6.5 -21t21.5 -6l45 1l3 -5l-15 -51
q-11 1 -43 2.5t-67 1.5q-28 0 -60 -3.5t-42 -4.5l13 52q30 4 46 18.5t20 44.5l64 425q1 5 1 14q0 22 -16.5 32t-58.5 15l-3 7l12 43q10 -1 41 -3t53 -2q23 0 45.5 1.5t29.5 2.5q52 -108 105.5 -212t89 -171t45.5 -85h6zM839.5 597q-13.5 14 -13.5 37q0 32 21.5 54t52.5 22
q22 0 35.5 -13.5t13.5 -36.5q0 -33 -21.5 -55t-52.5 -22q-22 0 -35.5 14zM777 -139.5q-46 -63.5 -125 -102.5l-20 23l3 10q39 29 63 59t38 74t23 113q8 46 29 174.5t21 149.5q0 22 -10 31.5t-32 9.5h-38l9 47q41 0 97.5 3t74.5 4l11 -13q-5 -19 -20.5 -86t-34.5 -161
t-30 -176q-13 -96 -59 -159.5z" />
    <glyph glyph-name="uni01CC" unicode="&#x1cc;" horiz-adv-x="762" 
d="M479 104q-59 -60 -95.5 -87.5t-58.5 -27.5q-38 0 -38 35q0 19 9 52.5t26 89.5q18 58 28 96.5t10 59.5q0 17 -8.5 28t-21.5 11q-28 0 -75.5 -73t-95.5 -191l-10 -77q-2 -8 -30 -18.5t-49 -10.5l-10 12q18 102 35.5 219t19.5 140q1 21 -9 30.5t-32 9.5h-38l8 47q58 0 174 7
l9 -14q-15 -45 -30 -107t-24 -113l5 -2q47 96 94.5 159.5t90.5 88.5q39 0 64.5 -27.5t25.5 -70.5q0 -25 -10 -61t-34 -111q-28 -81 -35 -115l3 -4q7 0 19.5 9.5t53.5 46.5l15 -2zM650.5 597q-13.5 14 -13.5 37q0 32 21.5 54t52.5 22q22 0 35.5 -13.5t13.5 -36.5
q0 -33 -21.5 -55t-52.5 -22q-22 0 -35.5 14zM588 -139.5q-46 -63.5 -125 -102.5l-20 23l3 10q39 29 63 59t38 74t23 113q8 46 29 174.5t21 149.5q0 22 -10 31.5t-32 9.5h-38l9 47q41 0 97.5 3t74.5 4l11 -13q-5 -19 -20.5 -86t-34.5 -161t-30 -176q-13 -96 -59 -159.5z" />
    <glyph glyph-name="uni01CD" unicode="&#x1cd;" horiz-adv-x="577" 
d="M508 67.5q16 -14.5 54 -19.5l2 -4l-12 -47q-12 0 -44 1.5t-64 1.5q-48 0 -93.5 -3.5t-58.5 -5.5l-3 7l9 46q37 3 55 7.5t25 13.5t7 26q0 9 -1 18t-2 16l-15 98q-19 1 -94 1q-34 0 -101 -7l-42 -96q-12 -25 -12 -42t11 -24.5t36 -7.5h50l1 -4l-11 -49q-12 1 -54.5 3.5
t-81.5 2.5q-37 0 -68.5 -1t-41.5 -2l14 54q26 3 44 18.5t36 54.5l240 509l98 17l10 -2q0 -7 29.5 -203.5t54.5 -325.5q7 -37 23 -51.5zM277 277q28 0 83 5l-37 249h-10l-113 -254h77zM422 755.5q-51 -38.5 -73 -54.5h-16q-18 16 -59.5 54.5t-67.5 61.5l21 30l13 2
q10 -4 68 -38l43 -24l63 31q57 30 64 31l12 -2l15 -30q-32 -23 -83 -61.5z" />
    <glyph glyph-name="uni01CE" unicode="&#x1ce;" horiz-adv-x="474" 
d="M375.5 88.5q12.5 9.5 54.5 45.5l14 -1l15 -29q-70 -69 -102.5 -92.5t-55.5 -23.5q-17 0 -26.5 8.5t-9.5 22.5q0 24 40 193l-7 1q-47 -86 -89 -139.5t-87 -85.5q-44 0 -69.5 37t-25.5 102q0 80 34.5 158t89 127.5t110.5 49.5l95 -16l8 24l8 3l51 -15l8 -14
q-23 -84 -45 -185t-33 -176l3 -4q7 0 19.5 9.5zM194 123.5q30 39.5 66 105t66 138.5q-22 13 -48.5 22t-44.5 9q-29 0 -55 -31t-42 -82t-16 -106q0 -41 8 -68t20 -27q16 0 46 39.5zM177 734q35 -34 108 -95q89 61 131 95l11 -2l18 -31q-48 -44 -98.5 -94t-65.5 -65h-16
q-11 15 -49.5 65t-75.5 94l26 31z" />
    <glyph glyph-name="uni01CF" unicode="&#x1cf;" horiz-adv-x="349" 
d="M223 257q-21 -136 -21 -164q0 -24 8 -33t27 -9q17 0 30 1t17 2l3 -5l-15 -52q-14 1 -53.5 2t-79.5 1q-32 0 -71 -4.5t-51 -6.5l14 52q45 9 62.5 26.5t21.5 59.5l51 408q2 18 2 22q0 18 -7 25t-24 7q-11 0 -22.5 -1t-15.5 -1q0 1 -1 2.5t-1 2.5l13 49l24 -1q54 -2 98 -2
q27 0 68 3.5t54 5.5l-12 -52q-39 -5 -53.5 -16t-19.5 -40q-25 -146 -46 -282zM315 755.5q-51 -38.5 -73 -54.5h-16q-18 16 -59.5 54.5t-67.5 61.5l21 30l13 2q10 -4 68 -38l43 -24l63 31q57 30 64 31l12 -2l15 -30q-32 -23 -83 -61.5z" />
    <glyph glyph-name="uni01D0" unicode="&#x1d0;" horiz-adv-x="272" 
d="M169.5 88.5q12.5 9.5 53.5 45.5l14 -1l15 -29q-58 -60 -95 -88t-59 -28q-19 0 -28 10t-9 31q21 128 35 223t14 110q0 22 -9 31t-31 9h-38l8 47q79 0 174 7l10 -13q-23 -77 -45 -179t-33 -181l4 -4q7 0 19.5 9.5zM65 715q35 -34 108 -95q89 61 131 95l11 -2l18 -31
q-48 -44 -98.5 -94t-65.5 -65h-16q-11 15 -49.5 65t-75.5 94l26 31z" />
    <glyph glyph-name="uni01D1" unicode="&#x1d1;" horiz-adv-x="659" 
d="M161.5 21.5q-57.5 33.5 -89.5 94t-32 138.5q0 112 44.5 202.5t123 142t176.5 51.5q75 0 134 -33.5t92 -93.5t33 -138q0 -112 -45.5 -202.5t-125.5 -142.5t-179 -52q-74 0 -131.5 33.5zM423 89q49 38 76.5 107t27.5 159q0 103 -44.5 163.5t-119.5 60.5q-61 0 -109.5 -38.5
t-75.5 -107.5t-27 -158q0 -103 43.5 -163.5t116.5 -60.5q63 0 112 38zM463 755.5q-51 -38.5 -73 -54.5h-16q-18 16 -59.5 54.5t-67.5 61.5l21 30l13 2q10 -4 68 -38l43 -24l63 31q57 30 64 31l12 -2l15 -30q-32 -23 -83 -61.5z" />
    <glyph glyph-name="uni01D2" unicode="&#x1d2;" horiz-adv-x="422" 
d="M65 34q-34 46 -34 124q0 83 32 154t86 113.5t118 42.5q60 0 93.5 -41t33.5 -116q0 -88 -31.5 -162t-86.5 -117.5t-120 -43.5q-57 0 -91 46zM270 109.5q28 56.5 28 150.5q0 64 -19 100t-54 36q-45 0 -73 -52.5t-28 -138.5q0 -70 19.5 -111t52.5 -41q46 0 74 56.5zM143 716
q35 -34 108 -95q89 61 131 95l11 -2l18 -31q-48 -44 -98.5 -94t-65.5 -65h-16q-11 15 -49.5 65t-75.5 94l26 31z" />
    <glyph glyph-name="uni01D3" unicode="&#x1d3;" horiz-adv-x="645" 
d="M190 200q0 -70 31.5 -107t92.5 -37q71 0 112.5 39.5t50.5 117.5q6 42 18.5 161.5t16.5 160.5q1 8 1 21q0 20 -6 26.5t-22 6.5q-11 0 -22.5 -1t-15.5 -1l-1 4l13 50q12 0 44.5 -1.5t64.5 -1.5q28 0 61 3.5t43 5.5l-12 -53q-28 -4 -41.5 -9.5t-19 -15t-8.5 -29.5l-40 -328
q-13 -108 -82.5 -166t-184.5 -58q-95 0 -144.5 45.5t-49.5 131.5q0 21 3 43l41 327q2 18 2 24q0 17 -6.5 23.5t-23.5 6.5q-10 0 -19.5 -1t-12.5 -1l-2 4l14 50q12 -1 47 -2t73 -1q25 0 60.5 3.5t46.5 5.5l-11 -53q-34 -4 -47.5 -16t-18.5 -39l-43 -293q-3 -25 -3 -46z
M459 755.5q-51 -38.5 -73 -54.5h-16q-18 16 -59.5 54.5t-67.5 61.5l21 30l13 2q10 -4 68 -38l43 -24l63 31q57 30 64 31l12 -2l15 -30q-32 -23 -83 -61.5z" />
    <glyph glyph-name="uni01D4" unicode="&#x1d4;" horiz-adv-x="497" 
d="M477 104q-67 -66 -100.5 -91t-54.5 -25q-39 0 -39 32q0 15 40 195l-8 2q-84 -166 -169 -228q-46 0 -72 23.5t-26 64.5q0 33 38 159q12 41 22 79t10 52q0 18 -9.5 26.5t-30.5 8.5h-38l9 47q76 0 174 7l10 -13q-41 -119 -67.5 -210.5t-26.5 -115.5q0 -17 6.5 -24.5
t20.5 -7.5q26 0 75 76t103 201l16 93l11 5l78 -8l8 -10q-23 -78 -46.5 -178.5t-35.5 -176.5l4 -4q7 1 19 9.5t50 41.5l14 -1zM180 716q35 -34 108 -95q89 61 131 95l11 -2l18 -31q-48 -44 -98.5 -94t-65.5 -65h-16q-11 15 -49.5 65t-75.5 94l26 31z" />
    <glyph glyph-name="uni01D5" unicode="&#x1d5;" horiz-adv-x="645" 
d="M190 200q0 -70 31.5 -107t92.5 -37q71 0 112.5 39.5t50.5 117.5q6 42 18.5 161.5t16.5 160.5q1 8 1 21q0 20 -6 26.5t-22 6.5q-11 0 -22.5 -1t-15.5 -1l-1 4l13 50q12 0 44.5 -1.5t64.5 -1.5q28 0 61 3.5t43 5.5l-12 -53q-28 -4 -41.5 -9.5t-19 -15t-8.5 -29.5l-40 -328
q-13 -108 -82.5 -166t-184.5 -58q-95 0 -144.5 45.5t-49.5 131.5q0 21 3 43l41 327q2 18 2 24q0 17 -6.5 23.5t-23.5 6.5q-10 0 -19.5 -1t-12.5 -1l-2 4l14 50q12 -1 47 -2t73 -1q25 0 60.5 3.5t46.5 5.5l-11 -53q-34 -4 -47.5 -16t-18.5 -39l-43 -293q-3 -25 -3 -46z
M536 868l-137 -1l-136 -1l-7 10l19 58l148 -1q30 0 70.5 2.5t53.5 3.5l5 -12zM261 725.5q-11 12.5 -11 31.5q0 26 18.5 45t44.5 19q21 0 32 -12.5t11 -31.5q0 -26 -18.5 -45t-45.5 -19q-20 0 -31 12.5zM426.5 725.5q-10.5 12.5 -10.5 31.5q0 27 18 45.5t45 18.5
q20 0 31.5 -12.5t11.5 -31.5q0 -26 -18.5 -45t-45.5 -19q-21 0 -31.5 12.5z" />
    <glyph glyph-name="uni01D6" unicode="&#x1d6;" horiz-adv-x="497" 
d="M477 104q-67 -66 -100.5 -91t-54.5 -25q-39 0 -39 32q0 15 40 195l-8 2q-84 -166 -169 -228q-46 0 -72 23.5t-26 64.5q0 33 38 159q12 41 22 79t10 52q0 18 -9.5 26.5t-30.5 8.5h-38l9 47q76 0 174 7l10 -13q-41 -119 -67.5 -210.5t-26.5 -115.5q0 -17 6.5 -24.5
t20.5 -7.5q26 0 75 76t103 201l16 93l11 5l78 -8l8 -10q-23 -78 -46.5 -178.5t-35.5 -176.5l4 -4q7 1 19 9.5t50 41.5l14 -1zM436 686l-137 -1l-136 -1l-7 10l19 58l148 -1q30 0 70.5 2.5t53.5 3.5l5 -12zM161 543.5q-11 12.5 -11 31.5q0 26 18.5 45t44.5 19q21 0 32 -12.5
t11 -31.5q0 -26 -18.5 -45t-45.5 -19q-20 0 -31 12.5zM326.5 543.5q-10.5 12.5 -10.5 31.5q0 27 18 45.5t45 18.5q20 0 31.5 -12.5t11.5 -31.5q0 -26 -18.5 -45t-45.5 -19q-21 0 -31.5 12.5z" />
    <glyph glyph-name="uni01D7" unicode="&#x1d7;" horiz-adv-x="645" 
d="M190 200q0 -70 31.5 -107t92.5 -37q71 0 112.5 39.5t50.5 117.5q6 42 18.5 161.5t16.5 160.5q1 8 1 21q0 20 -6 26.5t-22 6.5q-11 0 -22.5 -1t-15.5 -1l-1 4l13 50q12 0 44.5 -1.5t64.5 -1.5q28 0 61 3.5t43 5.5l-12 -53q-28 -4 -41.5 -9.5t-19 -15t-8.5 -29.5l-40 -328
q-13 -108 -82.5 -166t-184.5 -58q-95 0 -144.5 45.5t-49.5 131.5q0 21 3 43l41 327q2 18 2 24q0 17 -6.5 23.5t-23.5 6.5q-10 0 -19.5 -1t-12.5 -1l-2 4l14 50q12 -1 47 -2t73 -1q25 0 60.5 3.5t46.5 5.5l-11 -53q-34 -4 -47.5 -16t-18.5 -39l-43 -293q-3 -25 -3 -46z
M451 905q-65 -20 -133 -44l-10 6l-9 34q63 30 126.5 63.5t82.5 43.5l10 -6l20 -60l-4 -11q-18 -6 -83 -26zM280 741.5q-11 12.5 -11 31.5q0 26 18.5 45t44.5 19q21 0 32 -12.5t11 -31.5q0 -26 -18.5 -45t-45.5 -19q-20 0 -31 12.5zM445.5 741.5q-10.5 12.5 -10.5 31.5
q0 27 18 45.5t45 18.5q20 0 31.5 -12.5t11.5 -31.5q0 -26 -18.5 -45t-45.5 -19q-21 0 -31.5 12.5z" />
    <glyph glyph-name="uni01D8" unicode="&#x1d8;" horiz-adv-x="497" 
d="M477 104q-67 -66 -100.5 -91t-54.5 -25q-39 0 -39 32q0 15 40 195l-8 2q-84 -166 -169 -228q-46 0 -72 23.5t-26 64.5q0 33 38 159q12 41 22 79t10 52q0 18 -9.5 26.5t-30.5 8.5h-38l9 47q76 0 174 7l10 -13q-41 -119 -67.5 -210.5t-26.5 -115.5q0 -17 6.5 -24.5
t20.5 -7.5q26 0 75 76t103 201l16 93l11 5l78 -8l8 -10q-23 -78 -46.5 -178.5t-35.5 -176.5l4 -4q7 1 19 9.5t50 41.5l14 -1zM351 723q-65 -20 -133 -44l-10 6l-9 34q63 30 126.5 63.5t82.5 43.5l10 -6l20 -60l-4 -11q-18 -6 -83 -26zM180 559.5q-11 12.5 -11 31.5
q0 26 18.5 45t44.5 19q21 0 32 -12.5t11 -31.5q0 -26 -18.5 -45t-45.5 -19q-20 0 -31 12.5zM345.5 559.5q-10.5 12.5 -10.5 31.5q0 27 18 45.5t45 18.5q20 0 31.5 -12.5t11.5 -31.5q0 -26 -18.5 -45t-45.5 -19q-21 0 -31.5 12.5z" />
    <glyph glyph-name="uni01D9" unicode="&#x1d9;" horiz-adv-x="645" 
d="M190 200q0 -70 31.5 -107t92.5 -37q71 0 112.5 39.5t50.5 117.5q6 42 18.5 161.5t16.5 160.5q1 8 1 21q0 20 -6 26.5t-22 6.5q-11 0 -22.5 -1t-15.5 -1l-1 4l13 50q12 0 44.5 -1.5t64.5 -1.5q28 0 61 3.5t43 5.5l-12 -53q-28 -4 -41.5 -9.5t-19 -15t-8.5 -29.5l-40 -328
q-13 -108 -82.5 -166t-184.5 -58q-95 0 -144.5 45.5t-49.5 131.5q0 21 3 43l41 327q2 18 2 24q0 17 -6.5 23.5t-23.5 6.5q-10 0 -19.5 -1t-12.5 -1l-2 4l14 50q12 -1 47 -2t73 -1q25 0 60.5 3.5t46.5 5.5l-11 -53q-34 -4 -47.5 -16t-18.5 -39l-43 -293q-3 -25 -3 -46z
M463 887.5q-48 -36.5 -62 -47.5h-16q-11 11 -50 47.5t-77 68.5l22 30l12 2q50 -30 112 -62q65 29 127 62l11 -2l15 -30q-46 -32 -94 -68.5zM261 741.5q-11 12.5 -11 31.5q0 26 18.5 45t44.5 19q21 0 32 -12.5t11 -31.5q0 -26 -18.5 -45t-45.5 -19q-20 0 -31 12.5z
M426.5 741.5q-10.5 12.5 -10.5 31.5q0 27 18 45.5t45 18.5q20 0 31.5 -12.5t11.5 -31.5q0 -26 -18.5 -45t-45.5 -19q-21 0 -31.5 12.5z" />
    <glyph glyph-name="uni01DA" unicode="&#x1da;" horiz-adv-x="497" 
d="M477 104q-67 -66 -100.5 -91t-54.5 -25q-39 0 -39 32q0 15 40 195l-8 2q-84 -166 -169 -228q-46 0 -72 23.5t-26 64.5q0 33 38 159q12 41 22 79t10 52q0 18 -9.5 26.5t-30.5 8.5h-38l9 47q76 0 174 7l10 -13q-41 -119 -67.5 -210.5t-26.5 -115.5q0 -17 6.5 -24.5
t20.5 -7.5q26 0 75 76t103 201l16 93l11 5l78 -8l8 -10q-23 -78 -46.5 -178.5t-35.5 -176.5l4 -4q7 1 19 9.5t50 41.5l14 -1zM363 705.5q-48 -36.5 -62 -47.5h-16q-11 11 -50 47.5t-77 68.5l22 30l12 2q50 -30 112 -62q65 29 127 62l11 -2l15 -30q-46 -32 -94 -68.5z
M161 559.5q-11 12.5 -11 31.5q0 26 18.5 45t44.5 19q21 0 32 -12.5t11 -31.5q0 -26 -18.5 -45t-45.5 -19q-20 0 -31 12.5zM326.5 559.5q-10.5 12.5 -10.5 31.5q0 27 18 45.5t45 18.5q20 0 31.5 -12.5t11.5 -31.5q0 -26 -18.5 -45t-45.5 -19q-21 0 -31.5 12.5z" />
    <glyph glyph-name="uni01DB" unicode="&#x1db;" horiz-adv-x="645" 
d="M190 200q0 -70 31.5 -107t92.5 -37q71 0 112.5 39.5t50.5 117.5q6 42 18.5 161.5t16.5 160.5q1 8 1 21q0 20 -6 26.5t-22 6.5q-11 0 -22.5 -1t-15.5 -1l-1 4l13 50q12 0 44.5 -1.5t64.5 -1.5q28 0 61 3.5t43 5.5l-12 -53q-28 -4 -41.5 -9.5t-19 -15t-8.5 -29.5l-40 -328
q-13 -108 -82.5 -166t-184.5 -58q-95 0 -144.5 45.5t-49.5 131.5q0 21 3 43l41 327q2 18 2 24q0 17 -6.5 23.5t-23.5 6.5q-10 0 -19.5 -1t-12.5 -1l-2 4l14 50q12 -1 47 -2t73 -1q25 0 60.5 3.5t46.5 5.5l-11 -53q-34 -4 -47.5 -16t-18.5 -39l-43 -293q-3 -25 -3 -46z
M319 1002l10 6q19 -10 82.5 -43.5t126.5 -63.5l-9 -34l-10 -6q-68 24 -133 44t-83 26l-4 11zM280 741.5q-11 12.5 -11 31.5q0 26 18.5 45t44.5 19q21 0 32 -12.5t11 -31.5q0 -26 -18.5 -45t-45.5 -19q-20 0 -31 12.5zM445.5 741.5q-10.5 12.5 -10.5 31.5q0 27 18 45.5
t45 18.5q20 0 31.5 -12.5t11.5 -31.5q0 -26 -18.5 -45t-45.5 -19q-21 0 -31.5 12.5z" />
    <glyph glyph-name="uni01DC" unicode="&#x1dc;" horiz-adv-x="497" 
d="M477 104q-67 -66 -100.5 -91t-54.5 -25q-39 0 -39 32q0 15 40 195l-8 2q-84 -166 -169 -228q-46 0 -72 23.5t-26 64.5q0 33 38 159q12 41 22 79t10 52q0 18 -9.5 26.5t-30.5 8.5h-38l9 47q76 0 174 7l10 -13q-41 -119 -67.5 -210.5t-26.5 -115.5q0 -17 6.5 -24.5
t20.5 -7.5q26 0 75 76t103 201l16 93l11 5l78 -8l8 -10q-23 -78 -46.5 -178.5t-35.5 -176.5l4 -4q7 1 19 9.5t50 41.5l14 -1zM219 820l10 6q19 -10 82.5 -43.5t126.5 -63.5l-9 -34l-10 -6q-68 24 -133 44t-83 26l-4 11zM180 559.5q-11 12.5 -11 31.5q0 26 18.5 45t44.5 19
q21 0 32 -12.5t11 -31.5q0 -26 -18.5 -45t-45.5 -19q-20 0 -31 12.5zM345.5 559.5q-10.5 12.5 -10.5 31.5q0 27 18 45.5t45 18.5q20 0 31.5 -12.5t11.5 -31.5q0 -26 -18.5 -45t-45.5 -19q-21 0 -31.5 12.5z" />
    <glyph glyph-name="Gcaron" unicode="&#x1e6;" horiz-adv-x="636" 
d="M544 312q27 2 35 3l2 -28q-32 -21 -42 -86q-5 -33 -10 -73.5t-5 -53.5l1 -32l-8 -10q0 -1 -31.5 -12.5t-79.5 -21.5t-105 -10q-79 0 -138 32.5t-91 92.5t-32 141q0 115 47.5 205t132 140.5t191.5 50.5q36 0 76.5 -5t69.5 -10.5t37 -7.5l3 -9q-2 -6 -10 -29t-18.5 -61
t-18.5 -81l-65 -5q1 7 5 27.5t4 32.5q0 77 -118 77q-66 0 -116 -36.5t-77.5 -104t-27.5 -159.5q0 -106 44 -166.5t122 -60.5q31 0 57.5 7.5t42 15.5t19.5 11l13 113q1 8 1 20q0 19 -9 25.5t-34 6.5h-60l-2 6l16 56q1 0 39.5 -1.5t86.5 -1.5q26 0 53 2zM471 755.5
q-51 -38.5 -73 -54.5h-16q-18 16 -59.5 54.5t-67.5 61.5l21 30l13 2q10 -4 68 -38l43 -24l63 31q57 30 64 31l12 -2l15 -30q-32 -23 -83 -61.5z" />
    <glyph glyph-name="gcaron" unicode="&#x1e7;" horiz-adv-x="455" 
d="M3.5 -222.5q-39.5 18.5 -62 48.5t-20.5 63l3 7q50 38 181 113l1 8q-27 15 -41.5 49.5t-14.5 81.5q0 74 33.5 147.5t86 120.5t105.5 47l96 -17l10 24l8 3l51 -14l10 -13q-63 -119 -72 -199q-3 -22 -5.5 -65.5t-3.5 -62.5q-1 -20 -3.5 -58t-4.5 -54q-6 -56 -50.5 -114
t-106 -96t-116.5 -38q-45 0 -84.5 18.5zM240.5 171q44.5 73 99.5 197q-60 30 -96 30q-25 0 -49 -29t-39 -75.5t-15 -94.5q0 -41 10 -71t24 -30q21 0 65.5 73zM230 -127q42 43 51 118l25 201l-9 2q-49 -88 -78 -126.5t-63 -62.5l-56 -38q-45 -31 -64 -45t-19 -22
q0 -16 16 -32.5t41.5 -27t51.5 -10.5q62 0 104 43zM169 744q35 -34 108 -95q89 61 131 95l11 -2l18 -31q-48 -44 -98.5 -94t-65.5 -65h-16q-11 15 -49.5 65t-75.5 94l26 31z" />
    <glyph glyph-name="uni01EA" unicode="&#x1ea;" horiz-adv-x="659" 
d="M161.5 21.5q-57.5 33.5 -89.5 94t-32 138.5q0 112 44.5 202.5t123 142t176.5 51.5q75 0 134 -33.5t92 -93.5t33 -138q0 -112 -45.5 -202.5t-125.5 -142.5t-179 -52q-74 0 -131.5 33.5zM423 89q49 38 76.5 107t27.5 159q0 103 -44.5 163.5t-119.5 60.5q-61 0 -109.5 -38.5
t-75.5 -107.5t-27 -158q0 -103 43.5 -163.5t116.5 -60.5q63 0 112 38zM369 -239q-24 -17 -53 -26q-46 0 -74 22.5t-28 61.5q0 28 18 57.5t46.5 58.5t86.5 83h51q-73 -71 -99 -105.5t-26 -67.5q0 -19 12 -31t32 -12q21 0 42 8t32 15l13 -25q-29 -22 -53 -39z" />
    <glyph glyph-name="uni01EB" unicode="&#x1eb;" horiz-adv-x="422" 
d="M65 34q-34 46 -34 124q0 83 32 154t86 113.5t118 42.5q60 0 93.5 -41t33.5 -116q0 -88 -31.5 -162t-86.5 -117.5t-120 -43.5q-57 0 -91 46zM270 109.5q28 56.5 28 150.5q0 64 -19 100t-54 36q-45 0 -73 -52.5t-28 -138.5q0 -70 19.5 -111t52.5 -41q46 0 74 56.5z
M220 -215q-24 -17 -53 -26q-46 0 -74 22.5t-28 61.5q0 28 18 57.5t46.5 58.5t86.5 83h51q-73 -71 -99 -105.5t-26 -67.5q0 -19 12 -31t32 -12q21 0 42 8t32 15l13 -25q-29 -22 -53 -39z" />
    <glyph glyph-name="Aringacute" unicode="&#x1fa;" horiz-adv-x="577" 
d="M508 67.5q16 -14.5 54 -19.5l2 -4l-12 -47q-12 0 -44 1.5t-64 1.5q-48 0 -93.5 -3.5t-58.5 -5.5l-3 7l9 46q37 3 55 7.5t25 13.5t7 26q0 9 -1 18t-2 16l-15 98q-19 1 -94 1q-34 0 -101 -7l-42 -96q-12 -25 -12 -42t11 -24.5t36 -7.5h50l1 -4l-11 -49q-12 1 -54.5 3.5
t-81.5 2.5q-37 0 -68.5 -1t-41.5 -2l14 54q26 3 44 18.5t36 54.5l240 509l98 17l10 -2q0 -7 29.5 -203.5t54.5 -325.5q7 -37 23 -51.5zM277 277q28 0 83 5l-37 249h-10l-113 -254h77zM292.055 689.477q-16.2139 17.5645 -16.2139 47.2891q0 38.7334 25.2217 64.8555
q25.2207 26.1211 63.9531 26.1211q32.4277 0 47.7402 -18.0146q15.3135 -18.0156 15.3135 -45.0381q0 -37.832 -25.2217 -65.3047q-25.2207 -27.4727 -64.8545 -27.4727q-29.7246 0 -45.9385 17.5645zM390.237 751.178q0 16.2139 -9.9082 25.6719t-27.9238 9.45801
q-18.916 0 -29.7246 -10.3584q-10.8096 -10.3594 -10.8096 -28.374t11.71 -27.0225t25.2217 -9.00781q41.4346 0 41.4346 39.6328zM404.603 865.473q-58.498 -17.999 -119.695 -39.5977l-9 6.2998l-8.09961 29.6982q55.7979 27.8994 113.396 57.5977
q57.5977 29.6992 74.6973 38.6982l9 -4.49902l17.999 -53.998l-3.59961 -10.7998q-16.2002 -5.39941 -74.6973 -23.3994z" />
    <glyph glyph-name="aringacute" unicode="&#x1fb;" horiz-adv-x="474" 
d="M375.5 88.5q12.5 9.5 54.5 45.5l14 -1l15 -29q-70 -69 -102.5 -92.5t-55.5 -23.5q-17 0 -26.5 8.5t-9.5 22.5q0 24 40 193l-7 1q-47 -86 -89 -139.5t-87 -85.5q-44 0 -69.5 37t-25.5 102q0 80 34.5 158t89 127.5t110.5 49.5l95 -16l8 24l8 3l51 -15l8 -14
q-23 -84 -45 -185t-33 -176l3 -4q7 0 19.5 9.5zM194 123.5q30 39.5 66 105t66 138.5q-22 13 -48.5 22t-44.5 9q-29 0 -55 -31t-42 -82t-16 -106q0 -41 8 -68t20 -27q16 0 46 39.5zM226.055 525.477q-16.2139 17.5645 -16.2139 47.2891q0 38.7334 25.2217 64.8555
q25.2207 26.1211 63.9531 26.1211q32.4277 0 47.7402 -18.0146q15.3135 -18.0156 15.3135 -45.0381q0 -37.832 -25.2217 -65.3047q-25.2207 -27.4727 -64.8545 -27.4727q-29.7246 0 -45.9385 17.5645zM324.237 587.178q0 16.2139 -9.9082 25.6719t-27.9238 9.45801
q-18.916 0 -29.7246 -10.3584q-10.8096 -10.3594 -10.8096 -28.374t11.71 -27.0225t25.2217 -9.00781q41.4346 0 41.4346 39.6328zM338.603 701.473q-58.498 -17.999 -119.695 -39.5977l-9 6.2998l-8.09961 29.6982q55.7979 27.8994 113.396 57.5977
q57.5977 29.6992 74.6973 38.6982l9 -4.49902l17.999 -53.998l-3.59961 -10.7998q-16.2002 -5.39941 -74.6973 -23.3994z" />
    <glyph glyph-name="AEacute" unicode="&#x1fc;" horiz-adv-x="806" 
d="M345 68q24 19 25 52l1 35l-1 110l-92 -9l-86 -11l-71 -123q-11 -19 -15 -28.5t-4 -18.5q0 -15 11 -20.5t39 -5.5l43 -2l-12 -53q-14 1 -61 3.5t-83 2.5q-22 0 -42 -1.5t-27 -2.5v45q6 1 27 25.5t43 58.5l273 444q-2 10 -7 14.5t-15 4.5t-19.5 -1t-12.5 -1l-4 6l15 50
q17 -1 69 -2t119 -1q219 0 298 12l4 -8q-2 -6 -8.5 -28.5t-16.5 -62.5t-18 -81l-65 -5q1 6 4.5 26t3.5 34q0 22 -10 32.5t-37.5 14t-86.5 3.5q-38 0 -50 -6.5t-12 -23.5l3 -210l107 11l92 16l6 -7l-20 -65l-86 -4l-98 -10l5 -151q1 -37 16.5 -52.5t51.5 -15.5q65 0 95 8
t45 31.5t30 79.5l61 6l4 -7q-5 -15 -20.5 -67t-27.5 -108l-7 -8q1 2 -109.5 4.5t-194.5 2.5q-47 0 -91.5 -3.5t-56.5 -5.5l-2 7l8 47q46 4 70 23zM370 324v204h-12l-127 -215l72 5zM549.5 798q-53.5 -39 -108.5 -85l-11 3l-25 27q48 49 96 102.5t62 69.5l11 -2l45 -53
l-1 -12q-15 -11 -68.5 -50z" />
    <glyph glyph-name="aeacute" unicode="&#x1fd;" horiz-adv-x="607" 
d="M541 145l23 -31q-29 -55 -78 -90.5t-97 -35.5q-57 0 -90.5 44.5t-34.5 121.5q-71 -116 -142 -166q-45 0 -70 37t-25 103q0 80 34.5 157.5t89 127t110.5 49.5l155 -19q42 25 86 25q43 0 67 -22.5t24 -62.5q0 -64 -55.5 -109t-185.5 -87q-2 -56 16 -89.5t51 -33.5
q29 0 57.5 22t49.5 61zM224.5 171q53.5 87 101.5 206q-24 10 -50 15.5t-45 5.5q-27 0 -53 -31.5t-42 -82t-16 -104.5q0 -40 7.5 -68t18.5 -28q25 0 78.5 87zM469 397q-37 0 -70 -46.5t-43 -113.5q79 25 114.5 53t35.5 66q0 41 -37 41zM451.5 607q-53.5 -39 -108.5 -85l-11 3
l-25 27q48 49 96 102.5t62 69.5l11 -2l45 -53l-1 -12q-15 -11 -68.5 -50z" />
    <glyph glyph-name="Oslashacute" unicode="&#x1fe;" horiz-adv-x="657" 
d="M612.5 519q30.5 -59 30.5 -134q0 -112 -45.5 -202.5t-125.5 -142.5t-179 -52q-55 0 -100 18l-62 -108l-40 16l-3 10l61 106q-52 34 -80.5 92.5t-28.5 131.5q0 112 44.5 202.5t123 142t176.5 51.5q50 0 96 -16l45 83l43 -17l3 -12l-44 -77q55 -33 85.5 -92zM253.5 540.5
q-48.5 -38.5 -75.5 -107.5t-27 -158q0 -102 43 -163l245 447q-34 20 -76 20q-61 0 -109.5 -38.5zM423 89q49 38 76.5 107t27.5 159q0 107 -49 169l-246 -450q34 -23 79 -23q63 0 112 38zM376 744q-65 -20 -133 -44l-10 7l-9 33q62 31 126 64t83 43l10 -5l20 -60l-4 -12
q-18 -6 -83 -26z" />
    </font>
</defs>
</svg>
